Topmarks-Bold-4.ufo
<glyph name="exclam" format="1">
  <advance width="511"/>
  <unicode hex="0021"/>
  <outline>
    <contour>
      <point x="257" y="0" type="curve" smooth="yes"/>
      <point x="358" y="0"/>
      <point x="434" y="74"/>
      <point x="434" y="175" type="curve" smooth="yes"/>
      <point x="434" y="277"/>
      <point x="359" y="351"/>
      <point x="258" y="351" type="curve" smooth="yes"/>
      <point x="157" y="351"/>
      <point x="82" y="278"/>
      <point x="82" y="178" type="curve" smooth="yes"/>
      <point x="82" y="75"/>
      <point x="155" y="0"/>
    </contour>
    <contour>
      <point x="188" y="518" type="line"/>
      <point x="314" y="518" type="line"/>
      <point x="406" y="1704" type="line"/>
      <point x="99" y="1704" type="line"/>
    </contour>
  </outline>
</glyph>
<glyph name="quotedbl" format="1">
  <advance width="712"/>
  <unicode hex="0022"/>
  <outline>
    <contour>
      <point x="135" y="1742" type="line"/>
      <point x="284" y="1742" type="line"/>
      <point x="284" y="2284" type="line"/>
      <point x="93" y="2284" type="line"/>
    </contour>
    <contour>
      <point x="465" y="1742" type="line"/>
      <point x="613" y="1742" type="line"/>
      <point x="613" y="2284" type="line"/>
      <point x="424" y="2284" type="line"/>
    </contour>
  </outline>
</glyph>
<glyph name="numbersign" format="1">
  <advance width="1399"/>
  <unicode hex="0023"/>
  <outline>
    <contour>
      <point x="238" y="106" type="line"/>
      <point x="406" y="106" type="line"/>
      <point x="499" y="605" type="line"/>
      <point x="798" y="605" type="line"/>
      <point x="707" y="106" type="line"/>
      <point x="873" y="106" type="line"/>
      <point x="967" y="605" type="line"/>
      <point x="1265" y="605" type="line"/>
      <point x="1281" y="752" type="line"/>
      <point x="993" y="752" type="line"/>
      <point x="1051" y="1076" type="line"/>
      <point x="1337" y="1076" type="line"/>
      <point x="1353" y="1221" type="line"/>
      <point x="1077" y="1221" type="line"/>
      <point x="1167" y="1703" type="line"/>
      <point x="999" y="1703" type="line"/>
      <point x="912" y="1221" type="line"/>
      <point x="613" y="1221" type="line"/>
      <point x="702" y="1703" type="line"/>
      <point x="534" y="1703" type="line"/>
      <point x="444" y="1221" type="line"/>
      <point x="136" y="1221" type="line"/>
      <point x="120" y="1076" type="line"/>
      <point x="419" y="1076" type="line"/>
      <point x="399" y="967"/>
      <point x="381" y="863"/>
      <point x="362" y="752" type="curve"/>
      <point x="58" y="752" type="line"/>
      <point x="46" y="605" type="line"/>
      <point x="334" y="605" type="line"/>
    </contour>
    <contour>
      <point x="525" y="752" type="line"/>
      <point x="587" y="1076" type="line"/>
      <point x="885" y="1076" type="line"/>
      <point x="827" y="752" type="line"/>
    </contour>
  </outline>
</glyph>
<glyph name="dollar" format="1">
  <advance width="1171"/>
  <unicode hex="0024"/>
  <outline>
    <contour>
      <point x="503" y="-303" type="line"/>
      <point x="644" y="-303" type="line"/>
      <point x="641" y="-114" type="line"/>
      <point x="706" y="-107"/>
      <point x="769" y="-95"/>
      <point x="827" y="-73" type="curve" smooth="yes"/>
      <point x="985" y="-14"/>
      <point x="1125" y="106"/>
      <point x="1125" y="322" type="curve" smooth="yes"/>
      <point x="1125" y="459"/>
      <point x="1077" y="541"/>
      <point x="1002" y="608" type="curve" smooth="yes"/>
      <point x="905" y="694"/>
      <point x="781" y="747"/>
      <point x="641" y="803" type="curve"/>
      <point x="643" y="1424" type="line"/>
      <point x="783" y="1420"/>
      <point x="894" y="1380"/>
      <point x="975" y="1306" type="curve"/>
      <point x="1031" y="1456" type="line"/>
      <point x="939" y="1536"/>
      <point x="803" y="1585"/>
      <point x="642" y="1588" type="curve"/>
      <point x="638" y="1748" type="line"/>
      <point x="496" y="1748" type="line"/>
      <point x="501" y="1587" type="line"/>
      <point x="371" y="1577"/>
      <point x="261" y="1516"/>
      <point x="185" y="1443" type="curve" smooth="yes"/>
      <point x="112" y="1372"/>
      <point x="47" y="1266"/>
      <point x="47" y="1128" type="curve" smooth="yes"/>
      <point x="47" y="1063"/>
      <point x="60" y="1007"/>
      <point x="83" y="961" type="curve" smooth="yes"/>
      <point x="165" y="806"/>
      <point x="336" y="736"/>
      <point x="501" y="660" type="curve"/>
      <point x="496" y="48" type="line"/>
      <point x="370" y="54"/>
      <point x="262" y="103"/>
      <point x="176" y="161" type="curve"/>
      <point x="121" y="3" type="line"/>
      <point x="222" y="-72"/>
      <point x="339" y="-117"/>
      <point x="498" y="-120" type="curve"/>
    </contour>
    <contour>
      <point x="638" y="52" type="curve"/>
      <point x="643" y="610" type="line"/>
      <point x="766" y="556"/>
      <point x="921" y="494"/>
      <point x="921" y="319" type="curve" smooth="yes"/>
      <point x="921" y="281"/>
      <point x="913" y="247"/>
      <point x="898" y="216" type="curve" smooth="yes"/>
      <point x="853" y="125"/>
      <point x="757" y="69"/>
    </contour>
    <contour>
      <point x="498" y="859" type="line"/>
      <point x="375" y="906"/>
      <point x="263" y="971"/>
      <point x="263" y="1143" type="curve" smooth="yes"/>
      <point x="263" y="1300"/>
      <point x="364" y="1399"/>
      <point x="501" y="1417" type="curve"/>
    </contour>
  </outline>
</glyph>
<glyph name="percent" format="1">
  <advance width="1973"/>
  <unicode hex="0025"/>
  <outline>
    <contour>
      <point x="452" y="789" type="curve" smooth="yes"/>
      <point x="514" y="789"/>
      <point x="570" y="802"/>
      <point x="621" y="825" type="curve" smooth="yes"/>
      <point x="761" y="891"/>
      <point x="860" y="1032"/>
      <point x="860" y="1238" type="curve" smooth="yes"/>
      <point x="860" y="1503"/>
      <point x="718" y="1683"/>
      <point x="458" y="1683" type="curve" smooth="yes"/>
      <point x="396" y="1683"/>
      <point x="339" y="1672"/>
      <point x="288" y="1649" type="curve" smooth="yes"/>
      <point x="147" y="1584"/>
      <point x="49" y="1440"/>
      <point x="49" y="1233" type="curve" smooth="yes"/>
      <point x="49" y="1171"/>
      <point x="57" y="1113"/>
      <point x="76" y="1059" type="curve" smooth="yes"/>
      <point x="127" y="904"/>
      <point x="251" y="789"/>
    </contour>
    <contour>
      <point x="1515" y="-47" type="curve" smooth="yes"/>
      <point x="1577" y="-47"/>
      <point x="1634" y="-36"/>
      <point x="1685" y="-12" type="curve" smooth="yes"/>
      <point x="1825" y="53"/>
      <point x="1925" y="196"/>
      <point x="1925" y="402" type="curve" smooth="yes"/>
      <point x="1925" y="667"/>
      <point x="1782" y="847"/>
      <point x="1522" y="847" type="curve" smooth="yes"/>
      <point x="1460" y="847"/>
      <point x="1402" y="836"/>
      <point x="1351" y="812" type="curve" smooth="yes"/>
      <point x="1210" y="747"/>
      <point x="1112" y="603"/>
      <point x="1112" y="396" type="curve" smooth="yes"/>
      <point x="1112" y="333"/>
      <point x="1121" y="275"/>
      <point x="1140" y="222" type="curve" smooth="yes"/>
      <point x="1193" y="66"/>
      <point x="1314" y="-47"/>
    </contour>
    <contour>
      <point x="456" y="922" type="curve" smooth="yes"/>
      <point x="286" y="922"/>
      <point x="214" y="1061"/>
      <point x="214" y="1235" type="curve" smooth="yes"/>
      <point x="214" y="1407"/>
      <point x="287" y="1551"/>
      <point x="457" y="1551" type="curve" smooth="yes"/>
      <point x="497" y="1551"/>
      <point x="535" y="1543"/>
      <point x="565" y="1527" type="curve" smooth="yes"/>
      <point x="652" y="1479"/>
      <point x="697" y="1377"/>
      <point x="697" y="1239" type="curve" smooth="yes"/>
      <point x="697" y="1068"/>
      <point x="623" y="922"/>
    </contour>
    <contour>
      <point x="1518" y="85" type="curve" smooth="yes"/>
      <point x="1477" y="85"/>
      <point x="1440" y="93"/>
      <point x="1411" y="110" type="curve"/>
      <point x="1322" y="158"/>
      <point x="1277" y="259"/>
      <point x="1277" y="396" type="curve" smooth="yes"/>
      <point x="1277" y="568"/>
      <point x="1351" y="715"/>
      <point x="1521" y="715" type="curve" smooth="yes"/>
      <point x="1688" y="715"/>
      <point x="1759" y="576"/>
      <point x="1759" y="403" type="curve" smooth="yes"/>
      <point x="1759" y="232"/>
      <point x="1687" y="85"/>
    </contour>
    <contour>
      <point x="360" y="-22" type="line"/>
      <point x="536" y="-22" type="line"/>
      <point x="1572" y="1670" type="line"/>
      <point x="1395" y="1670" type="line"/>
    </contour>
  </outline>
</glyph>
<glyph name="ampersand" format="1">
  <advance width="1807"/>
  <unicode hex="0026"/>
  <outline>
    <contour>
      <point x="680" y="-47" type="curve" smooth="yes"/>
      <point x="946" y="-47"/>
      <point x="1122" y="66"/>
      <point x="1258" y="203" type="curve"/>
      <point x="1360" y="102"/>
      <point x="1453" y="-4"/>
      <point x="1623" y="-30" type="curve"/>
      <point x="1775" y="85" type="line"/>
      <point x="1727" y="96"/>
      <point x="1685" y="107"/>
      <point x="1649" y="118" type="curve"/>
      <point x="1525" y="160"/>
      <point x="1450" y="229"/>
      <point x="1365" y="318" type="curve"/>
      <point x="1493" y="485"/>
      <point x="1587" y="718"/>
      <point x="1597" y="998" type="curve"/>
      <point x="1406" y="1022" type="line"/>
      <point x="1406" y="973"/>
      <point x="1402" y="924"/>
      <point x="1393" y="872" type="curve" smooth="yes"/>
      <point x="1367" y="710"/>
      <point x="1308" y="564"/>
      <point x="1232" y="452" type="curve"/>
      <point x="758" y="949" type="line"/>
      <point x="848" y="998"/>
      <point x="936" y="1059"/>
      <point x="1001" y="1132" type="curve"/>
      <point x="1057" y="1192"/>
      <point x="1109" y="1271"/>
      <point x="1109" y="1379" type="curve" smooth="yes"/>
      <point x="1109" y="1436"/>
      <point x="1097" y="1484"/>
      <point x="1072" y="1527" type="curve" smooth="yes"/>
      <point x="1003" y="1644"/>
      <point x="862" y="1714"/>
      <point x="680" y="1714" type="curve" smooth="yes"/>
      <point x="452" y="1714"/>
      <point x="265" y="1606"/>
      <point x="265" y="1373" type="curve" smooth="yes"/>
      <point x="265" y="1332"/>
      <point x="271" y="1293"/>
      <point x="284" y="1259" type="curve" smooth="yes"/>
      <point x="325" y="1144"/>
      <point x="409" y="1066"/>
      <point x="488" y="985" type="curve"/>
      <point x="381" y="926"/>
      <point x="270" y="858"/>
      <point x="189" y="773" type="curve" smooth="yes"/>
      <point x="115" y="696"/>
      <point x="55" y="599"/>
      <point x="55" y="456" type="curve" smooth="yes"/>
      <point x="55" y="377"/>
      <point x="68" y="305"/>
      <point x="100" y="243" type="curve" smooth="yes"/>
      <point x="196" y="57"/>
      <point x="405" y="-47"/>
    </contour>
    <contour>
      <point x="676" y="120" type="curve" smooth="yes"/>
      <point x="616" y="120"/>
      <point x="560" y="129"/>
      <point x="509" y="146" type="curve" smooth="yes"/>
      <point x="378" y="191"/>
      <point x="260" y="288"/>
      <point x="260" y="461" type="curve" smooth="yes"/>
      <point x="260" y="512"/>
      <point x="270" y="557"/>
      <point x="289" y="597" type="curve" smooth="yes"/>
      <point x="351" y="726"/>
      <point x="478" y="799"/>
      <point x="603" y="865" type="curve"/>
      <point x="866" y="599" type="line" smooth="yes"/>
      <point x="945" y="518"/>
      <point x="1030" y="425"/>
      <point x="1107" y="349" type="curve" smooth="yes"/>
      <point x="1122" y="334"/>
      <point x="1132" y="326"/>
      <point x="1134" y="326" type="curve"/>
      <point x="1023" y="215"/>
      <point x="894" y="120"/>
    </contour>
    <contour>
      <point x="639" y="1062" type="curve"/>
      <point x="613" y="1087"/>
      <point x="587" y="1110"/>
      <point x="566" y="1133" type="curve" smooth="yes"/>
      <point x="514" y="1191"/>
      <point x="463" y="1260"/>
      <point x="463" y="1367" type="curve" smooth="yes"/>
      <point x="463" y="1496"/>
      <point x="562" y="1557"/>
      <point x="688" y="1557" type="curve" smooth="yes"/>
      <point x="811" y="1557"/>
      <point x="914" y="1495"/>
      <point x="914" y="1367" type="curve" smooth="yes"/>
      <point x="914" y="1334"/>
      <point x="905" y="1304"/>
      <point x="889" y="1275" type="curve" smooth="yes"/>
      <point x="837" y="1179"/>
      <point x="737" y="1114"/>
    </contour>
  </outline>
</glyph>
<glyph name="quotesingle" format="1">
  <advance width="382"/>
  <unicode hex="0027"/>
  <outline>
    <contour>
      <point x="134" y="1742" type="line"/>
      <point x="283" y="1742" type="line"/>
      <point x="283" y="2284" type="line"/>
      <point x="93" y="2284" type="line"/>
    </contour>
  </outline>
</glyph>
<glyph name="parenleft" format="1">
  <advance width="652"/>
  <unicode hex="0028"/>
  <outline>
    <contour>
      <point x="347" y="-316" type="curve"/>
      <point x="604" y="-316" type="line"/>
      <point x="435" y="56"/>
      <point x="353" y="363"/>
      <point x="353" y="670" type="curve" smooth="yes"/>
      <point x="353" y="987"/>
      <point x="441" y="1303"/>
      <point x="615" y="1692" type="curve"/>
      <point x="359" y="1692" type="line"/>
      <point x="156" y="1305"/>
      <point x="53" y="989"/>
      <point x="53" y="673" type="curve" smooth="yes"/>
      <point x="53" y="365"/>
      <point x="150" y="56"/>
    </contour>
  </outline>
</glyph>
<glyph name="parenright" format="1">
  <advance width="653"/>
  <unicode hex="0029"/>
  <outline>
    <contour>
      <point x="49" y="-316" type="curve"/>
      <point x="305" y="-316" type="line"/>
      <point x="503" y="56"/>
      <point x="601" y="365"/>
      <point x="601" y="673" type="curve" smooth="yes"/>
      <point x="601" y="989"/>
      <point x="496" y="1305"/>
      <point x="294" y="1692" type="curve"/>
      <point x="38" y="1692" type="line"/>
      <point x="211" y="1303"/>
      <point x="300" y="987"/>
      <point x="300" y="670" type="curve" smooth="yes"/>
      <point x="300" y="363"/>
      <point x="219" y="56"/>
    </contour>
  </outline>
</glyph>
<glyph name="asterisk" format="1">
  <advance width="964"/>
  <unicode hex="002A"/>
  <outline>
    <contour>
      <point x="674" y="1298" type="line"/>
      <point x="818" y="1384" type="line"/>
      <point x="588" y="1679" type="line"/>
      <point x="889" y="1782" type="line"/>
      <point x="815" y="1928" type="line"/>
      <point x="547" y="1786" type="line"/>
      <point x="547" y="2136" type="line"/>
      <point x="384" y="2136" type="line"/>
      <point x="399" y="2019"/>
      <point x="416" y="1898"/>
      <point x="431" y="1780" type="curve"/>
      <point x="106" y="1925" type="line"/>
      <point x="82" y="1766" type="line"/>
      <point x="395" y="1675" type="line"/>
      <point x="176" y="1395" type="line"/>
      <point x="318" y="1307" type="line"/>
      <point x="493" y="1610" type="line"/>
    </contour>
  </outline>
</glyph>
<glyph name="plus" format="1">
  <advance width="2502"/>
  <unicode hex="002B"/>
  <outline>
    <contour>
      <point x="853" y="109" type="line"/>
      <point x="1024" y="109" type="line"/>
      <point x="1024" y="605" type="line"/>
      <point x="1540" y="605" type="line"/>
      <point x="1540" y="769" type="line"/>
      <point x="1026" y="769" type="line"/>
      <point x="1026" y="1266" type="line"/>
      <point x="856" y="1266" type="line"/>
      <point x="856" y="769" type="line"/>
      <point x="340" y="769" type="line"/>
      <point x="340" y="605" type="line"/>
      <point x="853" y="605" type="line"/>
    </contour>
  </outline>
</glyph>
<glyph name="comma" format="1">
  <advance width="927"/>
  <unicode hex="002C"/>
  <outline>
    <contour>
      <point x="135" y="-451" type="line"/>
      <point x="285" y="-451" type="line"/>
      <point x="470" y="93" type="line"/>
      <point x="256" y="93" type="line"/>
    </contour>
  </outline>
</glyph>
<glyph name="hyphen" format="1">
  <advance width="1249"/>
  <unicode hex="002D"/>
  <outline>
    <contour>
      <point x="136" y="861" type="line"/>
      <point x="691" y="861" type="line"/>
      <point x="691" y="997" type="line"/>
      <point x="136" y="997" type="line"/>
    </contour>
  </outline>
</glyph>
<glyph name="period" format="1">
  <advance width="927"/>
  <unicode hex="002E"/>
  <outline>
    <contour>
      <point x="308" y="0" type="curve" smooth="yes"/>
      <point x="402" y="0"/>
      <point x="469" y="66"/>
      <point x="469" y="160" type="curve" smooth="yes"/>
      <point x="469" y="255"/>
      <point x="402" y="322"/>
      <point x="308" y="322" type="curve" smooth="yes"/>
      <point x="214" y="322"/>
      <point x="147" y="255"/>
      <point x="147" y="163" type="curve" smooth="yes"/>
      <point x="147" y="68"/>
      <point x="214" y="0"/>
    </contour>
  </outline>
</glyph>
<glyph name="slash" format="1">
  <advance width="865"/>
  <unicode hex="002F"/>
  <outline>
    <contour>
      <point x="42" y="-378" type="line"/>
      <point x="201" y="-378" type="line"/>
      <point x="822" y="1280" type="line"/>
      <point x="659" y="1280" type="line"/>
    </contour>
  </outline>
</glyph>
<glyph name="zero" format="1">
  <advance width="1301"/>
  <unicode hex="0030"/>
  <outline>
    <contour>
      <point x="649" y="224" type="curve" smooth="yes"/>
      <point x="473" y="224"/>
      <point x="358" y="429"/>
      <point x="358" y="735" type="curve" smooth="yes"/>
      <point x="358" y="1047"/>
      <point x="473" y="1255"/>
      <point x="649" y="1255" type="curve" smooth="yes"/>
      <point x="823" y="1255"/>
      <point x="937" y="1047"/>
      <point x="937" y="735" type="curve" smooth="yes"/>
      <point x="937" y="429"/>
      <point x="823" y="224"/>
    </contour>
    <contour>
      <point x="649" y="6" type="curve" smooth="yes"/>
      <point x="985" y="6"/>
      <point x="1211" y="297"/>
      <point x="1211" y="735" type="curve" smooth="yes"/>
      <point x="1211" y="1179"/>
      <point x="985" y="1474"/>
      <point x="649" y="1474" type="curve" smooth="yes"/>
      <point x="316" y="1474"/>
      <point x="92" y="1179"/>
      <point x="92" y="735" type="curve" smooth="yes"/>
      <point x="92" y="297"/>
      <point x="316" y="6"/>
    </contour>
  </outline>
</glyph>
<glyph name="one" format="1">
  <advance width="723"/>
  <unicode hex="0031"/>
  <outline>
    <contour>
      <point x="373" y="0" type="line"/>
      <point x="635" y="0" type="line"/>
      <point x="635" y="1431" type="line"/>
      <point x="379" y="1429" type="line"/>
      <point x="314" y="1378"/>
      <point x="176" y="1295"/>
      <point x="63" y="1243" type="curve"/>
      <point x="122" y="1072" type="line"/>
      <point x="225" y="1116"/>
      <point x="309" y="1163"/>
      <point x="373" y="1214" type="curve"/>
    </contour>
  </outline>
</glyph>
<glyph name="two" format="1">
  <advance width="1109"/>
  <unicode hex="0032"/>
  <outline>
    <contour>
      <point x="92" y="-6" type="line"/>
      <point x="999" y="-6" type="line"/>
      <point x="999" y="209" type="line"/>
      <point x="437" y="209" type="line"/>
      <point x="501" y="270"/>
      <point x="654" y="387"/>
      <point x="790" y="534" type="curve"/>
      <point x="926" y="682"/>
      <point x="1045" y="861"/>
      <point x="1045" y="1045" type="curve" smooth="yes"/>
      <point x="1045" y="1343"/>
      <point x="805" y="1474"/>
      <point x="557" y="1474" type="curve" smooth="yes"/>
      <point x="346" y="1474"/>
      <point x="133" y="1381"/>
      <point x="57" y="1203" type="curve"/>
      <point x="218" y="1066" type="line"/>
      <point x="290" y="1192"/>
      <point x="424" y="1254"/>
      <point x="542" y="1254" type="curve" smooth="yes"/>
      <point x="665" y="1254"/>
      <point x="769" y="1188"/>
      <point x="769" y="1042" type="curve" smooth="yes"/>
      <point x="769" y="891"/>
      <point x="653" y="727"/>
      <point x="510" y="577" type="curve" smooth="yes"/>
      <point x="367" y="427"/>
      <point x="197" y="291"/>
      <point x="91" y="192" type="curve"/>
    </contour>
  </outline>
</glyph>
<glyph name="three" format="1">
  <advance width="1031"/>
  <unicode hex="0033"/>
  <outline>
    <contour>
      <point x="504" y="-25" type="curve" smooth="yes"/>
      <point x="747" y="-25"/>
      <point x="981" y="111"/>
      <point x="981" y="386" type="curve" smooth="yes"/>
      <point x="981" y="637"/>
      <point x="818" y="732"/>
      <point x="741" y="758" type="curve"/>
      <point x="813" y="794"/>
      <point x="944" y="881"/>
      <point x="944" y="1077" type="curve" smooth="yes"/>
      <point x="944" y="1345"/>
      <point x="732" y="1474"/>
      <point x="501" y="1474" type="curve" smooth="yes"/>
      <point x="333" y="1474"/>
      <point x="155" y="1406"/>
      <point x="43" y="1272" type="curve"/>
      <point x="176" y="1119" type="line"/>
      <point x="249" y="1210"/>
      <point x="367" y="1256"/>
      <point x="474" y="1256" type="curve" smooth="yes"/>
      <point x="599" y="1256"/>
      <point x="718" y="1194"/>
      <point x="718" y="1047" type="curve" smooth="yes"/>
      <point x="718" y="859"/>
      <point x="526" y="843"/>
      <point x="397" y="843" type="curve" smooth="yes"/>
      <point x="335" y="843" type="line"/>
      <point x="337" y="635" type="line"/>
      <point x="412" y="637" type="line"/>
      <point x="603" y="637"/>
      <point x="760" y="608"/>
      <point x="760" y="389" type="curve" smooth="yes"/>
      <point x="760" y="280"/>
      <point x="657" y="191"/>
      <point x="513" y="191" type="curve" smooth="yes"/>
      <point x="407" y="191"/>
      <point x="278" y="239"/>
      <point x="149" y="359" type="curve"/>
      <point x="58" y="179" type="line"/>
      <point x="155" y="44"/>
      <point x="330" y="-25"/>
    </contour>
  </outline>
</glyph>
<glyph name="four" format="1">
  <advance width="1273"/>
  <unicode hex="0034"/>
  <outline>
    <contour>
      <point x="746" y="0" type="line"/>
      <point x="998" y="0" type="line"/>
      <point x="998" y="322" type="line"/>
      <point x="1179" y="322" type="line"/>
      <point x="1179" y="520" type="line"/>
      <point x="998" y="520" type="line"/>
      <point x="998" y="1413" type="line"/>
      <point x="722" y="1413" type="line"/>
      <point x="96" y="513" type="line"/>
      <point x="96" y="322" type="line"/>
      <point x="746" y="322" type="line"/>
    </contour>
    <contour>
      <point x="349" y="520" type="line"/>
      <point x="643" y="951" type="line"/>
      <point x="746" y="1126" type="line"/>
      <point x="746" y="520" type="line"/>
    </contour>
  </outline>
</glyph>
<glyph name="five" format="1">
  <advance width="1022"/>
  <unicode hex="0035"/>
  <outline>
    <contour>
      <point x="466" y="-32" type="curve" smooth="yes"/>
      <point x="724" y="-29"/>
      <point x="973" y="144"/>
      <point x="973" y="433" type="curve" smooth="yes"/>
      <point x="973" y="773"/>
      <point x="761" y="928"/>
      <point x="562" y="929" type="curve" smooth="yes"/>
      <point x="467" y="930"/>
      <point x="375" y="896"/>
      <point x="310" y="831" type="curve"/>
      <point x="325" y="1205" type="line"/>
      <point x="867" y="1205" type="line"/>
      <point x="867" y="1404" type="line"/>
      <point x="98" y="1404" type="line"/>
      <point x="98" y="624" type="line"/>
      <point x="269" y="624" type="line"/>
      <point x="341" y="698"/>
      <point x="425" y="734"/>
      <point x="503" y="733" type="curve" smooth="yes"/>
      <point x="629" y="731"/>
      <point x="736" y="631"/>
      <point x="736" y="436" type="curve" smooth="yes"/>
      <point x="736" y="305"/>
      <point x="619" y="186"/>
      <point x="460" y="187" type="curve" smooth="yes"/>
      <point x="361" y="188"/>
      <point x="247" y="235"/>
      <point x="132" y="353" type="curve"/>
      <point x="44" y="158" type="line"/>
      <point x="154" y="26"/>
      <point x="312" y="-34"/>
    </contour>
  </outline>
</glyph>
<glyph name="six" format="1">
  <advance width="1175"/>
  <unicode hex="0036"/>
  <outline>
    <contour>
      <point x="592" y="-35" type="curve" smooth="yes"/>
      <point x="841" y="-35"/>
      <point x="1086" y="127"/>
      <point x="1086" y="455" type="curve" smooth="yes"/>
      <point x="1086" y="722"/>
      <point x="885" y="933"/>
      <point x="613" y="933" type="curve" smooth="yes"/>
      <point x="557" y="933"/>
      <point x="455" y="909"/>
      <point x="413" y="864" type="curve"/>
      <point x="447" y="966"/>
      <point x="616" y="1232"/>
      <point x="833" y="1458" type="curve"/>
      <point x="631" y="1571" type="line"/>
      <point x="163" y="1087"/>
      <point x="90" y="778"/>
      <point x="90" y="459" type="curve" smooth="yes"/>
      <point x="90" y="130"/>
      <point x="342" y="-35"/>
    </contour>
    <contour>
      <point x="581" y="168" type="curve" smooth="yes"/>
      <point x="443" y="168"/>
      <point x="304" y="260"/>
      <point x="304" y="442" type="curve" smooth="yes"/>
      <point x="304" y="640"/>
      <point x="441" y="736"/>
      <point x="577" y="736" type="curve" smooth="yes"/>
      <point x="716" y="736"/>
      <point x="856" y="636"/>
      <point x="856" y="440" type="curve" smooth="yes"/>
      <point x="856" y="259"/>
      <point x="718" y="168"/>
    </contour>
  </outline>
</glyph>
<glyph name="seven" format="1">
  <advance width="1134"/>
  <unicode hex="0037"/>
  <outline>
    <contour>
      <point x="260" y="0" type="line"/>
      <point x="526" y="0" type="line"/>
      <point x="1038" y="1232" type="line"/>
      <point x="1038" y="1413" type="line"/>
      <point x="98" y="1413" type="line"/>
      <point x="98" y="1214" type="line"/>
      <point x="780" y="1214" type="line"/>
    </contour>
  </outline>
</glyph>
<glyph name="eight" format="1">
  <advance width="1131"/>
  <unicode hex="0038"/>
  <outline>
    <contour>
      <point x="566" y="6" type="curve" smooth="yes"/>
      <point x="701" y="6"/>
      <point x="818" y="46"/>
      <point x="899" y="106" type="curve" smooth="yes"/>
      <point x="980" y="165"/>
      <point x="1044" y="256"/>
      <point x="1044" y="394" type="curve" smooth="yes"/>
      <point x="1044" y="605"/>
      <point x="912" y="720"/>
      <point x="737" y="772" type="curve"/>
      <point x="890" y="820"/>
      <point x="1011" y="921"/>
      <point x="1011" y="1114" type="curve" smooth="yes"/>
      <point x="1011" y="1171"/>
      <point x="999" y="1221"/>
      <point x="976" y="1266" type="curve" smooth="yes"/>
      <point x="909" y="1398"/>
      <point x="761" y="1474"/>
      <point x="566" y="1474" type="curve" smooth="yes"/>
      <point x="504" y="1474"/>
      <point x="447" y="1465"/>
      <point x="391" y="1450" type="curve"/>
      <point x="247" y="1406"/>
      <point x="120" y="1302"/>
      <point x="120" y="1114" type="curve" smooth="yes"/>
      <point x="120" y="921"/>
      <point x="239" y="820"/>
      <point x="392" y="772" type="curve"/>
      <point x="218" y="720"/>
      <point x="86" y="605"/>
      <point x="86" y="394" type="curve" smooth="yes"/>
      <point x="86" y="331"/>
      <point x="100" y="275"/>
      <point x="126" y="227" type="curve" smooth="yes"/>
      <point x="201" y="89"/>
      <point x="359" y="6"/>
    </contour>
    <contour>
      <point x="566" y="147" type="curve" smooth="yes"/>
      <point x="391" y="147"/>
      <point x="257" y="228"/>
      <point x="257" y="406" type="curve" smooth="yes"/>
      <point x="257" y="447"/>
      <point x="266" y="483"/>
      <point x="282" y="515" type="curve" smooth="yes"/>
      <point x="332" y="617"/>
      <point x="439" y="672"/>
      <point x="566" y="698" type="curve"/>
      <point x="718" y="667"/>
      <point x="873" y="592"/>
      <point x="873" y="406" type="curve" smooth="yes"/>
      <point x="873" y="363"/>
      <point x="866" y="328"/>
      <point x="850" y="295" type="curve" smooth="yes"/>
      <point x="805" y="200"/>
      <point x="703" y="147"/>
    </contour>
    <contour>
      <point x="566" y="844" type="curve"/>
      <point x="413" y="873"/>
      <point x="288" y="940"/>
      <point x="288" y="1109" type="curve" smooth="yes"/>
      <point x="288" y="1146"/>
      <point x="294" y="1179"/>
      <point x="309" y="1207" type="curve" smooth="yes"/>
      <point x="352" y="1290"/>
      <point x="444" y="1339"/>
      <point x="566" y="1339" type="curve" smooth="yes"/>
      <point x="717" y="1339"/>
      <point x="843" y="1265"/>
      <point x="843" y="1109" type="curve" smooth="yes"/>
      <point x="843" y="940"/>
      <point x="718" y="873"/>
    </contour>
  </outline>
</glyph>
<glyph name="nine" format="1">
  <advance width="1175"/>
  <unicode hex="0039"/>
  <outline>
    <contour>
      <point x="546" y="-132" type="line"/>
      <point x="913" y="498" type="line" smooth="yes"/>
      <point x="994" y="636"/>
      <point x="1086" y="854"/>
      <point x="1086" y="979" type="curve" smooth="yes"/>
      <point x="1086" y="1308"/>
      <point x="836" y="1474"/>
      <point x="586" y="1474" type="curve" smooth="yes"/>
      <point x="337" y="1474"/>
      <point x="90" y="1313"/>
      <point x="90" y="984" type="curve" smooth="yes"/>
      <point x="90" y="718"/>
      <point x="291" y="506"/>
      <point x="564" y="506" type="curve" smooth="yes"/>
      <point x="621" y="506"/>
      <point x="645" y="510"/>
      <point x="657" y="516" type="curve"/>
      <point x="344" y="-19" type="line"/>
    </contour>
    <contour>
      <point x="600" y="701" type="curve" smooth="yes"/>
      <point x="461" y="701"/>
      <point x="321" y="802"/>
      <point x="321" y="998" type="curve" smooth="yes"/>
      <point x="321" y="1180"/>
      <point x="458" y="1271"/>
      <point x="595" y="1271" type="curve" smooth="yes"/>
      <point x="733" y="1271"/>
      <point x="873" y="1178"/>
      <point x="873" y="996" type="curve" smooth="yes"/>
      <point x="873" y="799"/>
      <point x="736" y="701"/>
    </contour>
  </outline>
</glyph>
<glyph name="colon" format="1">
  <advance width="453"/>
  <unicode hex="003A"/>
  <outline>
    <contour>
      <point x="102" y="-20" type="line"/>
      <point x="351" y="-20" type="line"/>
      <point x="351" y="227" type="line"/>
      <point x="102" y="227" type="line"/>
    </contour>
    <contour>
      <point x="102" y="980" type="line"/>
      <point x="351" y="980" type="line"/>
      <point x="351" y="1227" type="line"/>
      <point x="102" y="1227" type="line"/>
    </contour>
  </outline>
</glyph>
<glyph name="semicolon" format="1">
  <advance width="429"/>
  <unicode hex="003B"/>
  <outline>
    <contour>
      <point x="45" y="-451" type="line"/>
      <point x="195" y="-451" type="line"/>
      <point x="381" y="93" type="line"/>
      <point x="167" y="93" type="line"/>
    </contour>
    <contour>
      <point x="113" y="837" type="line"/>
      <point x="362" y="837" type="line"/>
      <point x="362" y="1084" type="line"/>
      <point x="167" y="1084" type="line"/>
    </contour>
  </outline>
</glyph>
<glyph name="less" format="1">
  <advance width="1077"/>
  <unicode hex="003C"/>
  <outline>
    <contour>
      <point x="1022" y="84" type="line"/>
      <point x="1022" y="236" type="line"/>
      <point x="260" y="586" type="line"/>
      <point x="1026" y="947" type="line"/>
      <point x="1026" y="1098" type="line"/>
      <point x="48" y="629" type="line"/>
      <point x="48" y="542" type="line"/>
    </contour>
  </outline>
</glyph>
<glyph name="equal" format="1">
  <advance width="1222"/>
  <unicode hex="003D"/>
  <outline>
    <contour>
      <point x="103" y="499" type="line"/>
      <point x="1120" y="499" type="line"/>
      <point x="1120" y="635" type="line"/>
      <point x="103" y="635" type="line"/>
    </contour>
    <contour>
      <point x="102" y="902" type="line"/>
      <point x="1120" y="902" type="line"/>
      <point x="1120" y="1041" type="line"/>
      <point x="102" y="1041" type="line"/>
    </contour>
  </outline>
</glyph>
<glyph name="greater" format="1">
  <advance width="1080"/>
  <unicode hex="003E"/>
  <outline>
    <contour>
      <point x="53" y="102" type="line"/>
      <point x="1034" y="547" type="line"/>
      <point x="1034" y="636" type="line"/>
      <point x="58" y="1118" type="line"/>
      <point x="58" y="966" type="line"/>
      <point x="819" y="597" type="line"/>
      <point x="53" y="255" type="line"/>
    </contour>
  </outline>
</glyph>
<glyph name="question" format="1">
  <advance width="1772"/>
  <unicode hex="003F"/>
  <outline>
    <contour>
      <point x="482" y="366" type="curve"/>
      <point x="593" y="366" type="line"/>
      <point x="593" y="738"/>
      <point x="1019" y="771"/>
      <point x="1019" y="1127" type="curve" smooth="yes"/>
      <point x="1019" y="1367"/>
      <point x="839" y="1471"/>
      <point x="625" y="1471" type="curve" smooth="yes"/>
      <point x="525" y="1471"/>
      <point x="414" y="1449"/>
      <point x="314" y="1406" type="curve"/>
      <point x="344" y="1241" type="line"/>
      <point x="416" y="1283"/>
      <point x="505" y="1310"/>
      <point x="586" y="1310" type="curve" smooth="yes"/>
      <point x="705" y="1310"/>
      <point x="805" y="1251"/>
      <point x="805" y="1100" type="curve" smooth="yes"/>
      <point x="805" y="891"/>
      <point x="482" y="846"/>
      <point x="482" y="408" type="curve" smooth="yes"/>
      <point x="482" y="393"/>
      <point x="481" y="380"/>
    </contour>
    <contour>
      <point x="532" y="0" type="curve" smooth="yes"/>
      <point x="619" y="0"/>
      <point x="682" y="63"/>
      <point x="682" y="148" type="curve" smooth="yes"/>
      <point x="682" y="235"/>
      <point x="620" y="298"/>
      <point x="534" y="298" type="curve" smooth="yes"/>
      <point x="447" y="298"/>
      <point x="384" y="235"/>
      <point x="384" y="150" type="curve" smooth="yes"/>
      <point x="384" y="63"/>
      <point x="445" y="0"/>
    </contour>
  </outline>
</glyph>
<glyph name="at" format="1">
  <advance width="3253"/>
  <unicode hex="0040"/>
  <outline>
    <contour>
      <point x="997" y="-192" type="curve" smooth="yes"/>
      <point x="1179" y="-192"/>
      <point x="1369" y="-146"/>
      <point x="1540" y="-51" type="curve"/>
      <point x="1453" y="88" type="line"/>
      <point x="1320" y="17"/>
      <point x="1172" y="-19"/>
      <point x="1028" y="-19" type="curve" smooth="yes"/>
      <point x="686" y="-19"/>
      <point x="368" y="183"/>
      <point x="368" y="598" type="curve" smooth="yes"/>
      <point x="368" y="1012"/>
      <point x="695" y="1214"/>
      <point x="1009" y="1214" type="curve" smooth="yes"/>
      <point x="1296" y="1214"/>
      <point x="1571" y="1044"/>
      <point x="1571" y="709" type="curve" smooth="yes"/>
      <point x="1571" y="416"/>
      <point x="1454" y="303"/>
      <point x="1367" y="303" type="curve" smooth="yes"/>
      <point x="1317" y="303"/>
      <point x="1278" y="340"/>
      <point x="1278" y="400" type="curve" smooth="yes"/>
      <point x="1278" y="417"/>
      <point x="1331" y="664"/>
      <point x="1410" y="1018" type="curve"/>
      <point x="1230" y="1018" type="line"/>
      <point x="1192" y="933" type="line"/>
      <point x="1126" y="1015"/>
      <point x="1045" y="1049"/>
      <point x="960" y="1049" type="curve" smooth="yes"/>
      <point x="746" y="1049"/>
      <point x="517" y="822"/>
      <point x="517" y="544" type="curve" smooth="yes"/>
      <point x="517" y="308"/>
      <point x="664" y="171"/>
      <point x="824" y="171" type="curve" smooth="yes"/>
      <point x="926" y="171"/>
      <point x="1033" y="227"/>
      <point x="1109" y="348" type="curve"/>
      <point x="1110" y="224"/>
      <point x="1219" y="170"/>
      <point x="1329" y="170" type="curve" smooth="yes"/>
      <point x="1592" y="170"/>
      <point x="1767" y="383"/>
      <point x="1767" y="704" type="curve" smooth="yes"/>
      <point x="1767" y="1162"/>
      <point x="1397" y="1386"/>
      <point x="1011" y="1386" type="curve" smooth="yes"/>
      <point x="584" y="1386"/>
      <point x="137" y="1156"/>
      <point x="137" y="593" type="curve" smooth="yes"/>
      <point x="137" y="86"/>
      <point x="547" y="-192"/>
    </contour>
    <contour>
      <point x="883" y="337" type="curve" smooth="yes"/>
      <point x="810" y="337"/>
      <point x="749" y="398"/>
      <point x="749" y="523" type="curve" smooth="yes"/>
      <point x="749" y="755"/>
      <point x="899" y="895"/>
      <point x="1011" y="895" type="curve" smooth="yes"/>
      <point x="1075" y="895"/>
      <point x="1128" y="847"/>
      <point x="1128" y="740" type="curve" smooth="yes"/>
      <point x="1128" y="473"/>
      <point x="991" y="337"/>
    </contour>
  </outline>
</glyph>
<glyph name="A" format="1">
  <advance width="1424"/>
  <unicode hex="0041"/>
  <outline>
    <contour>
      <point x="43" y="0" type="line"/>
      <point x="310" y="0" type="line"/>
      <point x="432" y="335" type="line"/>
      <point x="986" y="335" type="line"/>
      <point x="1104" y="0" type="line"/>
      <point x="1382" y="0" type="line"/>
      <point x="834" y="1448" type="line"/>
      <point x="597" y="1448" type="line"/>
    </contour>
    <contour>
      <point x="504" y="533" type="line"/>
      <point x="583" y="750" type="line"/>
      <point x="709" y="1121" type="line"/>
      <point x="839" y="750" type="line"/>
      <point x="916" y="533" type="line"/>
    </contour>
    <contour>
      <point x="712" y="0" type="move" smooth="yes"/>
    </contour>
    <contour>
      <point x="1299" y="10" type="move" smooth="yes"/>
    </contour>
  </outline>
</glyph>
<glyph name="B" format="1">
  <advance width="1347"/>
  <unicode hex="0042"/>
  <outline>
    <contour>
      <point x="150" y="0" type="line"/>
      <point x="692" y="0" type="line" smooth="yes"/>
      <point x="1096" y="0"/>
      <point x="1268" y="127"/>
      <point x="1268" y="420" type="curve" smooth="yes"/>
      <point x="1268" y="633"/>
      <point x="1180" y="740"/>
      <point x="973" y="775" type="curve"/>
      <point x="1138" y="823"/>
      <point x="1207" y="920"/>
      <point x="1207" y="1100" type="curve" smooth="yes"/>
      <point x="1207" y="1345"/>
      <point x="1034" y="1448"/>
      <point x="628" y="1448" type="curve" smooth="yes"/>
      <point x="150" y="1448" type="line"/>
    </contour>
    <contour>
      <point x="403" y="201" type="line"/>
      <point x="403" y="657" type="line"/>
      <point x="671" y="657" type="line" smooth="yes"/>
      <point x="922" y="657"/>
      <point x="1029" y="590"/>
      <point x="1029" y="433" type="curve" smooth="yes"/>
      <point x="1029" y="268"/>
      <point x="926" y="201"/>
      <point x="685" y="201" type="curve" smooth="yes"/>
    </contour>
    <contour>
      <point x="403" y="841" type="line"/>
      <point x="403" y="1248" type="line"/>
      <point x="628" y="1248" type="line" smooth="yes"/>
      <point x="866" y="1248"/>
      <point x="967" y="1195"/>
      <point x="967" y="1062" type="curve" smooth="yes"/>
      <point x="967" y="907"/>
      <point x="870" y="841"/>
      <point x="642" y="841" type="curve" smooth="yes"/>
    </contour>
  </outline>
</glyph>
<glyph name="C" format="1">
  <advance width="1358"/>
  <unicode hex="0043"/>
  <outline>
    <contour>
      <point x="844" y="-26" type="curve" smooth="yes"/>
      <point x="1015" y="-26"/>
      <point x="1203" y="33"/>
      <point x="1309" y="122" type="curve"/>
      <point x="1233" y="340" type="line"/>
      <point x="1136" y="261"/>
      <point x="984" y="209"/>
      <point x="853" y="209" type="curve" smooth="yes"/>
      <point x="557" y="209"/>
      <point x="359" y="414"/>
      <point x="359" y="719" type="curve" smooth="yes"/>
      <point x="359" y="1032"/>
      <point x="558" y="1240"/>
      <point x="854" y="1240" type="curve" smooth="yes"/>
      <point x="977" y="1240"/>
      <point x="1118" y="1189"/>
      <point x="1209" y="1114" type="curve"/>
      <point x="1295" y="1324" type="line"/>
      <point x="1186" y="1414"/>
      <point x="1006" y="1474"/>
      <point x="845" y="1474" type="curve" smooth="yes"/>
      <point x="393" y="1474"/>
      <point x="94" y="1172"/>
      <point x="94" y="720" type="curve" smooth="yes"/>
      <point x="94" y="274"/>
      <point x="393" y="-26"/>
    </contour>
    <contour>
      <point x="699" y="0" type="move" smooth="yes"/>
    </contour>
    <contour>
      <point x="699" y="0" type="move" smooth="yes"/>
    </contour>
  </outline>
</glyph>
<glyph name="D" format="1">
  <advance width="1513"/>
  <unicode hex="0044"/>
  <outline>
    <contour>
      <point x="410" y="211" type="line"/>
      <point x="410" y="1238" type="line"/>
      <point x="566" y="1238" type="line" smooth="yes"/>
      <point x="980" y="1238"/>
      <point x="1158" y="1088"/>
      <point x="1158" y="735" type="curve" smooth="yes"/>
      <point x="1158" y="368"/>
      <point x="992" y="211"/>
      <point x="606" y="211" type="curve" smooth="yes"/>
    </contour>
    <contour>
      <point x="150" y="0" type="line"/>
      <point x="591" y="0" type="line" smooth="yes"/>
      <point x="1171" y="0"/>
      <point x="1420" y="221"/>
      <point x="1420" y="738" type="curve" smooth="yes"/>
      <point x="1420" y="1236"/>
      <point x="1154" y="1448"/>
      <point x="534" y="1448" type="curve" smooth="yes"/>
      <point x="150" y="1448" type="line"/>
    </contour>
    <contour>
      <point x="779" y="0" type="move" smooth="yes"/>
    </contour>
    <contour>
      <point x="779" y="0" type="move" smooth="yes"/>
    </contour>
  </outline>
</glyph>
<glyph name="E" format="1">
  <advance width="1159"/>
  <unicode hex="0045"/>
  <outline>
    <contour>
      <point x="150" y="0" type="line"/>
      <point x="1083" y="0" type="line"/>
      <point x="1083" y="211" type="line"/>
      <point x="403" y="211" type="line"/>
      <point x="403" y="642" type="line"/>
      <point x="997" y="642" type="line"/>
      <point x="997" y="838" type="line"/>
      <point x="403" y="838" type="line"/>
      <point x="403" y="1238" type="line"/>
      <point x="1034" y="1238" type="line"/>
      <point x="1034" y="1448" type="line"/>
      <point x="150" y="1448" type="line"/>
    </contour>
    <contour>
      <point x="611" y="0" type="move" smooth="yes"/>
    </contour>
    <contour>
      <point x="611" y="0" type="move" smooth="yes"/>
    </contour>
    <contour>
      <point x="1059" y="10" type="move" smooth="yes"/>
    </contour>
  </outline>
</glyph>
<glyph name="F" format="1">
  <advance width="1098"/>
  <unicode hex="0046"/>
  <outline>
    <contour>
      <point x="150" y="0" type="line"/>
      <point x="403" y="0" type="line"/>
      <point x="403" y="664" type="line"/>
      <point x="984" y="664" type="line"/>
      <point x="984" y="861" type="line"/>
      <point x="403" y="861" type="line"/>
      <point x="403" y="1238" type="line"/>
      <point x="1016" y="1238" type="line"/>
      <point x="1016" y="1448" type="line"/>
      <point x="150" y="1448" type="line"/>
    </contour>
  </outline>
</glyph>
<glyph name="G" format="1">
  <advance width="1503"/>
  <unicode hex="0047"/>
  <outline>
    <contour>
      <point x="863" y="-26" type="curve" smooth="yes"/>
      <point x="1045" y="-26"/>
      <point x="1251" y="12"/>
      <point x="1380" y="74" type="curve"/>
      <point x="1380" y="773" type="line"/>
      <point x="833" y="773" type="line"/>
      <point x="833" y="595" type="line"/>
      <point x="1158" y="595" type="line"/>
      <point x="1158" y="238" type="line"/>
      <point x="1090" y="209"/>
      <point x="978" y="191"/>
      <point x="876" y="191" type="curve" smooth="yes"/>
      <point x="567" y="191"/>
      <point x="360" y="391"/>
      <point x="360" y="701" type="curve" smooth="yes"/>
      <point x="360" y="1033"/>
      <point x="579" y="1256"/>
      <point x="907" y="1256" type="curve" smooth="yes"/>
      <point x="1023" y="1256"/>
      <point x="1173" y="1214"/>
      <point x="1286" y="1153" type="curve"/>
      <point x="1366" y="1338" type="line"/>
      <point x="1236" y="1420"/>
      <point x="1041" y="1474"/>
      <point x="879" y="1474" type="curve" smooth="yes"/>
      <point x="408" y="1474"/>
      <point x="94" y="1159"/>
      <point x="94" y="687" type="curve" smooth="yes"/>
      <point x="94" y="256"/>
      <point x="401" y="-26"/>
    </contour>
    <contour>
      <point x="740" y="0" type="move" smooth="yes"/>
    </contour>
    <contour>
      <point x="740" y="0" type="move" smooth="yes"/>
    </contour>
  </outline>
</glyph>
<glyph name="H" format="1">
  <advance width="1518"/>
  <unicode hex="0048"/>
  <outline>
    <contour>
      <point x="150" y="0" type="line"/>
      <point x="403" y="0" type="line"/>
      <point x="403" y="635" type="line"/>
      <point x="1125" y="635" type="line"/>
      <point x="1125" y="0" type="line"/>
      <point x="1368" y="0" type="line"/>
      <point x="1368" y="1448" type="line"/>
      <point x="1125" y="1448" type="line"/>
      <point x="1125" y="850" type="line"/>
      <point x="403" y="850" type="line"/>
      <point x="403" y="1448" type="line"/>
      <point x="150" y="1448" type="line"/>
    </contour>
    <contour>
      <point x="760" y="0" type="move" smooth="yes"/>
    </contour>
    <contour>
      <point x="760" y="0" type="move" smooth="yes"/>
    </contour>
  </outline>
</glyph>
<glyph name="I" format="1">
  <advance width="552"/>
  <unicode hex="0049"/>
  <outline>
    <contour>
      <point x="150" y="0" type="line"/>
      <point x="403" y="0" type="line"/>
      <point x="403" y="1448" type="line"/>
      <point x="150" y="1448" type="line"/>
    </contour>
    <contour>
      <point x="277" y="0" type="move" smooth="yes"/>
    </contour>
    <contour>
      <point x="459" y="10" type="move" smooth="yes"/>
    </contour>
  </outline>
</glyph>
<glyph name="J" format="1">
  <advance width="1088"/>
  <unicode hex="004A"/>
  <outline>
    <contour>
      <point x="35" y="-114" type="line"/>
      <point x="137" y="-178"/>
      <point x="251" y="-212"/>
      <point x="357" y="-212" type="curve" smooth="yes"/>
      <point x="587" y="-212"/>
      <point x="786" y="-55"/>
      <point x="786" y="293" type="curve" smooth="yes"/>
      <point x="786" y="1238" type="line"/>
      <point x="1049" y="1238" type="line"/>
      <point x="1049" y="1448" type="line"/>
      <point x="163" y="1448" type="line"/>
      <point x="163" y="1238" type="line"/>
      <point x="533" y="1238" type="line"/>
      <point x="533" y="292" type="line" smooth="yes"/>
      <point x="533" y="109"/>
      <point x="459" y="22"/>
      <point x="334" y="22" type="curve" smooth="yes"/>
      <point x="271" y="22"/>
      <point x="193" y="45"/>
      <point x="105" y="90" type="curve"/>
    </contour>
    <contour>
      <point x="547" y="0" type="move" smooth="yes"/>
    </contour>
  </outline>
</glyph>
<glyph name="K" format="1">
  <advance width="1254"/>
  <unicode hex="004B"/>
  <outline>
    <contour>
      <point x="150" y="0" type="line"/>
      <point x="403" y="0" type="line"/>
      <point x="403" y="681" type="line"/>
      <point x="954" y="0" type="line"/>
      <point x="1276" y="0" type="line"/>
      <point x="649" y="773" type="line"/>
      <point x="1243" y="1448" type="line"/>
      <point x="940" y="1448" type="line"/>
      <point x="403" y="822" type="line"/>
      <point x="403" y="1448" type="line"/>
      <point x="150" y="1448" type="line"/>
    </contour>
    <contour>
      <point x="693" y="0" type="move" smooth="yes"/>
    </contour>
    <contour>
      <point x="693" y="0" type="move" smooth="yes"/>
    </contour>
  </outline>
</glyph>
<glyph name="L" format="1">
  <advance width="1047"/>
  <unicode hex="004C"/>
  <outline>
    <contour>
      <point x="150" y="0" type="line"/>
      <point x="1032" y="0" type="line"/>
      <point x="1032" y="211" type="line"/>
      <point x="403" y="211" type="line"/>
      <point x="403" y="1448" type="line"/>
      <point x="150" y="1448" type="line"/>
    </contour>
    <contour>
      <point x="587" y="0" type="move" smooth="yes"/>
    </contour>
    <contour>
      <point x="587" y="0" type="move" smooth="yes"/>
    </contour>
  </outline>
</glyph>
<glyph name="M" format="1">
  <advance width="1882"/>
  <unicode hex="004D"/>
  <outline>
    <contour>
      <point x="150" y="0" type="line"/>
      <point x="404" y="0" type="line"/>
      <point x="404" y="1094" type="line"/>
      <point x="507" y="875" type="line"/>
      <point x="883" y="229" type="line"/>
      <point x="1005" y="229" type="line"/>
      <point x="1384" y="863" type="line"/>
      <point x="1489" y="1077" type="line"/>
      <point x="1489" y="0" type="line"/>
      <point x="1733" y="0" type="line"/>
      <point x="1733" y="1448" type="line"/>
      <point x="1444" y="1448" type="line"/>
      <point x="1029" y="735" type="line"/>
      <point x="947" y="569" type="line"/>
      <point x="863" y="733" type="line"/>
      <point x="450" y="1448" type="line"/>
      <point x="150" y="1448" type="line"/>
    </contour>
  </outline>
</glyph>
<glyph name="N" format="1">
  <advance width="1583"/>
  <unicode hex="004E"/>
  <outline>
    <contour>
      <point x="150" y="0" type="line"/>
      <point x="375" y="0" type="line"/>
      <point x="375" y="1111" type="line"/>
      <point x="493" y="949" type="line"/>
      <point x="1172" y="0" type="line"/>
      <point x="1433" y="0" type="line"/>
      <point x="1433" y="1448" type="line"/>
      <point x="1208" y="1448" type="line"/>
      <point x="1208" y="313" type="line"/>
      <point x="1084" y="500" type="line"/>
      <point x="409" y="1448" type="line"/>
      <point x="150" y="1448" type="line"/>
    </contour>
    <contour>
      <point x="792" y="0" type="move" smooth="yes"/>
    </contour>
    <contour>
      <point x="792" y="0" type="move" smooth="yes"/>
    </contour>
  </outline>
</glyph>
<glyph name="O" format="1">
  <advance width="1613"/>
  <unicode hex="004F"/>
  <outline>
    <contour>
      <point x="806" y="192" type="curve" smooth="yes"/>
      <point x="538" y="192"/>
      <point x="360" y="408"/>
      <point x="360" y="724" type="curve" smooth="yes"/>
      <point x="360" y="1046"/>
      <point x="538" y="1256"/>
      <point x="806" y="1256" type="curve" smooth="yes"/>
      <point x="1074" y="1256"/>
      <point x="1254" y="1046"/>
      <point x="1254" y="724" type="curve" smooth="yes"/>
      <point x="1254" y="408"/>
      <point x="1074" y="192"/>
    </contour>
    <contour>
      <point x="806" y="-26" type="curve" smooth="yes"/>
      <point x="1234" y="-26"/>
      <point x="1520" y="276"/>
      <point x="1520" y="726" type="curve" smooth="yes"/>
      <point x="1520" y="1178"/>
      <point x="1234" y="1474"/>
      <point x="806" y="1474" type="curve" smooth="yes"/>
      <point x="378" y="1474"/>
      <point x="94" y="1178"/>
      <point x="94" y="726" type="curve" smooth="yes"/>
      <point x="94" y="276"/>
      <point x="378" y="-26"/>
    </contour>
    <contour>
      <point x="807" y="0" type="move" smooth="yes"/>
    </contour>
  </outline>
</glyph>
<glyph name="P" format="1">
  <advance width="1276"/>
  <unicode hex="0050"/>
  <outline>
    <contour>
      <point x="150" y="0" type="line"/>
      <point x="410" y="0" type="line"/>
      <point x="410" y="534" type="line"/>
      <point x="1058" y="534"/>
      <point x="1218" y="675"/>
      <point x="1218" y="1003" type="curve" smooth="yes"/>
      <point x="1218" y="1316"/>
      <point x="1032" y="1448"/>
      <point x="594" y="1448" type="curve" smooth="yes"/>
      <point x="150" y="1448" type="line"/>
    </contour>
    <contour>
      <point x="410" y="737" type="curve"/>
      <point x="410" y="1251" type="line"/>
      <point x="617" y="1251" type="line" smooth="yes"/>
      <point x="854" y="1251"/>
      <point x="956" y="1178"/>
      <point x="956" y="1001" type="curve" smooth="yes"/>
      <point x="956" y="815"/>
      <point x="881" y="737"/>
    </contour>
  </outline>
</glyph>
<glyph name="Q" format="1">
  <advance width="1613"/>
  <unicode hex="0051"/>
  <outline>
    <component base="O"/>
    <contour>
      <point x="1230" y="-425" type="curve"/>
      <point x="1408" y="-268" type="line"/>
      <point x="1313" y="-177"/>
      <point x="1227" y="-74"/>
      <point x="1166" y="55" type="curve"/>
      <point x="938" y="-18" type="line"/>
      <point x="1012" y="-180"/>
      <point x="1118" y="-309"/>
    </contour>
  </outline>
</glyph>
<glyph name="R" format="1">
  <advance width="1303"/>
  <unicode hex="0052"/>
  <outline>
    <contour>
      <point x="150" y="0" type="line"/>
      <point x="403" y="0" type="line"/>
      <point x="403" y="638" type="line"/>
      <point x="596" y="638" type="line" smooth="yes"/>
      <point x="716" y="638"/>
      <point x="788" y="571"/>
      <point x="838" y="417" type="curve"/>
      <point x="977" y="0" type="line"/>
      <point x="1247" y="0" type="line"/>
      <point x="1108" y="408" type="line" smooth="yes"/>
      <point x="1050" y="582"/>
      <point x="975" y="672"/>
      <point x="860" y="711" type="curve"/>
      <point x="1084" y="771"/>
      <point x="1181" y="878"/>
      <point x="1181" y="1069" type="curve" smooth="yes"/>
      <point x="1181" y="1335"/>
      <point x="1009" y="1448"/>
      <point x="609" y="1448" type="curve" smooth="yes"/>
      <point x="150" y="1448" type="line"/>
    </contour>
    <contour>
      <point x="403" y="814" type="line"/>
      <point x="403" y="1251" type="line"/>
      <point x="632" y="1251" type="line" smooth="yes"/>
      <point x="845" y="1251"/>
      <point x="936" y="1214"/>
      <point x="936" y="1054" type="curve" smooth="yes"/>
      <point x="936" y="887"/>
      <point x="841" y="814"/>
      <point x="622" y="814" type="curve" smooth="yes"/>
    </contour>
    <contour>
      <point x="682" y="0" type="move" smooth="yes"/>
    </contour>
    <contour>
      <point x="682" y="0" type="move" smooth="yes"/>
    </contour>
  </outline>
</glyph>
<glyph name="S" format="1">
  <advance width="1133"/>
  <unicode hex="0053"/>
  <outline>
    <contour>
      <point x="600" y="-26" type="curve" smooth="yes"/>
      <point x="928" y="-26"/>
      <point x="1073" y="161"/>
      <point x="1073" y="388" type="curve" smooth="yes"/>
      <point x="1073" y="591"/>
      <point x="1023" y="696"/>
      <point x="619" y="837" type="curve" smooth="yes"/>
      <point x="324" y="940"/>
      <point x="301" y="982"/>
      <point x="301" y="1092" type="curve" smooth="yes"/>
      <point x="301" y="1206"/>
      <point x="388" y="1270"/>
      <point x="585" y="1270" type="curve" smooth="yes"/>
      <point x="702" y="1270"/>
      <point x="838" y="1238"/>
      <point x="961" y="1171" type="curve"/>
      <point x="1025" y="1350" type="line"/>
      <point x="896" y="1431"/>
      <point x="728" y="1474"/>
      <point x="570" y="1474" type="curve" smooth="yes"/>
      <point x="201" y="1474"/>
      <point x="68" y="1277"/>
      <point x="68" y="1080" type="curve" smooth="yes"/>
      <point x="68" y="907"/>
      <point x="103" y="780"/>
      <point x="472" y="658" type="curve" smooth="yes"/>
      <point x="831" y="539"/>
      <point x="849" y="494"/>
      <point x="849" y="374" type="curve" smooth="yes"/>
      <point x="849" y="259"/>
      <point x="772" y="186"/>
      <point x="591" y="186" type="curve" smooth="yes"/>
      <point x="462" y="186"/>
      <point x="286" y="237"/>
      <point x="114" y="335" type="curve"/>
      <point x="76" y="121" type="line"/>
      <point x="212" y="33"/>
      <point x="420" y="-26"/>
    </contour>
    <contour>
      <point x="570" y="0" type="move" smooth="yes"/>
    </contour>
    <contour>
      <point x="570" y="0" type="move" smooth="yes"/>
    </contour>
  </outline>
</glyph>
<glyph name="T" format="1">
  <advance width="1176"/>
  <unicode hex="0054"/>
  <outline>
    <contour>
      <point x="462" y="0" type="line"/>
      <point x="714" y="0" type="line"/>
      <point x="714" y="1251" type="line"/>
      <point x="1130" y="1251" type="line"/>
      <point x="1130" y="1448" type="line"/>
      <point x="47" y="1448" type="line"/>
      <point x="47" y="1251" type="line"/>
      <point x="462" y="1251" type="line"/>
    </contour>
    <contour>
      <point x="589" y="0" type="move" smooth="yes"/>
    </contour>
    <contour>
      <point x="589" y="0" type="move" smooth="yes"/>
    </contour>
    <contour>
      <point x="589" y="0" type="move" smooth="yes"/>
    </contour>
  </outline>
</glyph>
<glyph name="U" format="1">
  <advance width="1476"/>
  <unicode hex="0055"/>
  <outline>
    <contour>
      <point x="750" y="-26" type="curve" smooth="yes"/>
      <point x="1111" y="-26"/>
      <point x="1349" y="205"/>
      <point x="1349" y="550" type="curve" smooth="yes"/>
      <point x="1349" y="1448" type="line"/>
      <point x="1098" y="1448" type="line"/>
      <point x="1098" y="537" type="line" smooth="yes"/>
      <point x="1098" y="327"/>
      <point x="960" y="188"/>
      <point x="749" y="188" type="curve" smooth="yes"/>
      <point x="527" y="188"/>
      <point x="378" y="330"/>
      <point x="378" y="544" type="curve" smooth="yes"/>
      <point x="378" y="1448" type="line"/>
      <point x="127" y="1448" type="line"/>
      <point x="127" y="539" type="line" smooth="yes"/>
      <point x="127" y="200"/>
      <point x="376" y="-26"/>
    </contour>
    <contour>
      <point x="738" y="0" type="move" smooth="yes"/>
    </contour>
    <contour>
      <point x="1308" y="10" type="move" smooth="yes"/>
    </contour>
  </outline>
</glyph>
<glyph name="V" format="1">
  <advance width="1415"/>
  <unicode hex="0056"/>
  <outline>
    <contour>
      <point x="575" y="0" type="line"/>
      <point x="846" y="0" type="line"/>
      <point x="1384" y="1448" type="line"/>
      <point x="1108" y="1448" type="line"/>
      <point x="816" y="629" type="line"/>
      <point x="712" y="323" type="line"/>
      <point x="600" y="630" type="line"/>
      <point x="299" y="1448" type="line"/>
      <point x="31" y="1448" type="line"/>
    </contour>
  </outline>
</glyph>
<glyph name="W" format="1">
  <advance width="2157"/>
  <unicode hex="0057"/>
  <outline>
    <contour>
      <point x="1462" y="0" type="line"/>
      <point x="1677" y="0" type="line"/>
      <point x="2117" y="1448" type="line"/>
      <point x="1874" y="1448" type="line"/>
      <point x="1637" y="614" type="line"/>
      <point x="1567" y="386" type="line"/>
      <point x="1488" y="610" type="line"/>
      <point x="1173" y="1448" type="line"/>
      <point x="998" y="1448" type="line"/>
      <point x="682" y="614" type="line"/>
      <point x="598" y="385" type="line"/>
      <point x="532" y="614" type="line"/>
      <point x="290" y="1448" type="line"/>
      <point x="41" y="1448" type="line"/>
      <point x="482" y="0" type="line"/>
      <point x="697" y="0" type="line"/>
      <point x="1080" y="1051" type="line"/>
    </contour>
    <contour>
      <point x="1079" y="0" type="move" smooth="yes"/>
    </contour>
  </outline>
</glyph>
<glyph name="X" format="1">
  <advance width="1367"/>
  <unicode hex="0058"/>
  <outline>
    <contour>
      <point x="-2" y="0" type="line"/>
      <point x="265" y="0" type="line"/>
      <point x="684" y="561" type="line"/>
      <point x="1089" y="0" type="line"/>
      <point x="1353" y="0" type="line"/>
      <point x="843" y="717" type="line"/>
      <point x="1370" y="1448" type="line"/>
      <point x="1104" y="1448" type="line"/>
      <point x="710" y="905" type="line"/>
      <point x="323" y="1448" type="line"/>
      <point x="46" y="1448" type="line"/>
      <point x="551" y="748" type="line"/>
    </contour>
  </outline>
</glyph>
<glyph name="Y" format="1">
  <advance width="1240"/>
  <unicode hex="0059"/>
  <outline>
    <contour>
      <point x="480" y="0" type="line"/>
      <point x="742" y="0" type="line"/>
      <point x="742" y="582" type="line"/>
      <point x="1240" y="1448" type="line"/>
      <point x="988" y="1448" type="line"/>
      <point x="613" y="788" type="line"/>
      <point x="263" y="1448" type="line"/>
      <point x="0" y="1448" type="line"/>
      <point x="480" y="580" type="line"/>
    </contour>
    <contour>
      <point x="620" y="0" type="move" smooth="yes"/>
    </contour>
  </outline>
</glyph>
<glyph name="Z" format="1">
  <advance width="1245"/>
  <unicode hex="005A"/>
  <outline>
    <contour>
      <point x="90" y="0" type="line"/>
      <point x="1145" y="0" type="line"/>
      <point x="1145" y="211" type="line"/>
      <point x="382" y="211" type="line"/>
      <point x="1152" y="1268" type="line"/>
      <point x="1152" y="1448" type="line"/>
      <point x="120" y="1448" type="line"/>
      <point x="120" y="1238" type="line"/>
      <point x="863" y="1238" type="line"/>
      <point x="90" y="198" type="line"/>
    </contour>
    <contour>
      <point x="623" y="0" type="move" smooth="yes"/>
    </contour>
  </outline>
</glyph>
<glyph name="bracketleft" format="1">
  <advance width="1077"/>
  <unicode hex="005B"/>
  <outline>
    <contour>
      <point x="162" y="-456" type="line"/>
      <point x="602" y="-456" type="line"/>
      <point x="602" y="-327" type="line"/>
      <point x="414" y="-327" type="line"/>
      <point x="414" y="1116" type="line"/>
      <point x="602" y="1116" type="line"/>
      <point x="602" y="1246" type="line"/>
      <point x="162" y="1246" type="line"/>
    </contour>
  </outline>
</glyph>
<glyph name="backslash" format="1">
  <advance width="1211"/>
  <unicode hex="005C"/>
  <outline>
    <contour>
      <point x="479" y="-210" type="line"/>
      <point x="708" y="-210" type="line"/>
      <point x="111" y="1353" type="line"/>
      <point x="-120" y="1353" type="line"/>
    </contour>
  </outline>
</glyph>
<glyph name="bracketright" format="1">
  <advance width="1077"/>
  <unicode hex="005D"/>
  <outline>
    <contour>
      <point x="162" y="-456" type="line"/>
      <point x="602" y="-456" type="line"/>
      <point x="602" y="1246" type="line"/>
      <point x="163" y="1246" type="line"/>
      <point x="163" y="1116" type="line"/>
      <point x="350" y="1116" type="line"/>
      <point x="350" y="-327" type="line"/>
      <point x="162" y="-327" type="line"/>
    </contour>
  </outline>
</glyph>
<glyph name="asciicircum" format="1">
  <advance width="2501"/>
  <unicode hex="005E"/>
  <outline>
    <contour>
      <point x="316" y="968" type="line"/>
      <point x="468" y="968" type="line"/>
      <point x="830" y="1674" type="line"/>
      <point x="1205" y="968" type="line"/>
      <point x="1355" y="968" type="line"/>
      <point x="881" y="1846" type="line"/>
      <point x="783" y="1846" type="line"/>
    </contour>
  </outline>
</glyph>
<glyph name="underscore" format="1">
  <advance width="1712"/>
  <unicode hex="005F"/>
  <outline>
    <contour>
      <point x="-9" y="-481" type="line"/>
      <point x="964" y="-481" type="line"/>
      <point x="964" y="-353" type="line"/>
      <point x="-9" y="-353" type="line"/>
    </contour>
  </outline>
</glyph>
<glyph name="grave" format="1">
  <advance width="1017"/>
  <unicode hex="0060"/>
  <outline>
    <contour>
      <point x="220" y="2064" type="line"/>
      <point x="405" y="2064" type="line"/>
      <point x="165" y="2382" type="line"/>
      <point x="-101" y="2382" type="line"/>
    </contour>
    <contour>
      <point x="152" y="0" type="move" smooth="yes"/>
    </contour>
  </outline>
</glyph>
<glyph name="a" format="1">
  <advance width="1238"/>
  <unicode hex="0061"/>
  <outline>
    <contour>
      <point x="517" y="-22" type="curve" smooth="yes"/>
      <point x="653" y="-22"/>
      <point x="791" y="55"/>
      <point x="844" y="160" type="curve"/>
      <point x="870" y="64"/>
      <point x="987" y="-4"/>
      <point x="1130" y="-4" type="curve"/>
      <point x="1207" y="198" type="line"/>
      <point x="1115" y="198"/>
      <point x="1043" y="255"/>
      <point x="1043" y="333" type="curve" smooth="yes"/>
      <point x="1043" y="906" type="line"/>
      <point x="949" y="963"/>
      <point x="789" y="1016"/>
      <point x="654" y="1016" type="curve" smooth="yes"/>
      <point x="322" y="1016"/>
      <point x="88" y="771"/>
      <point x="88" y="425" type="curve" smooth="yes"/>
      <point x="88" y="164"/>
      <point x="261" y="-22"/>
    </contour>
    <contour>
      <point x="535" y="174" type="curve" smooth="yes"/>
      <point x="415" y="174"/>
      <point x="330" y="282"/>
      <point x="330" y="434" type="curve" smooth="yes"/>
      <point x="330" y="659"/>
      <point x="460" y="820"/>
      <point x="642" y="820" type="curve" smooth="yes"/>
      <point x="699" y="820"/>
      <point x="767" y="806"/>
      <point x="807" y="784" type="curve"/>
      <point x="807" y="419" type="line" smooth="yes"/>
      <point x="807" y="276"/>
      <point x="695" y="174"/>
    </contour>
    <contour>
      <point x="641" y="0" type="move" smooth="yes"/>
    </contour>
    <contour>
      <point x="1125" y="10" type="move" smooth="yes"/>
    </contour>
  </outline>
</glyph>
<glyph name="b" format="1">
  <advance width="1227"/>
  <unicode hex="0062"/>
  <outline>
    <contour>
      <point x="627" y="-22" type="curve" smooth="yes"/>
      <point x="935" y="-22"/>
      <point x="1142" y="198"/>
      <point x="1142" y="528" type="curve" smooth="yes"/>
      <point x="1142" y="821"/>
      <point x="966" y="1016"/>
      <point x="703" y="1016" type="curve" smooth="yes"/>
      <point x="557" y="1016"/>
      <point x="411" y="947"/>
      <point x="346" y="844" type="curve"/>
      <point x="346" y="1550" type="line"/>
      <point x="108" y="1521" type="line"/>
      <point x="108" y="69" type="line"/>
      <point x="109" y="69"/>
      <point x="318" y="-22"/>
    </contour>
    <contour>
      <point x="610" y="174" type="curve" smooth="yes"/>
      <point x="455" y="174"/>
      <point x="346" y="206"/>
      <point x="346" y="206" type="curve"/>
      <point x="346" y="607" type="line"/>
      <point x="418" y="734"/>
      <point x="544" y="820"/>
      <point x="655" y="820" type="curve" smooth="yes"/>
      <point x="801" y="820"/>
      <point x="899" y="699"/>
      <point x="899" y="524" type="curve" smooth="yes"/>
      <point x="899" y="314"/>
      <point x="784" y="174"/>
    </contour>
  </outline>
</glyph>
<glyph name="c" format="1">
  <advance width="1062"/>
  <unicode hex="0063"/>
  <outline>
    <contour>
      <point x="641" y="-22" type="curve" smooth="yes"/>
      <point x="775" y="-22"/>
      <point x="923" y="29"/>
      <point x="1016" y="104" type="curve"/>
      <point x="940" y="290" type="line"/>
      <point x="868" y="226"/>
      <point x="752" y="174"/>
      <point x="654" y="174" type="curve" smooth="yes"/>
      <point x="457" y="174"/>
      <point x="331" y="307"/>
      <point x="331" y="493" type="curve" smooth="yes"/>
      <point x="331" y="688"/>
      <point x="449" y="820"/>
      <point x="640" y="820" type="curve" smooth="yes"/>
      <point x="730" y="820"/>
      <point x="843" y="779"/>
      <point x="915" y="721" type="curve"/>
      <point x="984" y="894" type="line"/>
      <point x="890" y="966"/>
      <point x="748" y="1016"/>
      <point x="630" y="1016" type="curve" smooth="yes"/>
      <point x="304" y="1016"/>
      <point x="88" y="804"/>
      <point x="88" y="488" type="curve" smooth="yes"/>
      <point x="88" y="182"/>
      <point x="309" y="-22"/>
    </contour>
    <contour>
      <point x="548" y="0" type="move" smooth="yes"/>
    </contour>
    <contour>
      <point x="548" y="0" type="move" smooth="yes"/>
    </contour>
  </outline>
</glyph>
<glyph name="d" format="1">
  <advance width="1228"/>
  <unicode hex="0064"/>
  <outline>
    <contour>
      <point x="564" y="-22" type="curve" smooth="yes"/>
      <point x="712" y="-22"/>
      <point x="835" y="45"/>
      <point x="887" y="145" type="curve"/>
      <point x="897" y="101"/>
      <point x="924" y="39"/>
      <point x="957" y="-14" type="curve"/>
      <point x="1184" y="29" type="line"/>
      <point x="1138" y="96"/>
      <point x="1110" y="241"/>
      <point x="1110" y="389" type="curve" smooth="yes"/>
      <point x="1110" y="1544" type="line"/>
      <point x="872" y="1531" type="line"/>
      <point x="872" y="929" type="line"/>
      <point x="803" y="982"/>
      <point x="701" y="1016"/>
      <point x="602" y="1016" type="curve" smooth="yes"/>
      <point x="294" y="1016"/>
      <point x="88" y="805"/>
      <point x="88" y="486" type="curve" smooth="yes"/>
      <point x="88" y="182"/>
      <point x="279" y="-22"/>
    </contour>
    <contour>
      <point x="584" y="174" type="curve" smooth="yes"/>
      <point x="432" y="174"/>
      <point x="331" y="301"/>
      <point x="331" y="492" type="curve" smooth="yes"/>
      <point x="331" y="689"/>
      <point x="446" y="820"/>
      <point x="619" y="820" type="curve" smooth="yes"/>
      <point x="720" y="820"/>
      <point x="825" y="778"/>
      <point x="872" y="714" type="curve"/>
      <point x="872" y="518" type="line" smooth="yes"/>
      <point x="872" y="313"/>
      <point x="753" y="174"/>
    </contour>
    <contour>
      <point x="627" y="0" type="move" smooth="yes"/>
    </contour>
  </outline>
</glyph>
<glyph name="e" format="1">
  <advance width="1101"/>
  <unicode hex="0065"/>
  <outline>
    <contour>
      <point x="614" y="-22" type="curve" smooth="yes"/>
      <point x="772" y="-22"/>
      <point x="935" y="35"/>
      <point x="1053" y="142" type="curve"/>
      <point x="967" y="312" type="line"/>
      <point x="869" y="221"/>
      <point x="741" y="174"/>
      <point x="626" y="174" type="curve" smooth="yes"/>
      <point x="504" y="174"/>
      <point x="397" y="226"/>
      <point x="351" y="343" type="curve"/>
      <point x="746" y="402"/>
      <point x="966" y="502"/>
      <point x="966" y="729" type="curve" smooth="yes"/>
      <point x="966" y="901"/>
      <point x="834" y="1016"/>
      <point x="610" y="1016" type="curve" smooth="yes"/>
      <point x="315" y="1016"/>
      <point x="88" y="791"/>
      <point x="88" y="499" type="curve" smooth="yes"/>
      <point x="88" y="143"/>
      <point x="344" y="-22"/>
    </contour>
    <contour>
      <point x="326" y="503" type="curve"/>
      <point x="326" y="527" type="line"/>
      <point x="331" y="709"/>
      <point x="456" y="837"/>
      <point x="611" y="837" type="curve" smooth="yes"/>
      <point x="695" y="837"/>
      <point x="758" y="797"/>
      <point x="758" y="722" type="curve" smooth="yes"/>
      <point x="758" y="608"/>
      <point x="613" y="555"/>
    </contour>
    <contour>
      <point x="567" y="0" type="move" smooth="yes"/>
    </contour>
    <contour>
      <point x="567" y="0" type="move" smooth="yes"/>
    </contour>
    <contour>
      <point x="994" y="10" type="move" smooth="yes"/>
    </contour>
  </outline>
</glyph>
<glyph name="f" format="1">
  <advance width="738"/>
  <unicode hex="0066"/>
  <outline>
    <contour>
      <point x="86" y="-453" type="line"/>
      <point x="359" y="-417"/>
      <point x="477" y="-273"/>
      <point x="477" y="-11" type="curve" smooth="yes"/>
      <point x="477" y="844" type="line"/>
      <point x="683" y="844" type="line"/>
      <point x="683" y="996" type="line"/>
      <point x="477" y="996" type="line"/>
      <point x="477" y="1100" type="line" smooth="yes"/>
      <point x="477" y="1250"/>
      <point x="545" y="1302"/>
      <point x="646" y="1302" type="curve" smooth="yes"/>
      <point x="672" y="1302"/>
      <point x="701" y="1300"/>
      <point x="732" y="1291" type="curve"/>
      <point x="756" y="1455" type="line"/>
      <point x="704" y="1476"/>
      <point x="648" y="1488"/>
      <point x="591" y="1488" type="curve" smooth="yes"/>
      <point x="412" y="1488"/>
      <point x="240" y="1374"/>
      <point x="240" y="1135" type="curve" smooth="yes"/>
      <point x="240" y="996" type="line"/>
      <point x="49" y="996" type="line"/>
      <point x="49" y="844" type="line"/>
      <point x="240" y="844" type="line"/>
      <point x="240" y="-4" type="line" smooth="yes"/>
      <point x="240" y="-140"/>
      <point x="188" y="-212"/>
      <point x="65" y="-241" type="curve"/>
    </contour>
  </outline>
</glyph>
<glyph name="g" format="1">
  <advance width="1169"/>
  <unicode hex="0067"/>
  <outline>
    <contour>
      <point x="491" y="-543" type="curve" smooth="yes"/>
      <point x="820" y="-543"/>
      <point x="1040" y="-329"/>
      <point x="1040" y="-7" type="curve" smooth="yes"/>
      <point x="1040" y="906" type="line"/>
      <point x="946" y="963"/>
      <point x="786" y="1016"/>
      <point x="651" y="1016" type="curve" smooth="yes"/>
      <point x="319" y="1016"/>
      <point x="84" y="770"/>
      <point x="84" y="424" type="curve" smooth="yes"/>
      <point x="84" y="163"/>
      <point x="258" y="-22"/>
      <point x="514" y="-22" type="curve" smooth="yes"/>
      <point x="617" y="-22"/>
      <point x="723" y="23"/>
      <point x="790" y="90" type="curve"/>
      <point x="790" y="-15" type="line" smooth="yes"/>
      <point x="790" y="-202"/>
      <point x="653" y="-328"/>
      <point x="448" y="-328" type="curve" smooth="yes"/>
      <point x="361" y="-328"/>
      <point x="253" y="-300"/>
      <point x="174" y="-260" type="curve"/>
      <point x="128" y="-460" type="line"/>
      <point x="227" y="-511"/>
      <point x="373" y="-543"/>
    </contour>
    <contour>
      <point x="532" y="174" type="curve" smooth="yes"/>
      <point x="412" y="174"/>
      <point x="327" y="282"/>
      <point x="327" y="434" type="curve" smooth="yes"/>
      <point x="327" y="659"/>
      <point x="457" y="820"/>
      <point x="639" y="820" type="curve" smooth="yes"/>
      <point x="696" y="820"/>
      <point x="764" y="809"/>
      <point x="804" y="787" type="curve"/>
      <point x="804" y="419" type="line" smooth="yes"/>
      <point x="804" y="276"/>
      <point x="692" y="174"/>
    </contour>
    <contour>
      <point x="566" y="0" type="move" smooth="yes"/>
    </contour>
  </outline>
</glyph>
<glyph name="h" format="1">
  <advance width="1203"/>
  <unicode hex="0068"/>
  <outline>
    <contour>
      <point x="1157" y="-38" type="curve"/>
      <point x="1182" y="154" type="line"/>
      <point x="1062" y="136"/>
      <point x="1053" y="195"/>
      <point x="1053" y="319" type="curve" smooth="yes"/>
      <point x="1053" y="572" type="line" smooth="yes"/>
      <point x="1053" y="839"/>
      <point x="916" y="1016"/>
      <point x="680" y="1016" type="curve" smooth="yes"/>
      <point x="582" y="1016"/>
      <point x="422" y="984"/>
      <point x="350" y="871" type="curve"/>
      <point x="368" y="561" type="line"/>
      <point x="368" y="750"/>
      <point x="525" y="804"/>
      <point x="631" y="804" type="curve" smooth="yes"/>
      <point x="749" y="804"/>
      <point x="817" y="716"/>
      <point x="817" y="549" type="curve" smooth="yes"/>
      <point x="817" y="225" type="line" smooth="yes"/>
      <point x="817" y="26"/>
      <point x="899" y="-90"/>
    </contour>
    <contour>
      <point x="125" y="3" type="line"/>
      <point x="368" y="3" type="line"/>
      <point x="368" y="1546" type="line"/>
      <point x="125" y="1514" type="line"/>
    </contour>
    <contour>
      <point x="630" y="0" type="move" smooth="yes"/>
    </contour>
    <contour>
      <point x="630" y="0" type="move" smooth="yes"/>
    </contour>
  </outline>
</glyph>
<glyph name="i" format="1">
  <advance width="668"/>
  <unicode hex="0069"/>
  <outline>
    <contour>
      <point x="670" y="38" type="curve"/>
      <point x="640" y="222" type="line"/>
      <point x="503" y="173"/>
      <point x="371" y="163"/>
      <point x="371" y="339" type="curve" smooth="yes"/>
      <point x="371" y="1003" type="line"/>
      <point x="134" y="1003" type="line"/>
      <point x="134" y="277" type="line" smooth="yes"/>
      <point x="134" y="-22"/>
      <point x="446" y="-65"/>
    </contour>
    <contour>
      <point x="256" y="1176" type="curve" smooth="yes"/>
      <point x="353" y="1176"/>
      <point x="421" y="1239"/>
      <point x="421" y="1330" type="curve" smooth="yes"/>
      <point x="421" y="1421"/>
      <point x="353" y="1486"/>
      <point x="258" y="1486" type="curve" smooth="yes"/>
      <point x="160" y="1486"/>
      <point x="94" y="1423"/>
      <point x="94" y="1331" type="curve" smooth="yes"/>
      <point x="94" y="1239"/>
      <point x="160" y="1176"/>
    </contour>
  </outline>
</glyph>
<glyph name="k" format="1">
  <advance width="1143"/>
  <unicode hex="006B"/>
  <outline>
    <contour>
      <point x="1043" y="-35" type="curve"/>
      <point x="1155" y="159" type="line"/>
      <point x="1033" y="162"/>
      <point x="981" y="211"/>
      <point x="887" y="321" type="curve" smooth="yes"/>
      <point x="720" y="519" type="line"/>
      <point x="1017" y="919" type="line"/>
      <point x="820" y="1017" type="line"/>
      <point x="359" y="389" type="line"/>
      <point x="359" y="1533" type="line"/>
      <point x="123" y="1513" type="line"/>
      <point x="123" y="106" type="line" smooth="yes"/>
      <point x="123" y="-23"/>
      <point x="265" y="-64"/>
      <point x="344" y="39" type="curve" smooth="yes"/>
      <point x="573" y="339" type="line"/>
      <point x="729" y="154" type="line" smooth="yes"/>
      <point x="836" y="27"/>
      <point x="945" y="-35"/>
    </contour>
    <contour>
      <point x="617" y="0" type="move" smooth="yes"/>
    </contour>
  </outline>
</glyph>
<glyph name="l" format="1">
  <advance width="708"/>
  <unicode hex="006C"/>
  <outline>
    <contour>
      <point x="675" y="218" type="line"/>
      <point x="629" y="203"/>
      <point x="555" y="191"/>
      <point x="511" y="191" type="curve" smooth="yes"/>
      <point x="417" y="191"/>
      <point x="361" y="241"/>
      <point x="361" y="353" type="curve" smooth="yes"/>
      <point x="361" y="1555" type="line"/>
      <point x="123" y="1526" type="line"/>
      <point x="123" y="301" type="line" smooth="yes"/>
      <point x="123" y="83"/>
      <point x="263" y="-11"/>
      <point x="458" y="-11" type="curve" smooth="yes"/>
      <point x="533" y="-11"/>
      <point x="614" y="4"/>
      <point x="699" y="28" type="curve"/>
    </contour>
    <contour>
      <point x="403" y="0" type="move" smooth="yes"/>
    </contour>
    <contour>
      <point x="403" y="0" type="move" smooth="yes"/>
    </contour>
    <contour>
      <point x="721" y="0" type="move" smooth="yes"/>
    </contour>
  </outline>
</glyph>
<glyph name="m" format="1">
  <advance width="1842"/>
  <unicode hex="006D"/>
  <outline>
    <contour>
      <point x="1798" y="0" type="curve"/>
      <point x="1821" y="192" type="line"/>
      <point x="1701" y="174"/>
      <point x="1693" y="233"/>
      <point x="1693" y="357" type="curve" smooth="yes"/>
      <point x="1693" y="572" type="line" smooth="yes"/>
      <point x="1693" y="839"/>
      <point x="1556" y="1016"/>
      <point x="1320" y="1016" type="curve" smooth="yes"/>
      <point x="1177" y="1016"/>
      <point x="1035" y="933"/>
      <point x="955" y="830" type="curve"/>
      <point x="1043" y="600" type="line"/>
      <point x="1043" y="731"/>
      <point x="1180" y="804"/>
      <point x="1284" y="804" type="curve" smooth="yes"/>
      <point x="1401" y="804"/>
      <point x="1457" y="727"/>
      <point x="1457" y="554" type="curve" smooth="yes"/>
      <point x="1457" y="263" type="line" smooth="yes"/>
      <point x="1457" y="64"/>
      <point x="1539" y="-52"/>
    </contour>
    <contour>
      <point x="806" y="0" type="line"/>
      <point x="1042" y="0" type="line"/>
      <point x="1042" y="602" type="line" smooth="yes"/>
      <point x="1042" y="869"/>
      <point x="896" y="1016"/>
      <point x="660" y="1016" type="curve" smooth="yes"/>
      <point x="556" y="1016"/>
      <point x="410" y="964"/>
      <point x="344" y="863" type="curve"/>
      <point x="384" y="606" type="line"/>
      <point x="384" y="736"/>
      <point x="515" y="804"/>
      <point x="629" y="804" type="curve" smooth="yes"/>
      <point x="736" y="804"/>
      <point x="806" y="732"/>
      <point x="806" y="549" type="curve" smooth="yes"/>
    </contour>
    <contour>
      <point x="141" y="0" type="line"/>
      <point x="384" y="0" type="line"/>
      <point x="384" y="712" type="line"/>
      <point x="344" y="863" type="line"/>
      <point x="336" y="913"/>
      <point x="304" y="966"/>
      <point x="277" y="993" type="curve"/>
      <point x="43" y="924" type="line"/>
      <point x="102" y="848"/>
      <point x="141" y="711"/>
      <point x="141" y="610" type="curve" smooth="yes"/>
    </contour>
  </outline>
</glyph>
<glyph name="n" format="1">
  <advance width="1199"/>
  <unicode hex="006E"/>
  <outline>
    <contour>
      <point x="1154" y="0" type="curve"/>
      <point x="1178" y="192" type="line"/>
      <point x="1058" y="174"/>
      <point x="1049" y="233"/>
      <point x="1049" y="357" type="curve" smooth="yes"/>
      <point x="1049" y="572" type="line" smooth="yes"/>
      <point x="1049" y="839"/>
      <point x="919" y="1016"/>
      <point x="683" y="1016" type="curve" smooth="yes"/>
      <point x="579" y="1016"/>
      <point x="415" y="973"/>
      <point x="352" y="873" type="curve"/>
      <point x="384" y="606" type="line"/>
      <point x="384" y="736"/>
      <point x="522" y="804"/>
      <point x="636" y="804" type="curve" smooth="yes"/>
      <point x="743" y="804"/>
      <point x="813" y="732"/>
      <point x="813" y="549" type="curve" smooth="yes"/>
      <point x="813" y="263" type="line" smooth="yes"/>
      <point x="813" y="64"/>
      <point x="895" y="-52"/>
    </contour>
    <contour>
      <point x="141" y="0" type="line"/>
      <point x="384" y="0" type="line"/>
      <point x="384" y="712" type="line"/>
      <point x="352" y="873" type="line" smooth="yes"/>
      <point x="343" y="918"/>
      <point x="305" y="969"/>
      <point x="277" y="993" type="curve"/>
      <point x="43" y="924" type="line"/>
      <point x="102" y="848"/>
      <point x="141" y="711"/>
      <point x="141" y="610" type="curve" smooth="yes"/>
    </contour>
    <contour>
      <point x="610" y="0" type="move" smooth="yes"/>
    </contour>
    <contour>
      <point x="610" y="0" type="move" smooth="yes"/>
    </contour>
  </outline>
</glyph>
<glyph name="o" format="1">
  <advance width="1211"/>
  <unicode hex="006F"/>
  <outline>
    <contour>
      <point x="606" y="174" type="curve" smooth="yes"/>
      <point x="440" y="174"/>
      <point x="330" y="303"/>
      <point x="330" y="496" type="curve" smooth="yes"/>
      <point x="330" y="689"/>
      <point x="439" y="820"/>
      <point x="604" y="820" type="curve" smooth="yes"/>
      <point x="770" y="820"/>
      <point x="880" y="689"/>
      <point x="880" y="496" type="curve" smooth="yes"/>
      <point x="880" y="303"/>
      <point x="771" y="174"/>
    </contour>
    <contour>
      <point x="604" y="-22" type="curve" smooth="yes"/>
      <point x="916" y="-22"/>
      <point x="1124" y="186"/>
      <point x="1124" y="497" type="curve" smooth="yes"/>
      <point x="1124" y="810"/>
      <point x="915" y="1016"/>
      <point x="604" y="1016" type="curve" smooth="yes"/>
      <point x="294" y="1016"/>
      <point x="88" y="808"/>
      <point x="88" y="496" type="curve" smooth="yes"/>
      <point x="88" y="185"/>
      <point x="294" y="-22"/>
    </contour>
    <contour>
      <point x="606" y="0" type="move" smooth="yes"/>
    </contour>
  </outline>
</glyph>
<glyph name="p" format="1">
  <advance width="1246"/>
  <unicode hex="0070"/>
  <outline>
    <contour>
      <point x="134" y="-496" type="line"/>
      <point x="376" y="-496" type="line"/>
      <point x="378" y="67" type="line"/>
      <point x="453" y="15"/>
      <point x="574" y="-22"/>
      <point x="672" y="-22" type="curve" smooth="yes"/>
      <point x="964" y="-22"/>
      <point x="1162" y="198"/>
      <point x="1162" y="509" type="curve" smooth="yes"/>
      <point x="1162" y="822"/>
      <point x="961" y="1016"/>
      <point x="688" y="1016" type="curve" smooth="yes"/>
      <point x="566" y="1016"/>
      <point x="425" y="951"/>
      <point x="359" y="824" type="curve"/>
      <point x="347" y="894"/>
      <point x="314" y="951"/>
      <point x="269" y="994" type="curve"/>
      <point x="35" y="926" type="line"/>
      <point x="73" y="875"/>
      <point x="134" y="810"/>
      <point x="134" y="610" type="curve" smooth="yes"/>
    </contour>
    <contour>
      <point x="639" y="174" type="curve" smooth="yes"/>
      <point x="528" y="174"/>
      <point x="418" y="218"/>
      <point x="376" y="282" type="curve"/>
      <point x="376" y="417" type="line" smooth="yes"/>
      <point x="376" y="651"/>
      <point x="491" y="820"/>
      <point x="663" y="820" type="curve" smooth="yes"/>
      <point x="826" y="820"/>
      <point x="919" y="695"/>
      <point x="919" y="503" type="curve" smooth="yes"/>
      <point x="919" y="309"/>
      <point x="810" y="174"/>
    </contour>
  </outline>
</glyph>
<glyph name="q" format="1">
  <advance width="1286"/>
  <unicode hex="0071"/>
  <outline>
    <contour>
      <point x="1120" y="-629" type="curve" smooth="yes"/>
      <point x="1474" y="-439" type="line"/>
      <point x="1384" y="-250" type="line"/>
      <point x="1124" y="-384" type="line"/>
      <point x="1124" y="610" type="line"/>
      <point x="1124" y="952" type="line"/>
      <point x="932" y="970" type="line"/>
      <point x="919" y="903" type="line"/>
      <point x="919" y="903"/>
      <point x="815" y="1016"/>
      <point x="586" y="1016" type="curve" smooth="yes"/>
      <point x="294" y="1016"/>
      <point x="88" y="795"/>
      <point x="88" y="485" type="curve" smooth="yes"/>
      <point x="88" y="171"/>
      <point x="290" y="-22"/>
      <point x="562" y="-22" type="curve" smooth="yes"/>
      <point x="659" y="-22"/>
      <point x="805" y="8"/>
      <point x="881" y="104" type="curve"/>
      <point x="881" y="-496" type="line" smooth="yes"/>
      <point x="881" y="-574"/>
      <point x="957" y="-717"/>
    </contour>
    <contour>
      <point x="587" y="175" type="curve" smooth="yes"/>
      <point x="424" y="175"/>
      <point x="331" y="299"/>
      <point x="331" y="491" type="curve" smooth="yes"/>
      <point x="331" y="685"/>
      <point x="449" y="820"/>
      <point x="620" y="820" type="curve" smooth="yes"/>
      <point x="731" y="820"/>
      <point x="839" y="776"/>
      <point x="881" y="712" type="curve"/>
      <point x="881" y="531" type="line" smooth="yes"/>
      <point x="881" y="277"/>
      <point x="759" y="175"/>
    </contour>
  </outline>
</glyph>
<glyph name="r" format="1">
  <advance width="812"/>
  <unicode hex="0072"/>
  <outline>
    <contour>
      <point x="141" y="0" type="line"/>
      <point x="384" y="0" type="line"/>
      <point x="384" y="525" type="line"/>
      <point x="361" y="816" type="line" smooth="yes"/>
      <point x="354" y="892"/>
      <point x="315" y="958"/>
      <point x="277" y="996" type="curve"/>
      <point x="43" y="926" type="line"/>
      <point x="81" y="877"/>
      <point x="141" y="810"/>
      <point x="141" y="611" type="curve" smooth="yes"/>
    </contour>
    <contour>
      <point x="380" y="525" type="line"/>
      <point x="380" y="623"/>
      <point x="451" y="790"/>
      <point x="646" y="790" type="curve" smooth="yes"/>
      <point x="680" y="790"/>
      <point x="717" y="785"/>
      <point x="760" y="774" type="curve"/>
      <point x="777" y="993" type="line"/>
      <point x="743" y="1002"/>
      <point x="709" y="1012"/>
      <point x="631" y="1012" type="curve" smooth="yes"/>
      <point x="526" y="1012"/>
      <point x="397" y="932"/>
      <point x="357" y="816" type="curve"/>
    </contour>
    <contour>
      <point x="411" y="0" type="move" smooth="yes"/>
    </contour>
    <contour>
      <point x="411" y="0" type="move" smooth="yes"/>
    </contour>
  </outline>
</glyph>
<glyph name="s" format="1">
  <advance width="889"/>
  <unicode hex="0073"/>
  <outline>
    <contour>
      <point x="461" y="-22" type="curve" smooth="yes"/>
      <point x="708" y="-22"/>
      <point x="825" y="117"/>
      <point x="825" y="284" type="curve" smooth="yes"/>
      <point x="825" y="449"/>
      <point x="706" y="518"/>
      <point x="509" y="608" type="curve" smooth="yes"/>
      <point x="373" y="670"/>
      <point x="309" y="690"/>
      <point x="309" y="748" type="curve" smooth="yes"/>
      <point x="309" y="810"/>
      <point x="354" y="832"/>
      <point x="451" y="832" type="curve" smooth="yes"/>
      <point x="536" y="832"/>
      <point x="645" y="805"/>
      <point x="737" y="759" type="curve"/>
      <point x="779" y="939" type="line"/>
      <point x="708" y="979"/>
      <point x="561" y="1016"/>
      <point x="439" y="1016" type="curve" smooth="yes"/>
      <point x="187" y="1016"/>
      <point x="88" y="876"/>
      <point x="88" y="748" type="curve" smooth="yes"/>
      <point x="88" y="604"/>
      <point x="160" y="538"/>
      <point x="341" y="449" type="curve" smooth="yes"/>
      <point x="483" y="379"/>
      <point x="608" y="344"/>
      <point x="608" y="267" type="curve" smooth="yes"/>
      <point x="608" y="210"/>
      <point x="570" y="168"/>
      <point x="461" y="168" type="curve" smooth="yes"/>
      <point x="372" y="168"/>
      <point x="254" y="201"/>
      <point x="149" y="254" type="curve"/>
      <point x="98" y="79" type="line"/>
      <point x="167" y="26"/>
      <point x="324" y="-22"/>
    </contour>
    <contour>
      <point x="447" y="0" type="move" smooth="yes"/>
    </contour>
    <contour>
      <point x="447" y="0" type="move" smooth="yes"/>
    </contour>
  </outline>
</glyph>
<glyph name="t" format="1">
  <advance width="892"/>
  <unicode hex="0074"/>
  <outline>
    <contour>
      <point x="615" y="-14" type="curve" smooth="yes"/>
      <point x="694" y="-14"/>
      <point x="779" y="-1"/>
      <point x="862" y="23" type="curve"/>
      <point x="838" y="210" type="line"/>
      <point x="770" y="195"/>
      <point x="710" y="186"/>
      <point x="660" y="186" type="curve" smooth="yes"/>
      <point x="543" y="186"/>
      <point x="479" y="232"/>
      <point x="479" y="348" type="curve" smooth="yes"/>
      <point x="479" y="820" type="line"/>
      <point x="796" y="820" type="line"/>
      <point x="796" y="996" type="line"/>
      <point x="479" y="996" type="line"/>
      <point x="479" y="1338" type="line"/>
      <point x="239" y="1309" type="line"/>
      <point x="239" y="996" type="line"/>
      <point x="39" y="996" type="line"/>
      <point x="39" y="820" type="line"/>
      <point x="239" y="820" type="line"/>
      <point x="239" y="296" type="line" smooth="yes"/>
      <point x="239" y="76"/>
      <point x="407" y="-14"/>
    </contour>
    <contour>
      <point x="415" y="0" type="move" smooth="yes"/>
    </contour>
    <contour>
      <point x="415" y="0" type="move" smooth="yes"/>
    </contour>
  </outline>
</glyph>
<glyph name="u" format="1">
  <advance width="1183"/>
  <unicode hex="0075"/>
  <outline>
    <contour>
      <point x="466" y="-22" type="curve" smooth="yes"/>
      <point x="606" y="-22"/>
      <point x="741" y="50"/>
      <point x="806" y="158" type="curve"/>
      <point x="828" y="62"/>
      <point x="953" y="-4"/>
      <point x="1111" y="-4" type="curve"/>
      <point x="1145" y="211" type="line"/>
      <point x="1068" y="211"/>
      <point x="1017" y="270"/>
      <point x="1017" y="355" type="curve" smooth="yes"/>
      <point x="1017" y="996" type="line"/>
      <point x="775" y="996" type="line"/>
      <point x="775" y="473" type="line" smooth="yes"/>
      <point x="775" y="291"/>
      <point x="661" y="170"/>
      <point x="490" y="170" type="curve" smooth="yes"/>
      <point x="392" y="170"/>
      <point x="333" y="255"/>
      <point x="336" y="381" type="curve" smooth="yes"/>
      <point x="341" y="577" type="line"/>
      <point x="350" y="884"/>
      <point x="305" y="996"/>
      <point x="305" y="996" type="curve"/>
      <point x="62" y="969" type="line"/>
      <point x="62" y="969"/>
      <point x="107" y="844"/>
      <point x="98" y="564" type="curve"/>
      <point x="95" y="354" type="line"/>
      <point x="88" y="129"/>
      <point x="236" y="-22"/>
    </contour>
    <contour>
      <point x="602" y="0" type="move" smooth="yes"/>
    </contour>
    <contour>
      <point x="1072" y="10" type="move" smooth="yes"/>
    </contour>
  </outline>
</glyph>
<glyph name="v" format="1">
  <advance width="1046"/>
  <unicode hex="0076"/>
  <outline>
    <contour>
      <point x="433" y="0" type="line"/>
      <point x="630" y="0" type="line"/>
      <point x="1038" y="996" type="line"/>
      <point x="796" y="996" type="line"/>
      <point x="582" y="484" type="line" smooth="yes"/>
      <point x="570" y="456"/>
      <point x="558" y="424"/>
      <point x="528" y="325" type="curve"/>
      <point x="513" y="377"/>
      <point x="494" y="438"/>
      <point x="474" y="484" type="curve" smooth="yes"/>
      <point x="255" y="996" type="line"/>
      <point x="8" y="996" type="line"/>
    </contour>
  </outline>
</glyph>
<glyph name="w" format="1">
  <advance width="1618"/>
  <unicode hex="0077"/>
  <outline>
    <contour>
      <point x="398" y="0" type="line"/>
      <point x="596" y="0" type="line"/>
      <point x="812" y="612" type="line"/>
      <point x="1038" y="0" type="line"/>
      <point x="1236" y="0" type="line"/>
      <point x="1607" y="996" type="line"/>
      <point x="1365" y="996" type="line"/>
      <point x="1189" y="484" type="line"/>
      <point x="1136" y="325" type="line"/>
      <point x="1080" y="484" type="line"/>
      <point x="922" y="935" type="line" smooth="yes"/>
      <point x="897" y="1005"/>
      <point x="715" y="990"/>
      <point x="695" y="930" type="curve" smooth="yes"/>
      <point x="548" y="484" type="line"/>
      <point x="494" y="325" type="line"/>
      <point x="440" y="484" type="line"/>
      <point x="259" y="996" type="line"/>
      <point x="12" y="996" type="line"/>
    </contour>
    <contour>
      <point x="809" y="0" type="move" smooth="yes"/>
    </contour>
  </outline>
</glyph>
<glyph name="x" format="1">
  <advance width="1086"/>
  <unicode hex="0078"/>
  <outline>
    <contour>
      <point x="4" y="0" type="line"/>
      <point x="263" y="0" type="line"/>
      <point x="530" y="345" type="line"/>
      <point x="787" y="0" type="line"/>
      <point x="1082" y="0" type="line"/>
      <point x="703" y="504" type="line"/>
      <point x="1066" y="996" type="line"/>
      <point x="794" y="996" type="line"/>
      <point x="569" y="681" type="line"/>
      <point x="332" y="996" type="line"/>
      <point x="48" y="996" type="line"/>
      <point x="402" y="519" type="line"/>
    </contour>
  </outline>
</glyph>
<glyph name="y" format="1">
  <advance width="1122"/>
  <unicode hex="0079"/>
  <outline>
    <contour>
      <point x="485" y="-542" type="curve" smooth="yes"/>
      <point x="771" y="-542"/>
      <point x="1021" y="-401"/>
      <point x="1022" y="-6" type="curve" smooth="yes"/>
      <point x="1023" y="355" type="line"/>
      <point x="1022" y="355" type="line"/>
      <point x="1022" y="996" type="line"/>
      <point x="780" y="996" type="line"/>
      <point x="780" y="473" type="line"/>
      <point x="783" y="291"/>
      <point x="666" y="170"/>
      <point x="495" y="170" type="curve" smooth="yes"/>
      <point x="399" y="170"/>
      <point x="337" y="255"/>
      <point x="341" y="381" type="curve"/>
      <point x="345" y="577" type="line"/>
      <point x="355" y="884"/>
      <point x="310" y="996"/>
      <point x="310" y="996" type="curve"/>
      <point x="68" y="969" type="line"/>
      <point x="68" y="969"/>
      <point x="114" y="844"/>
      <point x="104" y="564" type="curve"/>
      <point x="99" y="355" type="line" smooth="yes"/>
      <point x="93" y="130"/>
      <point x="241" y="-22"/>
      <point x="471" y="-22" type="curve" smooth="yes"/>
      <point x="593" y="-22"/>
      <point x="713" y="33"/>
      <point x="786" y="119" type="curve"/>
      <point x="783" y="-44" type="line"/>
      <point x="783" y="-283"/>
      <point x="623" y="-325"/>
      <point x="442" y="-325" type="curve" smooth="yes"/>
      <point x="349" y="-325"/>
      <point x="251" y="-303"/>
      <point x="166" y="-259" type="curve"/>
      <point x="121" y="-459" type="line"/>
      <point x="234" y="-513"/>
      <point x="362" y="-542"/>
    </contour>
    <contour>
      <point x="553" y="0" type="move" smooth="yes"/>
    </contour>
  </outline>
</glyph>
<glyph name="z" format="1">
  <advance width="968"/>
  <unicode hex="007A"/>
  <outline>
    <contour>
      <point x="86" y="0" type="line"/>
      <point x="880" y="0" type="line"/>
      <point x="880" y="185" type="line"/>
      <point x="375" y="185" type="line"/>
      <point x="865" y="843" type="line"/>
      <point x="865" y="996" type="line"/>
      <point x="111" y="996" type="line"/>
      <point x="111" y="825" type="line"/>
      <point x="581" y="825" type="line"/>
      <point x="86" y="155" type="line"/>
    </contour>
    <contour>
      <point x="485" y="0" type="move" smooth="yes"/>
    </contour>
  </outline>
</glyph>
<glyph name="braceleft" format="1">
  <advance width="1076"/>
  <unicode hex="007B"/>
  <outline>
    <contour>
      <point x="697" y="-456" type="curve"/>
      <point x="697" y="-308" type="line"/>
      <point x="662" y="-308"/>
      <point x="631" y="-304"/>
      <point x="608" y="-295" type="curve" smooth="yes"/>
      <point x="520" y="-264"/>
      <point x="511" y="-154"/>
      <point x="511" y="-27" type="curve" smooth="yes"/>
      <point x="511" y="50"/>
      <point x="512" y="155"/>
      <point x="512" y="230" type="curve" smooth="yes"/>
      <point x="512" y="383"/>
      <point x="462" y="496"/>
      <point x="357" y="547" type="curve"/>
      <point x="452" y="599"/>
      <point x="517" y="713"/>
      <point x="517" y="868" type="curve" smooth="yes"/>
      <point x="518" y="1207" type="line" smooth="yes"/>
      <point x="518" y="1343"/>
      <point x="569" y="1400"/>
      <point x="697" y="1404" type="curve"/>
      <point x="697" y="1552" type="line"/>
      <point x="450" y="1552"/>
      <point x="328" y="1440"/>
      <point x="328" y="1190" type="curve"/>
      <point x="329" y="1141"/>
      <point x="330" y="1090"/>
      <point x="330" y="1041" type="curve" smooth="yes"/>
      <point x="330" y="991"/>
      <point x="331" y="943"/>
      <point x="332" y="894" type="curve"/>
      <point x="332" y="739"/>
      <point x="284" y="631"/>
      <point x="147" y="618" type="curve"/>
      <point x="147" y="476" type="line"/>
      <point x="303" y="459"/>
      <point x="329" y="343"/>
      <point x="329" y="169" type="curve" smooth="yes"/>
      <point x="328" y="-138" type="line" smooth="yes"/>
      <point x="328" y="-367"/>
      <point x="484" y="-447"/>
    </contour>
  </outline>
</glyph>
<glyph name="bar" format="1">
  <advance width="858"/>
  <unicode hex="007C"/>
  <outline>
    <contour>
      <point x="289" y="-865" type="line"/>
      <point x="469" y="-865" type="line"/>
      <point x="469" y="1526" type="line"/>
      <point x="289" y="1526" type="line"/>
    </contour>
  </outline>
</glyph>
<glyph name="braceright" format="1">
  <advance width="1076"/>
  <unicode hex="007D"/>
  <outline>
    <contour>
      <point x="113" y="-456" type="line"/>
      <point x="326" y="-447"/>
      <point x="483" y="-367"/>
      <point x="483" y="-138" type="curve" smooth="yes"/>
      <point x="482" y="169" type="line" smooth="yes"/>
      <point x="482" y="206"/>
      <point x="482" y="240"/>
      <point x="485" y="275" type="curve" smooth="yes"/>
      <point x="492" y="395"/>
      <point x="546" y="464"/>
      <point x="662" y="476" type="curve"/>
      <point x="664" y="618" type="line"/>
      <point x="527" y="631"/>
      <point x="478" y="739"/>
      <point x="478" y="894" type="curve"/>
      <point x="480" y="943"/>
      <point x="482" y="991"/>
      <point x="482" y="1041" type="curve" smooth="yes"/>
      <point x="482" y="1090"/>
      <point x="482" y="1141"/>
      <point x="483" y="1190" type="curve"/>
      <point x="483" y="1440"/>
      <point x="359" y="1552"/>
      <point x="113" y="1552" type="curve"/>
      <point x="113" y="1404" type="line"/>
      <point x="242" y="1400"/>
      <point x="293" y="1343"/>
      <point x="293" y="1207" type="curve" smooth="yes"/>
      <point x="294" y="868" type="line" smooth="yes"/>
      <point x="294" y="712"/>
      <point x="356" y="599"/>
      <point x="454" y="547" type="curve"/>
      <point x="349" y="496"/>
      <point x="297" y="383"/>
      <point x="297" y="230" type="curve" smooth="yes"/>
      <point x="297" y="153"/>
      <point x="300" y="50"/>
      <point x="300" y="-27" type="curve" smooth="yes"/>
      <point x="300" y="-82"/>
      <point x="297" y="-127"/>
      <point x="291" y="-163" type="curve" smooth="yes"/>
      <point x="273" y="-264"/>
      <point x="228" y="-308"/>
      <point x="113" y="-308" type="curve"/>
    </contour>
  </outline>
</glyph>
<glyph name="asciitilde" format="1">
  <advance width="2502"/>
  <unicode hex="007E"/>
  <outline>
    <contour>
      <point x="456" y="678" type="line"/>
      <point x="480" y="784"/>
      <point x="547" y="896"/>
      <point x="674" y="896" type="curve" smooth="yes"/>
      <point x="697" y="896"/>
      <point x="725" y="891"/>
      <point x="754" y="882" type="curve" smooth="yes"/>
      <point x="852" y="850"/>
      <point x="944" y="797"/>
      <point x="1035" y="757" type="curve" smooth="yes"/>
      <point x="1083" y="735"/>
      <point x="1143" y="708"/>
      <point x="1202" y="708" type="curve" smooth="yes"/>
      <point x="1248" y="708"/>
      <point x="1289" y="715"/>
      <point x="1327" y="731" type="curve" smooth="yes"/>
      <point x="1444" y="782"/>
      <point x="1514" y="890"/>
      <point x="1546" y="1029" type="curve"/>
      <point x="1403" y="1075" type="line"/>
      <point x="1382" y="979"/>
      <point x="1318" y="866"/>
      <point x="1204" y="866" type="curve" smooth="yes"/>
      <point x="1185" y="866"/>
      <point x="1164" y="871"/>
      <point x="1139" y="880" type="curve" smooth="yes"/>
      <point x="1046" y="915"/>
      <point x="955" y="967"/>
      <point x="862" y="1005" type="curve"/>
      <point x="805" y="1027"/>
      <point x="740" y="1054"/>
      <point x="671" y="1054" type="curve" smooth="yes"/>
      <point x="622" y="1054"/>
      <point x="579" y="1046"/>
      <point x="540" y="1028" type="curve" smooth="yes"/>
      <point x="429" y="979"/>
      <point x="352" y="875"/>
      <point x="325" y="742" type="curve"/>
    </contour>
  </outline>
</glyph>
<glyph name="exclamdown" format="1">
  <advance width="1264"/>
  <unicode hex="00A1"/>
  <outline>
    <contour>
      <point x="447" y="-676" type="line"/>
      <point x="637" y="-676" type="line"/>
      <point x="637" y="589" type="line"/>
      <point x="447" y="589" type="line"/>
    </contour>
    <contour>
      <point x="447" y="813" type="line"/>
      <point x="692" y="813" type="line"/>
      <point x="692" y="1054" type="line"/>
      <point x="447" y="1054" type="line"/>
    </contour>
  </outline>
</glyph>
<glyph name="cent" format="1">
  <advance width="2041"/>
  <unicode hex="00A2"/>
  <outline>
    <contour>
      <point x="687" y="-414" type="line"/>
      <point x="817" y="-414" type="line"/>
      <point x="817" y="-162" type="line"/>
      <point x="929" y="-151"/>
      <point x="1049" y="-110"/>
      <point x="1171" y="-36" type="curve"/>
      <point x="1130" y="126" type="line"/>
      <point x="1021" y="49"/>
      <point x="914" y="13"/>
      <point x="817" y="3" type="curve"/>
      <point x="817" y="927" type="line"/>
      <point x="925" y="916"/>
      <point x="1008" y="874"/>
      <point x="1065" y="802" type="curve"/>
      <point x="1152" y="933" type="line"/>
      <point x="1084" y="1026"/>
      <point x="967" y="1081"/>
      <point x="817" y="1093" type="curve"/>
      <point x="817" y="1366" type="line"/>
      <point x="687" y="1366" type="line"/>
      <point x="687" y="1093" type="line"/>
      <point x="358" y="1064"/>
      <point x="162" y="807"/>
      <point x="162" y="452" type="curve" smooth="yes"/>
      <point x="162" y="112"/>
      <point x="383" y="-132"/>
      <point x="687" y="-162" type="curve"/>
    </contour>
    <contour>
      <point x="687" y="6" type="line"/>
      <point x="492" y="37"/>
      <point x="360" y="196"/>
      <point x="360" y="458" type="curve" smooth="yes"/>
      <point x="360" y="700"/>
      <point x="473" y="888"/>
      <point x="687" y="924" type="curve"/>
    </contour>
  </outline>
</glyph>
<glyph name="sterling" format="1">
  <advance width="2041"/>
  <unicode hex="00A3"/>
  <outline>
    <contour>
      <point x="197" y="0" type="line"/>
      <point x="1303" y="0" type="line"/>
      <point x="1303" y="166" type="line"/>
      <point x="488" y="166" type="line"/>
      <point x="507" y="181"/>
      <point x="523" y="200"/>
      <point x="536" y="228" type="curve" smooth="yes"/>
      <point x="598" y="359"/>
      <point x="601" y="558"/>
      <point x="601" y="752" type="curve" smooth="yes"/>
      <point x="601" y="810" type="line"/>
      <point x="979" y="810" type="line"/>
      <point x="979" y="977" type="line"/>
      <point x="599" y="977" type="line"/>
      <point x="596" y="1112" type="line"/>
      <point x="596" y="1357"/>
      <point x="670" y="1535"/>
      <point x="908" y="1535" type="curve" smooth="yes"/>
      <point x="1036" y="1535"/>
      <point x="1141" y="1503"/>
      <point x="1221" y="1453" type="curve"/>
      <point x="1281" y="1594" type="line"/>
      <point x="1192" y="1665"/>
      <point x="1069" y="1700"/>
      <point x="904" y="1700" type="curve" smooth="yes"/>
      <point x="499" y="1700"/>
      <point x="402" y="1421"/>
      <point x="402" y="1010" type="curve" smooth="yes"/>
      <point x="402" y="999"/>
      <point x="403" y="988"/>
      <point x="405" y="977" type="curve"/>
      <point x="195" y="977" type="line"/>
      <point x="195" y="810" type="line"/>
      <point x="405" y="810" type="line"/>
      <point x="405" y="517" type="line" smooth="yes"/>
      <point x="405" y="319"/>
      <point x="314" y="234"/>
      <point x="195" y="163" type="curve"/>
    </contour>
  </outline>
</glyph>
<glyph name="currency" format="1">
  <advance width="2125"/>
  <unicode hex="00A4"/>
  <outline>
    <contour>
      <point x="241" y="343" type="line"/>
      <point x="425" y="540" type="line"/>
      <point x="503" y="475"/>
      <point x="603" y="436"/>
      <point x="709" y="436" type="curve" smooth="yes"/>
      <point x="823" y="436"/>
      <point x="927" y="479"/>
      <point x="1006" y="550" type="curve"/>
      <point x="1199" y="361" type="line"/>
      <point x="1241" y="403" type="line"/>
      <point x="1049" y="593" type="line"/>
      <point x="1114" y="670"/>
      <point x="1153" y="769"/>
      <point x="1156" y="879" type="curve" smooth="yes"/>
      <point x="1159" y="998"/>
      <point x="1115" y="1108"/>
      <point x="1042" y="1191" type="curve"/>
      <point x="1225" y="1384" type="line"/>
      <point x="1178" y="1429" type="line"/>
      <point x="997" y="1236" type="line"/>
      <point x="922" y="1301"/>
      <point x="826" y="1342"/>
      <point x="721" y="1345" type="curve" smooth="yes"/>
      <point x="606" y="1348"/>
      <point x="495" y="1302"/>
      <point x="412" y="1226" type="curve"/>
      <point x="226" y="1410" type="line"/>
      <point x="182" y="1365" type="line"/>
      <point x="369" y="1180" type="line"/>
      <point x="303" y="1101"/>
      <point x="260" y="1000"/>
      <point x="260" y="891" type="curve" smooth="yes"/>
      <point x="260" y="772"/>
      <point x="307" y="662"/>
      <point x="382" y="581" type="curve"/>
      <point x="200" y="387" type="line"/>
    </contour>
    <contour>
      <point x="706" y="526" type="curve" smooth="yes"/>
      <point x="513" y="526"/>
      <point x="363" y="688"/>
      <point x="363" y="888" type="curve" smooth="yes"/>
      <point x="363" y="1086"/>
      <point x="522" y="1252"/>
      <point x="716" y="1247" type="curve" smooth="yes"/>
      <point x="909" y="1243"/>
      <point x="1055" y="1077"/>
      <point x="1051" y="879" type="curve" smooth="yes"/>
      <point x="1046" y="680"/>
      <point x="900" y="526"/>
    </contour>
  </outline>
</glyph>
<glyph name="yen" format="1">
  <advance width="2041"/>
  <unicode hex="00A5"/>
  <outline>
    <contour>
      <point x="596" y="0" type="line"/>
      <point x="794" y="0" type="line"/>
      <point x="794" y="333" type="line"/>
      <point x="1241" y="333" type="line"/>
      <point x="1241" y="496" type="line"/>
      <point x="790" y="496" type="line"/>
      <point x="790" y="674" type="line"/>
      <point x="1237" y="674" type="line"/>
      <point x="1237" y="840" type="line"/>
      <point x="821" y="840" type="line"/>
      <point x="1342" y="1668" type="line"/>
      <point x="1129" y="1668" type="line"/>
      <point x="988" y="1424"/>
      <point x="847" y="1177"/>
      <point x="703" y="935" type="curve"/>
      <point x="566" y="1183"/>
      <point x="419" y="1424"/>
      <point x="279" y="1668" type="curve"/>
      <point x="45" y="1668" type="line"/>
      <point x="554" y="840" type="line"/>
      <point x="133" y="840" type="line"/>
      <point x="133" y="674" type="line"/>
      <point x="594" y="674" type="line"/>
      <point x="594" y="496" type="line"/>
      <point x="128" y="496" type="line"/>
      <point x="139" y="333" type="line"/>
      <point x="596" y="333" type="line"/>
    </contour>
  </outline>
</glyph>
<glyph name="brokenbar" format="1">
  <advance width="858"/>
  <unicode hex="00A6"/>
  <outline>
    <contour>
      <point x="289" y="-865" type="line"/>
      <point x="469" y="-865" type="line"/>
      <point x="469" y="173" type="line"/>
      <point x="289" y="173" type="line"/>
    </contour>
    <contour>
      <point x="289" y="507" type="line"/>
      <point x="469" y="507" type="line"/>
      <point x="469" y="1526" type="line"/>
      <point x="289" y="1526" type="line"/>
    </contour>
  </outline>
</glyph>
<glyph name="section" format="1">
  <advance width="1883"/>
  <unicode hex="00A7"/>
  <outline>
    <contour>
      <point x="657" y="-84" type="curve" smooth="yes"/>
      <point x="787" y="-84"/>
      <point x="902" y="-49"/>
      <point x="982" y="7" type="curve"/>
      <point x="1057" y="61"/>
      <point x="1123" y="143"/>
      <point x="1123" y="267" type="curve" smooth="yes"/>
      <point x="1123" y="415"/>
      <point x="1034" y="485"/>
      <point x="936" y="536" type="curve"/>
      <point x="1032" y="595"/>
      <point x="1149" y="684"/>
      <point x="1149" y="837" type="curve" smooth="yes"/>
      <point x="1149" y="878"/>
      <point x="1139" y="916"/>
      <point x="1120" y="949" type="curve" smooth="yes"/>
      <point x="1035" y="1096"/>
      <point x="834" y="1148"/>
      <point x="685" y="1231" type="curve" smooth="yes"/>
      <point x="619" y="1269"/>
      <point x="556" y="1311"/>
      <point x="556" y="1406" type="curve" smooth="yes"/>
      <point x="556" y="1532"/>
      <point x="677" y="1564"/>
      <point x="801" y="1564" type="curve" smooth="yes"/>
      <point x="898" y="1564"/>
      <point x="992" y="1536"/>
      <point x="1061" y="1503" type="curve"/>
      <point x="1058" y="1677" type="line"/>
      <point x="972" y="1704"/>
      <point x="902" y="1725"/>
      <point x="797" y="1725" type="curve" smooth="yes"/>
      <point x="567" y="1725"/>
      <point x="359" y="1635"/>
      <point x="359" y="1401" type="curve" smooth="yes"/>
      <point x="359" y="1251"/>
      <point x="436" y="1177"/>
      <point x="534" y="1117" type="curve"/>
      <point x="434" y="1065"/>
      <point x="318" y="980"/>
      <point x="318" y="828" type="curve" smooth="yes"/>
      <point x="318" y="790"/>
      <point x="324" y="755"/>
      <point x="337" y="723" type="curve" smooth="yes"/>
      <point x="381" y="614"/>
      <point x="481" y="552"/>
      <point x="588" y="505" type="curve" smooth="yes"/>
      <point x="684" y="463" type="line" smooth="yes"/>
      <point x="722" y="447"/>
      <point x="757" y="431"/>
      <point x="787" y="417" type="curve" smooth="yes"/>
      <point x="852" y="385"/>
      <point x="924" y="350"/>
      <point x="924" y="257" type="curve" smooth="yes"/>
      <point x="924" y="231"/>
      <point x="920" y="208"/>
      <point x="907" y="186" type="curve" smooth="yes"/>
      <point x="866" y="112"/>
      <point x="768" y="77"/>
      <point x="652" y="77" type="curve" smooth="yes"/>
      <point x="533" y="77"/>
      <point x="441" y="108"/>
      <point x="346" y="151" type="curve"/>
      <point x="349" y="-23" type="line"/>
      <point x="436" y="-59"/>
      <point x="540" y="-84"/>
    </contour>
    <contour>
      <point x="782" y="614" type="curve"/>
      <point x="743" y="630"/>
      <point x="708" y="646"/>
      <point x="676" y="661" type="curve" smooth="yes"/>
      <point x="603" y="695"/>
      <point x="520" y="739"/>
      <point x="520" y="842" type="curve" smooth="yes"/>
      <point x="520" y="948"/>
      <point x="604" y="1005"/>
      <point x="673" y="1043" type="curve"/>
      <point x="766" y="991"/>
      <point x="945" y="965"/>
      <point x="945" y="821" type="curve" smooth="yes"/>
      <point x="945" y="797"/>
      <point x="941" y="777"/>
      <point x="931" y="756" type="curve"/>
      <point x="899" y="694"/>
      <point x="839" y="651"/>
    </contour>
  </outline>
</glyph>
<glyph name="dieresis" format="1">
  <advance width="1275"/>
  <unicode hex="00A8"/>
  <outline>
    <contour>
      <point x="139" y="2084" type="line"/>
      <point x="396" y="2084" type="line"/>
      <point x="396" y="2345" type="line"/>
      <point x="139" y="2345" type="line"/>
    </contour>
    <contour>
      <point x="554" y="2084" type="line"/>
      <point x="810" y="2084" type="line"/>
      <point x="810" y="2345" type="line"/>
      <point x="554" y="2345" type="line"/>
    </contour>
    <contour>
      <point x="475" y="0" type="move" smooth="yes"/>
    </contour>
  </outline>
</glyph>
<glyph name="copyright" format="1">
  <advance width="3140"/>
  <unicode hex="00A9"/>
  <outline>
    <contour>
      <point x="1135" y="273" type="curve" smooth="yes"/>
      <point x="1272" y="273"/>
      <point x="1391" y="308"/>
      <point x="1489" y="379" type="curve"/>
      <point x="1444" y="521" type="line"/>
      <point x="1375" y="463"/>
      <point x="1288" y="427"/>
      <point x="1172" y="427" type="curve" smooth="yes"/>
      <point x="1104" y="427"/>
      <point x="1045" y="439"/>
      <point x="993" y="460" type="curve" smooth="yes"/>
      <point x="855" y="518"/>
      <point x="760" y="646"/>
      <point x="760" y="842" type="curve" smooth="yes"/>
      <point x="760" y="898"/>
      <point x="770" y="951"/>
      <point x="788" y="1000" type="curve" smooth="yes"/>
      <point x="839" y="1142"/>
      <point x="955" y="1250"/>
      <point x="1140" y="1250" type="curve" smooth="yes"/>
      <point x="1263" y="1250"/>
      <point x="1365" y="1212"/>
      <point x="1449" y="1138" type="curve"/>
      <point x="1484" y="1279" type="line"/>
      <point x="1391" y="1360"/>
      <point x="1280" y="1399"/>
      <point x="1148" y="1399" type="curve" smooth="yes"/>
      <point x="1063" y="1399"/>
      <point x="986" y="1385"/>
      <point x="917" y="1357" type="curve" smooth="yes"/>
      <point x="726" y="1280"/>
      <point x="585" y="1107"/>
      <point x="585" y="837" type="curve" smooth="yes"/>
      <point x="585" y="759"/>
      <point x="600" y="685"/>
      <point x="627" y="617" type="curve" smooth="yes"/>
      <point x="703" y="424"/>
      <point x="875" y="273"/>
    </contour>
    <contour>
      <point x="1105" y="-57" type="curve" smooth="yes"/>
      <point x="1390" y="-57"/>
      <point x="1602" y="59"/>
      <point x="1753" y="206" type="curve" smooth="yes"/>
      <point x="1899" y="348"/>
      <point x="2024" y="550"/>
      <point x="2024" y="832" type="curve" smooth="yes"/>
      <point x="2024" y="913"/>
      <point x="2012" y="991"/>
      <point x="1991" y="1066" type="curve" smooth="yes"/>
      <point x="1944" y="1225"/>
      <point x="1859" y="1355"/>
      <point x="1753" y="1458" type="curve" smooth="yes"/>
      <point x="1601" y="1605"/>
      <point x="1388" y="1723"/>
      <point x="1099" y="1723" type="curve" smooth="yes"/>
      <point x="814" y="1723"/>
      <point x="602" y="1607"/>
      <point x="449" y="1460" type="curve"/>
      <point x="303" y="1318"/>
      <point x="176" y="1116"/>
      <point x="176" y="833" type="curve" smooth="yes"/>
      <point x="176" y="752"/>
      <point x="189" y="674"/>
      <point x="210" y="599" type="curve" smooth="yes"/>
      <point x="257" y="441"/>
      <point x="341" y="309"/>
      <point x="448" y="206" type="curve" smooth="yes"/>
      <point x="601" y="59"/>
      <point x="816" y="-57"/>
    </contour>
    <contour>
      <point x="1105" y="81" type="curve" smooth="yes"/>
      <point x="867" y="81"/>
      <point x="676" y="173"/>
      <point x="547" y="298" type="curve" smooth="yes"/>
      <point x="422" y="418"/>
      <point x="322" y="599"/>
      <point x="322" y="835" type="curve" smooth="yes"/>
      <point x="322" y="1068"/>
      <point x="422" y="1249"/>
      <point x="547" y="1369" type="curve" smooth="yes"/>
      <point x="675" y="1491"/>
      <point x="863" y="1585"/>
      <point x="1100" y="1585" type="curve" smooth="yes"/>
      <point x="1337" y="1585"/>
      <point x="1528" y="1491"/>
      <point x="1656" y="1367" type="curve" smooth="yes"/>
      <point x="1780" y="1247"/>
      <point x="1879" y="1066"/>
      <point x="1879" y="832" type="curve" smooth="yes"/>
      <point x="1879" y="598"/>
      <point x="1779" y="418"/>
      <point x="1656" y="298" type="curve" smooth="yes"/>
      <point x="1529" y="174"/>
      <point x="1342" y="81"/>
    </contour>
  </outline>
</glyph>
<glyph name="ordfeminine" format="1">
  <advance width="1279"/>
  <unicode hex="00AA"/>
  <outline>
    <contour>
      <point x="401" y="1353" type="curve" smooth="yes"/>
      <point x="515" y="1353"/>
      <point x="601" y="1396"/>
      <point x="652" y="1460" type="curve"/>
      <point x="659" y="1374" type="line"/>
      <point x="809" y="1374" type="line"/>
      <point x="803" y="1445"/>
      <point x="801" y="1472"/>
      <point x="801" y="1524" type="curve" smooth="yes"/>
      <point x="803" y="1901" type="line"/>
      <point x="803" y="2095"/>
      <point x="676" y="2185"/>
      <point x="488" y="2185" type="curve" smooth="yes"/>
      <point x="337" y="2185"/>
      <point x="223" y="2137"/>
      <point x="165" y="2036" type="curve"/>
      <point x="242" y="1948" type="line"/>
      <point x="293" y="2025"/>
      <point x="369" y="2059"/>
      <point x="482" y="2059" type="curve" smooth="yes"/>
      <point x="608" y="2059"/>
      <point x="651" y="2012"/>
      <point x="651" y="1883" type="curve" smooth="yes"/>
      <point x="651" y="1873" type="line"/>
      <point x="566" y="1861"/>
      <point x="477" y="1863"/>
      <point x="392" y="1851" type="curve"/>
      <point x="255" y="1829"/>
      <point x="113" y="1756"/>
      <point x="113" y="1596" type="curve" smooth="yes"/>
      <point x="113" y="1559"/>
      <point x="120" y="1526"/>
      <point x="135" y="1496" type="curve" smooth="yes"/>
      <point x="178" y="1407"/>
      <point x="272" y="1353"/>
    </contour>
    <contour>
      <point x="424" y="1474" type="curve" smooth="yes"/>
      <point x="335" y="1474"/>
      <point x="269" y="1507"/>
      <point x="269" y="1598" type="curve" smooth="yes"/>
      <point x="269" y="1761"/>
      <point x="522" y="1728"/>
      <point x="651" y="1754" type="curve"/>
      <point x="651" y="1725" type="line"/>
      <point x="643" y="1581"/>
      <point x="573" y="1474"/>
    </contour>
  </outline>
</glyph>
<glyph name="guillemotleft" format="1">
  <advance width="1984"/>
  <unicode hex="00AB"/>
  <outline>
    <contour>
      <point x="730" y="301" type="line"/>
      <point x="910" y="301" type="line"/>
      <point x="617" y="735" type="line"/>
      <point x="920" y="1174" type="line"/>
      <point x="737" y="1174" type="line"/>
      <point x="422" y="735" type="line"/>
    </contour>
    <contour>
      <point x="1153" y="301" type="line"/>
      <point x="1334" y="301" type="line"/>
      <point x="1040" y="735" type="line"/>
      <point x="1342" y="1174" type="line"/>
      <point x="1159" y="1174" type="line"/>
      <point x="846" y="735" type="line"/>
    </contour>
  </outline>
</glyph>
<glyph name="logicalnot" format="1">
  <advance width="2502"/>
  <unicode hex="00AC"/>
  <outline>
    <contour>
      <point x="1372" y="419" type="line"/>
      <point x="1543" y="419" type="line"/>
      <point x="1543" y="1077" type="line"/>
      <point x="344" y="1077" type="line"/>
      <point x="344" y="913" type="line"/>
      <point x="1372" y="913" type="line"/>
    </contour>
  </outline>
</glyph>
<glyph name="registered" format="1">
  <advance width="3140"/>
  <unicode hex="00AE"/>
  <outline>
    <contour>
      <point x="743" y="302" type="line"/>
      <point x="913" y="302" type="line"/>
      <point x="913" y="761" type="line"/>
      <point x="1069" y="761" type="line"/>
      <point x="1139" y="715"/>
      <point x="1188" y="635"/>
      <point x="1236" y="550" type="curve" smooth="yes"/>
      <point x="1378" y="302" type="line"/>
      <point x="1570" y="302" type="line"/>
      <point x="1533" y="366"/>
      <point x="1499" y="421"/>
      <point x="1468" y="472" type="curve" smooth="yes"/>
      <point x="1399" y="586"/>
      <point x="1333" y="696"/>
      <point x="1245" y="781" type="curve"/>
      <point x="1412" y="803"/>
      <point x="1548" y="891"/>
      <point x="1548" y="1079" type="curve" smooth="yes"/>
      <point x="1548" y="1176"/>
      <point x="1508" y="1251"/>
      <point x="1427" y="1303" type="curve" smooth="yes"/>
      <point x="1346" y="1355"/>
      <point x="1223" y="1380"/>
      <point x="1055" y="1380" type="curve" smooth="yes"/>
      <point x="743" y="1380" type="line"/>
    </contour>
    <contour>
      <point x="1105" y="-57" type="curve" smooth="yes"/>
      <point x="1390" y="-57"/>
      <point x="1602" y="59"/>
      <point x="1753" y="206" type="curve" smooth="yes"/>
      <point x="1899" y="348"/>
      <point x="2024" y="550"/>
      <point x="2024" y="832" type="curve" smooth="yes"/>
      <point x="2024" y="913"/>
      <point x="2012" y="991"/>
      <point x="1991" y="1066" type="curve" smooth="yes"/>
      <point x="1944" y="1225"/>
      <point x="1859" y="1355"/>
      <point x="1753" y="1458" type="curve" smooth="yes"/>
      <point x="1601" y="1605"/>
      <point x="1388" y="1723"/>
      <point x="1099" y="1723" type="curve" smooth="yes"/>
      <point x="814" y="1723"/>
      <point x="602" y="1607"/>
      <point x="449" y="1460" type="curve"/>
      <point x="303" y="1318"/>
      <point x="176" y="1116"/>
      <point x="176" y="833" type="curve" smooth="yes"/>
      <point x="176" y="752"/>
      <point x="189" y="674"/>
      <point x="210" y="599" type="curve" smooth="yes"/>
      <point x="257" y="441"/>
      <point x="341" y="309"/>
      <point x="448" y="206" type="curve" smooth="yes"/>
      <point x="601" y="59"/>
      <point x="816" y="-57"/>
    </contour>
    <contour>
      <point x="1105" y="81" type="curve" smooth="yes"/>
      <point x="867" y="81"/>
      <point x="676" y="173"/>
      <point x="547" y="298" type="curve" smooth="yes"/>
      <point x="422" y="418"/>
      <point x="322" y="599"/>
      <point x="322" y="835" type="curve" smooth="yes"/>
      <point x="322" y="1068"/>
      <point x="422" y="1248"/>
      <point x="547" y="1369" type="curve" smooth="yes"/>
      <point x="675" y="1492"/>
      <point x="863" y="1585"/>
      <point x="1100" y="1585" type="curve" smooth="yes"/>
      <point x="1337" y="1585"/>
      <point x="1528" y="1491"/>
      <point x="1656" y="1367" type="curve" smooth="yes"/>
      <point x="1780" y="1247"/>
      <point x="1879" y="1066"/>
      <point x="1879" y="832" type="curve" smooth="yes"/>
      <point x="1879" y="591"/>
      <point x="1782" y="418"/>
      <point x="1657" y="298" type="curve" smooth="yes"/>
      <point x="1529" y="174"/>
      <point x="1349" y="81"/>
    </contour>
    <contour>
      <point x="910" y="900" type="line"/>
      <point x="909" y="1239" type="line"/>
      <point x="1051" y="1239" type="line" smooth="yes"/>
      <point x="1227" y="1239"/>
      <point x="1371" y="1238"/>
      <point x="1371" y="1061" type="curve" smooth="yes"/>
      <point x="1371" y="902"/>
      <point x="1211" y="900"/>
      <point x="1053" y="900" type="curve" smooth="yes"/>
    </contour>
  </outline>
</glyph>
<glyph name="macron" format="1">
  <advance width="1249"/>
  <unicode hex="00AF"/>
  <outline>
    <contour>
      <point x="136" y="2084" type="line"/>
      <point x="791" y="2084" type="line"/>
      <point x="791" y="2241" type="line"/>
      <point x="136" y="2241" type="line"/>
    </contour>
    <contour>
      <point x="463" y="0" type="move" smooth="yes"/>
    </contour>
  </outline>
</glyph>
<glyph name="degree" format="1">
  <advance width="1448"/>
  <unicode hex="00B0"/>
  <outline>
    <contour>
      <point x="528" y="1643" type="curve" smooth="yes"/>
      <point x="498" y="1643"/>
      <point x="468" y="1648"/>
      <point x="441" y="1658" type="curve" smooth="yes"/>
      <point x="369" y="1687"/>
      <point x="307" y="1751"/>
      <point x="307" y="1853" type="curve" smooth="yes"/>
      <point x="307" y="1882"/>
      <point x="314" y="1911"/>
      <point x="325" y="1937" type="curve"/>
      <point x="358" y="2008"/>
      <point x="430" y="2061"/>
      <point x="528" y="2061" type="curve" smooth="yes"/>
      <point x="558" y="2061"/>
      <point x="586" y="2055"/>
      <point x="613" y="2045" type="curve" smooth="yes"/>
      <point x="685" y="2017"/>
      <point x="751" y="1954"/>
      <point x="751" y="1853" type="curve" smooth="yes"/>
      <point x="751" y="1824"/>
      <point x="745" y="1796"/>
      <point x="733" y="1770" type="curve" smooth="yes"/>
      <point x="701" y="1699"/>
      <point x="628" y="1643"/>
    </contour>
    <contour>
      <point x="528" y="1506" type="curve" smooth="yes"/>
      <point x="578" y="1506"/>
      <point x="623" y="1514"/>
      <point x="668" y="1533" type="curve" smooth="yes"/>
      <point x="785" y="1581"/>
      <point x="894" y="1687"/>
      <point x="894" y="1852" type="curve" smooth="yes"/>
      <point x="894" y="1900"/>
      <point x="886" y="1944"/>
      <point x="866" y="1987" type="curve" smooth="yes"/>
      <point x="812" y="2102"/>
      <point x="693" y="2197"/>
      <point x="528" y="2197" type="curve" smooth="yes"/>
      <point x="479" y="2197"/>
      <point x="432" y="2188"/>
      <point x="387" y="2171" type="curve"/>
      <point x="270" y="2123"/>
      <point x="164" y="2015"/>
      <point x="164" y="1852" type="curve" smooth="yes"/>
      <point x="164" y="1804"/>
      <point x="172" y="1760"/>
      <point x="192" y="1718" type="curve" smooth="yes"/>
      <point x="246" y="1602"/>
      <point x="364" y="1506"/>
    </contour>
  </outline>
</glyph>
<glyph name="plusminus" format="1">
  <advance width="2502"/>
  <unicode hex="00B1"/>
  <outline>
    <contour>
      <point x="848" y="262" type="line"/>
      <point x="1021" y="262" type="line"/>
      <point x="1021" y="699" type="line"/>
      <point x="1533" y="699" type="line"/>
      <point x="1533" y="861" type="line"/>
      <point x="1016" y="861" type="line"/>
      <point x="1016" y="1299" type="line"/>
      <point x="846" y="1299" type="line"/>
      <point x="846" y="861" type="line"/>
      <point x="323" y="861" type="line"/>
      <point x="337" y="699" type="line"/>
      <point x="848" y="699" type="line"/>
    </contour>
    <contour>
      <point x="337" y="0" type="line"/>
      <point x="1538" y="0" type="line"/>
      <point x="1538" y="163" type="line"/>
      <point x="337" y="163" type="line"/>
    </contour>
  </outline>
</glyph>
<glyph name="uni00B2" format="1">
  <advance width="2042"/>
  <unicode hex="00B2"/>
  <outline>
    <contour>
      <point x="487" y="1064" type="line"/>
      <point x="1112" y="1064" type="line"/>
      <point x="1112" y="1202" type="line"/>
      <point x="694" y="1202" type="line"/>
      <point x="799" y="1296"/>
      <point x="907" y="1386"/>
      <point x="992" y="1491" type="curve" smooth="yes"/>
      <point x="1053" y="1568"/>
      <point x="1112" y="1655"/>
      <point x="1112" y="1778" type="curve" smooth="yes"/>
      <point x="1112" y="1819"/>
      <point x="1104" y="1855"/>
      <point x="1089" y="1889" type="curve"/>
      <point x="1044" y="1984"/>
      <point x="947" y="2045"/>
      <point x="811" y="2045" type="curve" smooth="yes"/>
      <point x="653" y="2045"/>
      <point x="544" y="1964"/>
      <point x="495" y="1846" type="curve"/>
      <point x="593" y="1754" type="line"/>
      <point x="631" y="1837"/>
      <point x="695" y="1908"/>
      <point x="804" y="1908" type="curve" smooth="yes"/>
      <point x="895" y="1908"/>
      <point x="965" y="1865"/>
      <point x="965" y="1777" type="curve" smooth="yes"/>
      <point x="965" y="1744"/>
      <point x="953" y="1708"/>
      <point x="929" y="1668" type="curve" smooth="yes"/>
      <point x="905" y="1628"/>
      <point x="873" y="1584"/>
      <point x="831" y="1536" type="curve" smooth="yes"/>
      <point x="729" y="1421"/>
      <point x="609" y="1308"/>
      <point x="487" y="1194" type="curve"/>
    </contour>
  </outline>
</glyph>
<glyph name="uni00B3" format="1">
  <advance width="2042"/>
  <unicode hex="00B3"/>
  <outline>
    <contour>
      <point x="685" y="1032" type="curve" smooth="yes"/>
      <point x="731" y="1032"/>
      <point x="776" y="1039"/>
      <point x="817" y="1052" type="curve" smooth="yes"/>
      <point x="929" y="1088"/>
      <point x="1028" y="1176"/>
      <point x="1028" y="1324" type="curve" smooth="yes"/>
      <point x="1028" y="1444"/>
      <point x="966" y="1517"/>
      <point x="880" y="1556" type="curve"/>
      <point x="951" y="1595"/>
      <point x="1003" y="1664"/>
      <point x="1003" y="1768" type="curve" smooth="yes"/>
      <point x="1003" y="1812"/>
      <point x="995" y="1850"/>
      <point x="977" y="1883" type="curve" smooth="yes"/>
      <point x="929" y="1974"/>
      <point x="828" y="2036"/>
      <point x="692" y="2036" type="curve" smooth="yes"/>
      <point x="573" y="2036"/>
      <point x="466" y="1981"/>
      <point x="404" y="1917" type="curve"/>
      <point x="470" y="1805" type="line"/>
      <point x="527" y="1851"/>
      <point x="595" y="1896"/>
      <point x="689" y="1896" type="curve" smooth="yes"/>
      <point x="782" y="1896"/>
      <point x="851" y="1860"/>
      <point x="851" y="1765" type="curve" smooth="yes"/>
      <point x="851" y="1647"/>
      <point x="742" y="1623"/>
      <point x="626" y="1623" type="curve" smooth="yes"/>
      <point x="569" y="1623" type="line"/>
      <point x="569" y="1484" type="line"/>
      <point x="599" y="1484" type="line"/>
      <point x="634" y="1484" type="line" smooth="yes"/>
      <point x="763" y="1484"/>
      <point x="879" y="1458"/>
      <point x="879" y="1327" type="curve" smooth="yes"/>
      <point x="879" y="1219"/>
      <point x="787" y="1167"/>
      <point x="680" y="1167" type="curve" smooth="yes"/>
      <point x="606" y="1167"/>
      <point x="536" y="1198"/>
      <point x="472" y="1258" type="curve"/>
      <point x="404" y="1146" type="line"/>
      <point x="469" y="1079"/>
      <point x="562" y="1032"/>
    </contour>
  </outline>
</glyph>
<glyph name="acute" format="1">
  <advance width="1041"/>
  <unicode hex="00B4"/>
  <outline>
    <contour>
      <point x="300" y="2064" type="line"/>
      <point x="518" y="2064" type="line"/>
      <point x="871" y="2440" type="line"/>
      <point x="560" y="2440" type="line"/>
    </contour>
    <contour>
      <point x="585" y="0" type="move" smooth="yes"/>
    </contour>
  </outline>
</glyph>
<glyph name="paragraph" format="1">
  <advance width="2083"/>
  <unicode hex="00B6"/>
  <outline>
    <contour>
      <point x="566" y="-261" type="line"/>
      <point x="731" y="-261" type="line"/>
      <point x="731" y="1471" type="line"/>
      <point x="969" y="1471" type="line"/>
      <point x="969" y="-261" type="line"/>
      <point x="1117" y="-261" type="line"/>
      <point x="1117" y="1471" type="line"/>
      <point x="1216" y="1471" type="line"/>
      <point x="1216" y="1617" type="line"/>
      <point x="775" y="1617" type="line" smooth="yes"/>
      <point x="473" y="1617"/>
      <point x="183" y="1550"/>
      <point x="183" y="1240" type="curve" smooth="yes"/>
      <point x="183" y="1180"/>
      <point x="194" y="1125"/>
      <point x="214" y="1076" type="curve" smooth="yes"/>
      <point x="270" y="943"/>
      <point x="389" y="839"/>
      <point x="566" y="836" type="curve"/>
    </contour>
  </outline>
</glyph>
<glyph name="periodcentered" format="1">
  <advance width="761"/>
  <unicode hex="00B7"/>
  <outline>
    <contour>
      <point x="131" y="904" type="line"/>
      <point x="379" y="904" type="line"/>
      <point x="379" y="1151" type="line"/>
      <point x="131" y="1151" type="line"/>
    </contour>
  </outline>
</glyph>
<glyph name="cedilla" format="1">
  <advance width="907"/>
  <unicode hex="00B8"/>
  <outline>
    <contour>
      <point x="290" y="-697" type="curve" smooth="yes"/>
      <point x="429" y="-697"/>
      <point x="566" y="-654"/>
      <point x="566" y="-513" type="curve" smooth="yes"/>
      <point x="566" y="-387"/>
      <point x="455" y="-344"/>
      <point x="336" y="-338" type="curve"/>
      <point x="327" y="-338" type="line"/>
      <point x="346" y="-212" type="line"/>
      <point x="236" y="-212" type="line"/>
      <point x="198" y="-435" type="line"/>
      <point x="235" y="-433" type="line"/>
      <point x="248" y="-431"/>
      <point x="267" y="-430"/>
      <point x="277" y="-430" type="curve" smooth="yes"/>
      <point x="346" y="-430"/>
      <point x="402" y="-446"/>
      <point x="402" y="-516" type="curve" smooth="yes"/>
      <point x="402" y="-581"/>
      <point x="346" y="-600"/>
      <point x="271" y="-600" type="curve" smooth="yes"/>
      <point x="210" y="-600"/>
      <point x="155" y="-586"/>
      <point x="98" y="-572" type="curve"/>
      <point x="89" y="-672" type="line"/>
      <point x="151" y="-685"/>
      <point x="221" y="-697"/>
    </contour>
    <contour>
      <point x="327" y="0" type="move" smooth="yes"/>
    </contour>
  </outline>
</glyph>
<glyph name="uni00B9" format="1">
  <advance width="2042"/>
  <unicode hex="00B9"/>
  <outline>
    <contour>
      <point x="447" y="1064" type="line"/>
      <point x="864" y="1064" type="line"/>
      <point x="864" y="1201" type="line"/>
      <point x="724" y="1201" type="line"/>
      <point x="724" y="2030" type="line"/>
      <point x="604" y="2012" type="line"/>
      <point x="545" y="1976"/>
      <point x="487" y="1945"/>
      <point x="411" y="1920" type="curve"/>
      <point x="410" y="1767" type="line"/>
      <point x="468" y="1789"/>
      <point x="533" y="1819"/>
      <point x="584" y="1847" type="curve"/>
      <point x="584" y="1726" type="line" smooth="yes"/>
      <point x="584" y="1665"/>
      <point x="585" y="1608"/>
      <point x="585" y="1538" type="curve" smooth="yes"/>
      <point x="585" y="1204" type="line"/>
      <point x="447" y="1204" type="line"/>
    </contour>
  </outline>
</glyph>
<glyph name="ordmasculine" format="1">
  <advance width="1414"/>
  <unicode hex="00BA"/>
  <outline>
    <contour>
      <point x="506" y="1351" type="curve" smooth="yes"/>
      <point x="573" y="1351"/>
      <point x="631" y="1362"/>
      <point x="682" y="1384" type="curve" smooth="yes"/>
      <point x="819" y="1443"/>
      <point x="916" y="1570"/>
      <point x="916" y="1766" type="curve" smooth="yes"/>
      <point x="916" y="1824"/>
      <point x="907" y="1879"/>
      <point x="890" y="1930" type="curve" smooth="yes"/>
      <point x="837" y="2083"/>
      <point x="707" y="2184"/>
      <point x="506" y="2184" type="curve" smooth="yes"/>
      <point x="440" y="2184"/>
      <point x="381" y="2172"/>
      <point x="330" y="2151" type="curve" smooth="yes"/>
      <point x="192" y="2092"/>
      <point x="92" y="1966"/>
      <point x="92" y="1770" type="curve" smooth="yes"/>
      <point x="92" y="1509"/>
      <point x="249" y="1351"/>
    </contour>
    <contour>
      <point x="506" y="1477" type="curve" smooth="yes"/>
      <point x="338" y="1477"/>
      <point x="252" y="1598"/>
      <point x="252" y="1769" type="curve" smooth="yes"/>
      <point x="252" y="1935"/>
      <point x="340" y="2058"/>
      <point x="503" y="2058" type="curve" smooth="yes"/>
      <point x="669" y="2058"/>
      <point x="759" y="1935"/>
      <point x="759" y="1765" type="curve" smooth="yes"/>
      <point x="759" y="1600"/>
      <point x="668" y="1477"/>
    </contour>
  </outline>
</glyph>
<glyph name="guillemotright" format="1">
  <advance width="1984"/>
  <unicode hex="00BB"/>
  <outline>
    <contour>
      <point x="284" y="301" type="line"/>
      <point x="467" y="301" type="line"/>
      <point x="782" y="737" type="line"/>
      <point x="472" y="1174" type="line"/>
      <point x="291" y="1174" type="line"/>
      <point x="587" y="737" type="line"/>
    </contour>
    <contour>
      <point x="739" y="301" type="line"/>
      <point x="919" y="301" type="line"/>
      <point x="1235" y="737" type="line"/>
      <point x="925" y="1174" type="line"/>
      <point x="747" y="1174" type="line"/>
      <point x="1038" y="737" type="line"/>
    </contour>
  </outline>
</glyph>
<glyph name="onequarter" format="1">
  <advance width="4215"/>
  <unicode hex="00BC"/>
  <outline>
    <contour>
      <point x="-578" y="0" type="line"/>
      <point x="-406" y="0" type="line"/>
      <point x="502" y="1482" type="line"/>
      <point x="502" y="1413" type="line"/>
      <point x="559" y="1435"/>
      <point x="625" y="1465"/>
      <point x="676" y="1492" type="curve"/>
      <point x="676" y="1372" type="line" smooth="yes"/>
      <point x="676" y="1311"/>
      <point x="677" y="1253"/>
      <point x="677" y="1183" type="curve" smooth="yes"/>
      <point x="677" y="849" type="line"/>
      <point x="537" y="849" type="line"/>
      <point x="537" y="710" type="line"/>
      <point x="956" y="710" type="line"/>
      <point x="956" y="845" type="line"/>
      <point x="816" y="845" type="line"/>
      <point x="816" y="1675" type="line"/>
      <point x="695" y="1658" type="line"/>
      <point x="655" y="1632"/>
      <point x="615" y="1610"/>
      <point x="569" y="1590" type="curve"/>
      <point x="628" y="1686" type="line"/>
      <point x="457" y="1686" type="line"/>
    </contour>
    <contour>
      <point x="1998" y="722" type="line"/>
      <point x="2135" y="722" type="line"/>
      <point x="2135" y="943" type="line"/>
      <point x="2274" y="943" type="line"/>
      <point x="2263" y="1069" type="line"/>
      <point x="2138" y="1069" type="line"/>
      <point x="2138" y="1658" type="line"/>
      <point x="1985" y="1658" type="line"/>
      <point x="1566" y="1050" type="line"/>
      <point x="1566" y="943" type="line"/>
      <point x="1998" y="943" type="line"/>
    </contour>
    <contour>
      <point x="1725" y="1069" type="line"/>
      <point x="1998" y="1461" type="line"/>
      <point x="1998" y="1069" type="line"/>
    </contour>
  </outline>
</glyph>
<glyph name="onehalf" format="1">
  <advance width="4719"/>
  <unicode hex="00BD"/>
  <outline>
    <contour>
      <point x="553" y="710" type="line"/>
      <point x="1177" y="710" type="line"/>
      <point x="1177" y="848" type="line"/>
      <point x="760" y="848" type="line"/>
      <point x="865" y="942"/>
      <point x="972" y="1032"/>
      <point x="1057" y="1136" type="curve" smooth="yes"/>
      <point x="1119" y="1213"/>
      <point x="1179" y="1301"/>
      <point x="1179" y="1424" type="curve" smooth="yes"/>
      <point x="1179" y="1465"/>
      <point x="1171" y="1501"/>
      <point x="1156" y="1535" type="curve"/>
      <point x="1111" y="1630"/>
      <point x="1013" y="1691"/>
      <point x="878" y="1691" type="curve" smooth="yes"/>
      <point x="719" y="1691"/>
      <point x="612" y="1609"/>
      <point x="562" y="1491" type="curve"/>
      <point x="659" y="1399" type="line"/>
      <point x="697" y="1482"/>
      <point x="763" y="1554"/>
      <point x="872" y="1554" type="curve" smooth="yes"/>
      <point x="962" y="1554"/>
      <point x="1031" y="1511"/>
      <point x="1031" y="1422" type="curve" smooth="yes"/>
      <point x="1031" y="1389"/>
      <point x="1019" y="1353"/>
      <point x="995" y="1313" type="curve" smooth="yes"/>
      <point x="972" y="1273"/>
      <point x="939" y="1229"/>
      <point x="897" y="1181" type="curve" smooth="yes"/>
      <point x="795" y="1067"/>
      <point x="674" y="953"/>
      <point x="553" y="839" type="curve"/>
    </contour>
    <contour>
      <point x="1900" y="710" type="line"/>
      <point x="2318" y="710" type="line"/>
      <point x="2318" y="845" type="line"/>
      <point x="2177" y="845" type="line"/>
      <point x="2177" y="1675" type="line"/>
      <point x="2057" y="1658" type="line"/>
      <point x="1998" y="1621"/>
      <point x="1943" y="1590"/>
      <point x="1866" y="1565" type="curve"/>
      <point x="1864" y="1413" type="line"/>
      <point x="1922" y="1435"/>
      <point x="1988" y="1465"/>
      <point x="2039" y="1492" type="curve"/>
      <point x="2039" y="1372" type="line" smooth="yes"/>
      <point x="2039" y="1311"/>
      <point x="2040" y="1253"/>
      <point x="2040" y="1183" type="curve" smooth="yes"/>
      <point x="2040" y="849" type="line"/>
      <point x="1900" y="849" type="line"/>
    </contour>
    <contour>
      <point x="-578" y="0" type="line"/>
      <point x="-406" y="0" type="line"/>
      <point x="628" y="1686" type="line"/>
      <point x="457" y="1686" type="line"/>
    </contour>
  </outline>
</glyph>
<glyph name="threequarters" format="1">
  <advance width="4215"/>
  <unicode hex="00BE"/>
  <outline>
    <contour>
      <point x="-578" y="0" type="line"/>
      <point x="-406" y="0" type="line"/>
      <point x="527" y="1522" type="line"/>
      <point x="565" y="1461" type="line"/>
      <point x="621" y="1507"/>
      <point x="690" y="1552"/>
      <point x="784" y="1552" type="curve" smooth="yes"/>
      <point x="877" y="1552"/>
      <point x="945" y="1516"/>
      <point x="945" y="1421" type="curve" smooth="yes"/>
      <point x="945" y="1303"/>
      <point x="836" y="1279"/>
      <point x="720" y="1279" type="curve" smooth="yes"/>
      <point x="663" y="1279" type="line"/>
      <point x="663" y="1140" type="line"/>
      <point x="693" y="1140" type="line"/>
      <point x="727" y="1140" type="line" smooth="yes"/>
      <point x="856" y="1140"/>
      <point x="973" y="1114"/>
      <point x="973" y="983" type="curve" smooth="yes"/>
      <point x="973" y="875"/>
      <point x="881" y="823"/>
      <point x="774" y="823" type="curve" smooth="yes"/>
      <point x="699" y="823"/>
      <point x="630" y="854"/>
      <point x="566" y="914" type="curve"/>
      <point x="497" y="802" type="line"/>
      <point x="562" y="735"/>
      <point x="656" y="688"/>
      <point x="779" y="688" type="curve" smooth="yes"/>
      <point x="825" y="688"/>
      <point x="870" y="695"/>
      <point x="911" y="708" type="curve" smooth="yes"/>
      <point x="1023" y="744"/>
      <point x="1121" y="832"/>
      <point x="1121" y="980" type="curve" smooth="yes"/>
      <point x="1121" y="1100"/>
      <point x="1060" y="1173"/>
      <point x="975" y="1212" type="curve"/>
      <point x="1045" y="1251"/>
      <point x="1098" y="1320"/>
      <point x="1098" y="1424" type="curve" smooth="yes"/>
      <point x="1098" y="1468"/>
      <point x="1089" y="1506"/>
      <point x="1071" y="1539" type="curve" smooth="yes"/>
      <point x="1023" y="1630"/>
      <point x="922" y="1692"/>
      <point x="786" y="1692" type="curve" smooth="yes"/>
      <point x="721" y="1692"/>
      <point x="658" y="1675"/>
      <point x="605" y="1649" type="curve"/>
      <point x="628" y="1686" type="line"/>
      <point x="457" y="1686" type="line"/>
    </contour>
    <contour>
      <point x="1998" y="722" type="line"/>
      <point x="2135" y="722" type="line"/>
      <point x="2135" y="943" type="line"/>
      <point x="2274" y="943" type="line"/>
      <point x="2263" y="1069" type="line"/>
      <point x="2138" y="1069" type="line"/>
      <point x="2138" y="1658" type="line"/>
      <point x="1985" y="1658" type="line"/>
      <point x="1566" y="1050" type="line"/>
      <point x="1566" y="943" type="line"/>
      <point x="1998" y="943" type="line"/>
    </contour>
    <contour>
      <point x="1725" y="1069" type="line"/>
      <point x="1998" y="1461" type="line"/>
      <point x="1998" y="1069" type="line"/>
    </contour>
  </outline>
</glyph>
<glyph name="questiondown" format="1">
  <advance width="1772"/>
  <unicode hex="00BF"/>
  <outline>
    <contour>
      <point x="812" y="-20" type="curve" smooth="yes"/>
      <point x="934" y="-20"/>
      <point x="1042" y="11"/>
      <point x="1134" y="57" type="curve"/>
      <point x="1134" y="229" type="line"/>
      <point x="1053" y="182"/>
      <point x="955" y="147"/>
      <point x="836" y="147" type="curve" smooth="yes"/>
      <point x="660" y="147"/>
      <point x="508" y="215"/>
      <point x="508" y="395" type="curve" smooth="yes"/>
      <point x="508" y="442"/>
      <point x="519" y="485"/>
      <point x="540" y="525" type="curve" smooth="yes"/>
      <point x="610" y="654"/>
      <point x="736" y="741"/>
      <point x="834" y="848" type="curve" smooth="yes"/>
      <point x="889" y="909"/>
      <point x="948" y="986"/>
      <point x="948" y="1094" type="curve" smooth="yes"/>
      <point x="948" y="1152"/>
      <point x="942" y="1227"/>
      <point x="936" y="1284" type="curve"/>
      <point x="748" y="1284" type="line"/>
      <point x="758" y="1225" type="line"/>
      <point x="765" y="1195"/>
      <point x="768" y="1150"/>
      <point x="768" y="1114" type="curve" smooth="yes"/>
      <point x="768" y="1077"/>
      <point x="756" y="1040"/>
      <point x="734" y="1003" type="curve" smooth="yes"/>
      <point x="655" y="874"/>
      <point x="527" y="774"/>
      <point x="433" y="657" type="curve" smooth="yes"/>
      <point x="376" y="586"/>
      <point x="314" y="502"/>
      <point x="314" y="385" type="curve" smooth="yes"/>
      <point x="314" y="317"/>
      <point x="327" y="259"/>
      <point x="352" y="208" type="curve" smooth="yes"/>
      <point x="427" y="59"/>
      <point x="592" y="-20"/>
    </contour>
    <contour>
      <point x="719" y="1483" type="line"/>
      <point x="967" y="1483" type="line"/>
      <point x="967" y="1729" type="line"/>
      <point x="719" y="1729" type="line"/>
    </contour>
  </outline>
</glyph>
<glyph name="AE" format="1">
  <advance width="3481"/>
  <unicode hex="00C6"/>
  <outline>
    <contour>
      <point x="9" y="0" type="line"/>
      <point x="233" y="0" type="line"/>
      <point x="491" y="467" type="line"/>
      <point x="1231" y="467" type="line"/>
      <point x="1267" y="0" type="line"/>
      <point x="2179" y="0" type="line"/>
      <point x="2179" y="174" type="line"/>
      <point x="1441" y="174" type="line"/>
      <point x="1394" y="789" type="line"/>
      <point x="2105" y="789" type="line"/>
      <point x="2105" y="962" type="line"/>
      <point x="1373" y="962" type="line"/>
      <point x="1330" y="1536" type="line"/>
      <point x="2153" y="1536" type="line"/>
      <point x="2153" y="1710" type="line"/>
      <point x="960" y="1710" type="line"/>
    </contour>
    <contour>
      <point x="582" y="641" type="line"/>
      <point x="1083" y="1536" type="line"/>
      <point x="1141" y="1536" type="line"/>
      <point x="1210" y="641" type="line"/>
    </contour>
    <contour>
      <point x="1741" y="0" type="move" smooth="yes"/>
    </contour>
  </outline>
</glyph>
<glyph name="multiply" format="1">
  <advance width="2502"/>
  <unicode hex="00D7"/>
  <outline>
    <contour>
      <point x="671" y="271" type="line"/>
      <point x="1011" y="619" type="line"/>
      <point x="1350" y="271" type="line"/>
      <point x="1469" y="393" type="line"/>
      <point x="1129" y="741" type="line"/>
      <point x="1469" y="1089" type="line"/>
      <point x="1350" y="1211" type="line"/>
      <point x="1011" y="862" type="line"/>
      <point x="671" y="1211" type="line"/>
      <point x="553" y="1090" type="line"/>
      <point x="892" y="741" type="line"/>
      <point x="553" y="392" type="line"/>
    </contour>
  </outline>
</glyph>
<glyph name="Oslash" format="1">
  <advance width="2855"/>
  <unicode hex="00D8"/>
  <outline>
    <contour>
      <point x="663" y="-291" type="line"/>
      <point x="748" y="-86" type="line"/>
      <point x="833" y="-111"/>
      <point x="924" y="-123"/>
      <point x="1021" y="-123" type="curve" smooth="yes"/>
      <point x="1559" y="-123"/>
      <point x="1836" y="300"/>
      <point x="1836" y="760" type="curve" smooth="yes"/>
      <point x="1836" y="1166"/>
      <point x="1673" y="1426"/>
      <point x="1426" y="1553" type="curve"/>
      <point x="1512" y="1760" type="line"/>
      <point x="1369" y="1811" type="line"/>
      <point x="1285" y="1609" type="line"/>
      <point x="1202" y="1633"/>
      <point x="1114" y="1644"/>
      <point x="1021" y="1644" type="curve" smooth="yes"/>
      <point x="479" y="1644"/>
      <point x="200" y="1220"/>
      <point x="200" y="760" type="curve" smooth="yes"/>
      <point x="200" y="356"/>
      <point x="363" y="96"/>
      <point x="610" y="-31" type="curve"/>
      <point x="525" y="-239" type="line"/>
    </contour>
    <contour>
      <point x="682" y="141" type="line"/>
      <point x="499" y="263"/>
      <point x="410" y="492"/>
      <point x="410" y="759" type="curve" smooth="yes"/>
      <point x="410" y="1227"/>
      <point x="703" y="1470"/>
      <point x="1021" y="1470" type="curve" smooth="yes"/>
      <point x="1093" y="1470"/>
      <point x="1159" y="1460"/>
      <point x="1217" y="1442" type="curve"/>
    </contour>
    <contour>
      <point x="1021" y="47" type="curve" smooth="yes"/>
      <point x="945" y="47"/>
      <point x="876" y="57"/>
      <point x="815" y="77" type="curve"/>
      <point x="1353" y="1377" type="line"/>
      <point x="1533" y="1255"/>
      <point x="1620" y="1026"/>
      <point x="1620" y="759" type="curve" smooth="yes"/>
      <point x="1620" y="290"/>
      <point x="1332" y="47"/>
    </contour>
    <contour>
      <point x="1428" y="0" type="move" smooth="yes"/>
    </contour>
  </outline>
</glyph>
<glyph name="Thorn" format="1">
  <advance width="2186"/>
  <unicode hex="00DE"/>
  <outline>
    <contour>
      <point x="349" y="0" type="line"/>
      <point x="546" y="0" type="line"/>
      <point x="546" y="520" type="line"/>
      <point x="800" y="520" type="line" smooth="yes"/>
      <point x="991" y="520"/>
      <point x="1161" y="564"/>
      <point x="1282" y="641" type="curve"/>
      <point x="1399" y="718"/>
      <point x="1490" y="839"/>
      <point x="1490" y="1029" type="curve" smooth="yes"/>
      <point x="1490" y="1446"/>
      <point x="1146" y="1540"/>
      <point x="739" y="1540" type="curve" smooth="yes"/>
      <point x="546" y="1540" type="line"/>
      <point x="546" y="1710" type="line"/>
      <point x="349" y="1710" type="line"/>
    </contour>
    <contour>
      <point x="546" y="695" type="line"/>
      <point x="546" y="1367" type="line"/>
      <point x="789" y="1367" type="line" smooth="yes"/>
      <point x="1064" y="1367"/>
      <point x="1279" y="1308"/>
      <point x="1279" y="1026" type="curve" smooth="yes"/>
      <point x="1279" y="969"/>
      <point x="1268" y="918"/>
      <point x="1247" y="877" type="curve" smooth="yes"/>
      <point x="1182" y="751"/>
      <point x="1033" y="695"/>
      <point x="844" y="695" type="curve" smooth="yes"/>
    </contour>
  </outline>
</glyph>
<glyph name="germandbls" format="1">
  <advance width="2157"/>
  <unicode hex="00DF"/>
  <outline>
    <contour>
      <point x="1006" y="-40" type="curve" smooth="yes"/>
      <point x="1063" y="-40"/>
      <point x="1116" y="-30"/>
      <point x="1169" y="-10" type="curve" smooth="yes"/>
      <point x="1317" y="48"/>
      <point x="1442" y="179"/>
      <point x="1442" y="387" type="curve" smooth="yes"/>
      <point x="1442" y="464"/>
      <point x="1428" y="532"/>
      <point x="1396" y="590" type="curve"/>
      <point x="1306" y="763"/>
      <point x="1125" y="864"/>
      <point x="926" y="924" type="curve" smooth="yes"/>
      <point x="905" y="931"/>
      <point x="893" y="937"/>
      <point x="893" y="944" type="curve" smooth="yes"/>
      <point x="893" y="958"/>
      <point x="912" y="966"/>
      <point x="923" y="970" type="curve" smooth="yes"/>
      <point x="1002" y="1006"/>
      <point x="1075" y="1062"/>
      <point x="1133" y="1123" type="curve"/>
      <point x="1193" y="1184"/>
      <point x="1257" y="1269"/>
      <point x="1257" y="1386" type="curve" smooth="yes"/>
      <point x="1257" y="1438"/>
      <point x="1247" y="1486"/>
      <point x="1226" y="1532" type="curve" smooth="yes"/>
      <point x="1158" y="1677"/>
      <point x="1003" y="1761"/>
      <point x="791" y="1761" type="curve" smooth="yes"/>
      <point x="712" y="1761"/>
      <point x="642" y="1749"/>
      <point x="580" y="1724" type="curve" smooth="yes"/>
      <point x="404" y="1653"/>
      <point x="298" y="1493"/>
      <point x="298" y="1244" type="curve" smooth="yes"/>
      <point x="301" y="-14" type="line"/>
      <point x="489" y="-14" type="line"/>
      <point x="489" y="105"/>
      <point x="488" y="241"/>
      <point x="488" y="370" type="curve" smooth="yes"/>
      <point x="488" y="515"/>
      <point x="487" y="676"/>
      <point x="487" y="821" type="curve" smooth="yes"/>
      <point x="487" y="949"/>
      <point x="486" y="1087"/>
      <point x="486" y="1206" type="curve" smooth="yes"/>
      <point x="486" y="1429"/>
      <point x="573" y="1609"/>
      <point x="790" y="1609" type="curve" smooth="yes"/>
      <point x="936" y="1609"/>
      <point x="1042" y="1535"/>
      <point x="1042" y="1385" type="curve" smooth="yes"/>
      <point x="1042" y="1345"/>
      <point x="1036" y="1307"/>
      <point x="1021" y="1273" type="curve" smooth="yes"/>
      <point x="974" y="1162"/>
      <point x="879" y="1084"/>
      <point x="772" y="1034" type="curve"/>
      <point x="754" y="874" type="line"/>
      <point x="869" y="808"/>
      <point x="988" y="739"/>
      <point x="1081" y="655" type="curve" smooth="yes"/>
      <point x="1156" y="588"/>
      <point x="1228" y="500"/>
      <point x="1228" y="365" type="curve" smooth="yes"/>
      <point x="1228" y="218"/>
      <point x="1142" y="114"/>
      <point x="1002" y="114" type="curve" smooth="yes"/>
      <point x="877" y="114"/>
      <point x="783" y="189"/>
      <point x="714" y="272" type="curve"/>
      <point x="639" y="149" type="line"/>
      <point x="721" y="41"/>
      <point x="841" y="-40"/>
    </contour>
  </outline>
</glyph>
<glyph name="ae" format="1">
  <advance width="3102"/>
  <unicode hex="00E6"/>
  <outline>
    <contour>
      <point x="551" y="-49" type="curve" smooth="yes"/>
      <point x="781" y="-49"/>
      <point x="935" y="68"/>
      <point x="1024" y="215" type="curve"/>
      <point x="1099" y="67"/>
      <point x="1243" y="-46"/>
      <point x="1457" y="-46" type="curve" smooth="yes"/>
      <point x="1702" y="-46"/>
      <point x="1857" y="60"/>
      <point x="1951" y="225" type="curve"/>
      <point x="1852" y="327" type="line"/>
      <point x="1777" y="210"/>
      <point x="1645" y="116"/>
      <point x="1468" y="116" type="curve" smooth="yes"/>
      <point x="1224" y="116"/>
      <point x="1123" y="280"/>
      <point x="1123" y="527" type="curve" smooth="yes"/>
      <point x="1123" y="533"/>
      <point x="1124" y="542"/>
      <point x="1124" y="546" type="curve"/>
      <point x="1989" y="546" type="line"/>
      <point x="1989" y="599" type="line" smooth="yes"/>
      <point x="1989" y="977"/>
      <point x="1825" y="1220"/>
      <point x="1456" y="1220" type="curve" smooth="yes"/>
      <point x="1265" y="1220"/>
      <point x="1126" y="1124"/>
      <point x="1051" y="989" type="curve"/>
      <point x="1041" y="1029"/>
      <point x="1024" y="1063"/>
      <point x="997" y="1092" type="curve" smooth="yes"/>
      <point x="927" y="1166"/>
      <point x="812" y="1220"/>
      <point x="676" y="1220" type="curve" smooth="yes"/>
      <point x="451" y="1220"/>
      <point x="294" y="1140"/>
      <point x="215" y="989" type="curve"/>
      <point x="319" y="880" type="line"/>
      <point x="388" y="998"/>
      <point x="494" y="1060"/>
      <point x="665" y="1060" type="curve" smooth="yes"/>
      <point x="854" y="1060"/>
      <point x="929" y="915"/>
      <point x="929" y="721" type="curve" smooth="yes"/>
      <point x="929" y="706" type="line"/>
      <point x="554" y="706"/>
      <point x="139" y="701"/>
      <point x="139" y="315" type="curve" smooth="yes"/>
      <point x="139" y="258"/>
      <point x="150" y="207"/>
      <point x="171" y="162" type="curve"/>
      <point x="230" y="30"/>
      <point x="363" y="-49"/>
    </contour>
    <contour>
      <point x="590" y="112" type="curve" smooth="yes"/>
      <point x="444" y="112"/>
      <point x="332" y="175"/>
      <point x="332" y="324" type="curve" smooth="yes"/>
      <point x="332" y="372"/>
      <point x="346" y="410"/>
      <point x="370" y="439" type="curve" smooth="yes"/>
      <point x="446" y="528"/>
      <point x="602" y="539"/>
      <point x="763" y="543" type="curve"/>
      <point x="931" y="546" type="line"/>
      <point x="931" y="291"/>
      <point x="842" y="112"/>
    </contour>
    <contour>
      <point x="1126" y="707" type="line"/>
      <point x="1129" y="753"/>
      <point x="1141" y="798"/>
      <point x="1158" y="841" type="curve"/>
      <point x="1209" y="961"/>
      <point x="1311" y="1060"/>
      <point x="1477" y="1060" type="curve" smooth="yes"/>
      <point x="1694" y="1060"/>
      <point x="1771" y="912"/>
      <point x="1791" y="707" type="curve"/>
    </contour>
    <contour>
      <point x="1551" y="0" type="move" smooth="yes"/>
    </contour>
  </outline>
</glyph>
<glyph name="eth" format="1">
  <advance width="2042"/>
  <unicode hex="00F0"/>
  <outline>
    <contour>
      <point x="716" y="-40" type="curve" smooth="yes"/>
      <point x="809" y="-40"/>
      <point x="890" y="-22"/>
      <point x="963" y="12" type="curve"/>
      <point x="1201" y="129"/>
      <point x="1302" y="410"/>
      <point x="1302" y="776" type="curve" smooth="yes"/>
      <point x="1302" y="933"/>
      <point x="1281" y="1068"/>
      <point x="1247" y="1191" type="curve"/>
      <point x="1413" y="1191" type="line"/>
      <point x="1413" y="1352" type="line"/>
      <point x="1188" y="1352" type="line"/>
      <point x="1104" y="1531"/>
      <point x="980" y="1663"/>
      <point x="798" y="1736" type="curve"/>
      <point x="708" y="1637" type="line"/>
      <point x="834" y="1565"/>
      <point x="927" y="1479"/>
      <point x="996" y="1352" type="curve"/>
      <point x="760" y="1352" type="line"/>
      <point x="760" y="1191" type="line"/>
      <point x="1060" y="1191" type="line"/>
      <point x="1087" y="1087"/>
      <point x="1100" y="981"/>
      <point x="1101" y="847" type="curve"/>
      <point x="1101" y="836" type="line"/>
      <point x="1019" y="970"/>
      <point x="881" y="1040"/>
      <point x="674" y="1040" type="curve" smooth="yes"/>
      <point x="594" y="1040"/>
      <point x="522" y="1027"/>
      <point x="458" y="1001" type="curve" smooth="yes"/>
      <point x="279" y="928"/>
      <point x="151" y="764"/>
      <point x="151" y="510" type="curve" smooth="yes"/>
      <point x="151" y="433"/>
      <point x="163" y="359"/>
      <point x="190" y="293" type="curve"/>
      <point x="266" y="95"/>
      <point x="449" y="-40"/>
    </contour>
    <contour>
      <point x="707" y="126" type="curve" smooth="yes"/>
      <point x="652" y="126"/>
      <point x="605" y="134"/>
      <point x="561" y="153" type="curve" smooth="yes"/>
      <point x="438" y="207"/>
      <point x="353" y="329"/>
      <point x="353" y="504" type="curve" smooth="yes"/>
      <point x="353" y="736"/>
      <point x="477" y="875"/>
      <point x="705" y="875" type="curve" smooth="yes"/>
      <point x="900" y="875"/>
      <point x="1033" y="766"/>
      <point x="1084" y="616" type="curve"/>
      <point x="1084" y="588" type="line" smooth="yes"/>
      <point x="1084" y="327"/>
      <point x="963" y="126"/>
    </contour>
  </outline>
</glyph>
<glyph name="divide" format="1">
  <advance width="2502"/>
  <unicode hex="00F7"/>
  <outline>
    <contour>
      <point x="823" y="37" type="line"/>
      <point x="1071" y="37" type="line"/>
      <point x="1071" y="284" type="line"/>
      <point x="823" y="284" type="line"/>
    </contour>
    <contour>
      <point x="340" y="581" type="line"/>
      <point x="1540" y="581" type="line"/>
      <point x="1540" y="745" type="line"/>
      <point x="340" y="745" type="line"/>
    </contour>
    <contour>
      <point x="823" y="1037" type="line"/>
      <point x="1071" y="1037" type="line"/>
      <point x="1071" y="1284" type="line"/>
      <point x="823" y="1284" type="line"/>
    </contour>
  </outline>
</glyph>
<glyph name="oslash" format="1">
  <advance width="2125"/>
  <unicode hex="00F8"/>
  <outline>
    <component base="o"/>
    <contour>
      <point x="455" y="-460" type="line"/>
      <point x="1190" y="1309" type="line"/>
      <point x="1072" y="1346" type="line"/>
      <point x="342" y="-422" type="line"/>
    </contour>
    <contour>
      <point x="1063" y="0" type="move" smooth="yes"/>
    </contour>
  </outline>
</glyph>
<glyph name="thorn" format="1">
  <advance width="2126"/>
  <unicode hex="00FE"/>
  <outline>
    <contour>
      <point x="272" y="-752" type="line"/>
      <point x="460" y="-752" type="line"/>
      <point x="460" y="-92" type="line"/>
      <point x="558" y="-216"/>
      <point x="690" y="-278"/>
      <point x="855" y="-278" type="curve" smooth="yes"/>
      <point x="946" y="-278"/>
      <point x="1024" y="-259"/>
      <point x="1091" y="-224" type="curve" smooth="yes"/>
      <point x="1278" y="-126"/>
      <point x="1394" y="83"/>
      <point x="1394" y="368" type="curve" smooth="yes"/>
      <point x="1394" y="451"/>
      <point x="1382" y="529"/>
      <point x="1361" y="605" type="curve" smooth="yes"/>
      <point x="1298" y="825"/>
      <point x="1134" y="983"/>
      <point x="855" y="983" type="curve" smooth="yes"/>
      <point x="671" y="983"/>
      <point x="548" y="902"/>
      <point x="463" y="785" type="curve"/>
      <point x="463" y="1458" type="line"/>
      <point x="272" y="1458" type="line"/>
    </contour>
    <contour>
      <point x="828" y="-123" type="curve" smooth="yes"/>
      <point x="769" y="-123"/>
      <point x="715" y="-111"/>
      <point x="670" y="-89" type="curve" smooth="yes"/>
      <point x="535" y="-22"/>
      <point x="460" y="126"/>
      <point x="460" y="329" type="curve" smooth="yes"/>
      <point x="460" y="609"/>
      <point x="562" y="826"/>
      <point x="835" y="826" type="curve" smooth="yes"/>
      <point x="1093" y="826"/>
      <point x="1193" y="624"/>
      <point x="1193" y="361" type="curve" smooth="yes"/>
      <point x="1193" y="97"/>
      <point x="1087" y="-123"/>
    </contour>
  </outline>
</glyph>
<glyph name="hbar" format="1">
  <advance width="2102"/>
  <unicode hex="0127"/>
  <outline>
    <contour>
      <point x="1393" y="-44" type="curve"/>
      <point x="1423" y="110" type="line"/>
      <point x="1304" y="134"/>
      <point x="1266" y="230"/>
      <point x="1267" y="404" type="curve"/>
      <point x="1269" y="648" type="line"/>
      <point x="1272" y="990"/>
      <point x="1162" y="1216"/>
      <point x="849" y="1216" type="curve" smooth="yes"/>
      <point x="678" y="1216"/>
      <point x="527" y="1141"/>
      <point x="448" y="1006" type="curve"/>
      <point x="448" y="1777" type="line"/>
      <point x="260" y="1754" type="line"/>
      <point x="260" y="-15" type="line"/>
      <point x="448" y="-15" type="line"/>
      <point x="448" y="651" type="line" smooth="yes"/>
      <point x="448" y="892"/>
      <point x="635" y="1052"/>
      <point x="805" y="1052" type="curve" smooth="yes"/>
      <point x="1047" y="1052"/>
      <point x="1081" y="886"/>
      <point x="1081" y="645" type="curve"/>
      <point x="1078" y="399" type="line"/>
      <point x="1078" y="392" type="line" smooth="yes"/>
      <point x="1078" y="106"/>
      <point x="1167" y="-41"/>
    </contour>
    <contour>
      <point x="466" y="1892" type="line"/>
      <point x="1120" y="1892" type="line"/>
      <point x="1120" y="2049" type="line"/>
      <point x="466" y="2049" type="line"/>
    </contour>
  </outline>
</glyph>
<glyph name="dotlessi" format="1">
  <advance width="1035"/>
  <unicode hex="0131"/>
  <outline>
    <contour>
      <point x="568" y="-9" type="curve" smooth="yes"/>
      <point x="625" y="-9"/>
      <point x="696" y="6"/>
      <point x="758" y="32" type="curve"/>
      <point x="735" y="243" type="line"/>
      <point x="690" y="226"/>
      <point x="643" y="216"/>
      <point x="610" y="216" type="curve" smooth="yes"/>
      <point x="524" y="216"/>
      <point x="473" y="288"/>
      <point x="473" y="410" type="curve" smooth="yes"/>
      <point x="473" y="1201" type="line"/>
      <point x="180" y="1201" type="line"/>
      <point x="180" y="323" type="line" smooth="yes"/>
      <point x="180" y="114"/>
      <point x="324" y="-9"/>
    </contour>
    <contour>
      <point x="518" y="0" type="move" smooth="yes"/>
    </contour>
    <contour>
      <point x="932" y="10" type="move" smooth="yes"/>
    </contour>
  </outline>
</glyph>
<glyph name="kgreenlandic" format="1">
  <advance width="1857"/>
  <unicode hex="0138"/>
  <outline>
    <contour>
      <point x="306" y="0" type="line"/>
      <point x="494" y="0" type="line"/>
      <point x="494" y="553" type="line"/>
      <point x="1078" y="0" type="line"/>
      <point x="1329" y="0" type="line"/>
      <point x="1111" y="204"/>
      <point x="898" y="396"/>
      <point x="680" y="601" type="curve"/>
      <point x="1286" y="1205" type="line"/>
      <point x="1028" y="1205" type="line"/>
      <point x="494" y="654" type="line"/>
      <point x="494" y="1205" type="line"/>
      <point x="306" y="1205" type="line"/>
    </contour>
  </outline>
</glyph>
<glyph name="Lslash" format="1">
  <advance width="1922"/>
  <unicode hex="0141"/>
  <outline>
    <contour>
      <point x="240" y="0" type="line"/>
      <point x="1237" y="0" type="line"/>
      <point x="1237" y="174" type="line"/>
      <point x="437" y="174" type="line"/>
      <point x="437" y="836" type="line"/>
      <point x="763" y="1045" type="line"/>
      <point x="763" y="1206" type="line"/>
      <point x="437" y="997" type="line"/>
      <point x="437" y="1710" type="line"/>
      <point x="240" y="1710" type="line"/>
      <point x="240" y="871" type="line"/>
      <point x="26" y="735" type="line"/>
      <point x="26" y="574" type="line"/>
      <point x="240" y="710" type="line"/>
    </contour>
  </outline>
</glyph>
<glyph name="lslash" format="1">
  <advance width="862"/>
  <unicode hex="0142"/>
  <outline>
    <contour>
      <point x="192" y="0" type="line"/>
      <point x="381" y="0" type="line"/>
      <point x="381" y="925" type="line"/>
      <point x="577" y="1045" type="line"/>
      <point x="577" y="1206" type="line"/>
      <point x="381" y="1086" type="line"/>
      <point x="381" y="1752" type="line"/>
      <point x="192" y="1752" type="line"/>
      <point x="192" y="970" type="line"/>
      <point x="0" y="852" type="line"/>
      <point x="0" y="691" type="line"/>
      <point x="192" y="809" type="line"/>
    </contour>
  </outline>
</glyph>
<glyph name="OE" format="1">
  <advance width="3604"/>
  <unicode hex="0152"/>
  <outline>
    <contour>
      <point x="1015" y="-40" type="curve" smooth="yes"/>
      <point x="1176" y="-40"/>
      <point x="1290" y="24"/>
      <point x="1383" y="110" type="curve"/>
      <point x="1383" y="-14" type="line"/>
      <point x="2336" y="-14" type="line"/>
      <point x="2336" y="160" type="line"/>
      <point x="1580" y="160" type="line"/>
      <point x="1580" y="776" type="line"/>
      <point x="2259" y="776" type="line"/>
      <point x="2259" y="949" type="line"/>
      <point x="1580" y="949" type="line"/>
      <point x="1580" y="1522" type="line"/>
      <point x="2303" y="1522" type="line"/>
      <point x="2303" y="1696" type="line"/>
      <point x="1383" y="1696" type="line"/>
      <point x="1383" y="1608" type="line"/>
      <point x="1289" y="1676"/>
      <point x="1173" y="1728"/>
      <point x="1023" y="1728" type="curve" smooth="yes"/>
      <point x="893" y="1728"/>
      <point x="776" y="1706"/>
      <point x="674" y="1661" type="curve" smooth="yes"/>
      <point x="385" y="1536"/>
      <point x="195" y="1258"/>
      <point x="195" y="843" type="curve" smooth="yes"/>
      <point x="195" y="707"/>
      <point x="214" y="586"/>
      <point x="252" y="477" type="curve" smooth="yes"/>
      <point x="358" y="167"/>
      <point x="610" y="-40"/>
    </contour>
    <contour>
      <point x="1012" y="133" type="curve" smooth="yes"/>
      <point x="913" y="133"/>
      <point x="824" y="152"/>
      <point x="749" y="188" type="curve" smooth="yes"/>
      <point x="534" y="291"/>
      <point x="406" y="518"/>
      <point x="406" y="838" type="curve" smooth="yes"/>
      <point x="406" y="1044"/>
      <point x="468" y="1218"/>
      <point x="562" y="1338" type="curve" smooth="yes"/>
      <point x="659" y="1461"/>
      <point x="804" y="1554"/>
      <point x="1015" y="1554" type="curve" smooth="yes"/>
      <point x="1178" y="1554"/>
      <point x="1292" y="1499"/>
      <point x="1383" y="1418" type="curve"/>
      <point x="1383" y="298" type="line"/>
      <point x="1296" y="205"/>
      <point x="1179" y="133"/>
    </contour>
    <contour>
      <point x="1803" y="0" type="move" smooth="yes"/>
    </contour>
  </outline>
</glyph>
<glyph name="oe" format="1">
  <advance width="3383"/>
  <unicode hex="0153"/>
  <outline>
    <contour>
      <point x="751" y="-49" type="curve" smooth="yes"/>
      <point x="993" y="-49"/>
      <point x="1154" y="51"/>
      <point x="1223" y="229" type="curve"/>
      <point x="1292" y="57"/>
      <point x="1442" y="-49"/>
      <point x="1667" y="-49" type="curve" smooth="yes"/>
      <point x="1903" y="-49"/>
      <point x="2063" y="57"/>
      <point x="2154" y="225" type="curve"/>
      <point x="2053" y="327" type="line"/>
      <point x="1981" y="209"/>
      <point x="1856" y="112"/>
      <point x="1680" y="112" type="curve" smooth="yes"/>
      <point x="1623" y="112"/>
      <point x="1574" y="122"/>
      <point x="1530" y="142" type="curve" smooth="yes"/>
      <point x="1405" y="201"/>
      <point x="1332" y="332"/>
      <point x="1327" y="513" type="curve"/>
      <point x="1327" y="536" type="line"/>
      <point x="2191" y="538" type="line"/>
      <point x="2191" y="600" type="line" smooth="yes"/>
      <point x="2191" y="964"/>
      <point x="2028" y="1220"/>
      <point x="1674" y="1220" type="curve" smooth="yes"/>
      <point x="1444" y="1220"/>
      <point x="1306" y="1115"/>
      <point x="1228" y="948" type="curve"/>
      <point x="1142" y="1116"/>
      <point x="1003" y="1220"/>
      <point x="762" y="1220" type="curve" smooth="yes"/>
      <point x="666" y="1220"/>
      <point x="581" y="1204"/>
      <point x="506" y="1170" type="curve" smooth="yes"/>
      <point x="301" y="1079"/>
      <point x="158" y="877"/>
      <point x="158" y="581" type="curve" smooth="yes"/>
      <point x="158" y="494"/>
      <point x="172" y="412"/>
      <point x="198" y="335" type="curve" smooth="yes"/>
      <point x="276" y="112"/>
      <point x="459" y="-49"/>
    </contour>
    <contour>
      <point x="762" y="112" type="curve" smooth="yes"/>
      <point x="693" y="112"/>
      <point x="632" y="125"/>
      <point x="581" y="150" type="curve" smooth="yes"/>
      <point x="440" y="219"/>
      <point x="357" y="368"/>
      <point x="357" y="579" type="curve" smooth="yes"/>
      <point x="357" y="643"/>
      <point x="364" y="704"/>
      <point x="382" y="762" type="curve" smooth="yes"/>
      <point x="430" y="925"/>
      <point x="548" y="1060"/>
      <point x="753" y="1060" type="curve" smooth="yes"/>
      <point x="1021" y="1060"/>
      <point x="1135" y="858"/>
      <point x="1135" y="584" type="curve" smooth="yes"/>
      <point x="1135" y="321"/>
      <point x="1020" y="112"/>
    </contour>
    <contour>
      <point x="1327" y="698" type="line"/>
      <point x="1331" y="745"/>
      <point x="1340" y="791"/>
      <point x="1357" y="835" type="curve"/>
      <point x="1407" y="958"/>
      <point x="1514" y="1060"/>
      <point x="1681" y="1060" type="curve" smooth="yes"/>
      <point x="1893" y="1060"/>
      <point x="1993" y="915"/>
      <point x="1993" y="698" type="curve"/>
    </contour>
    <contour>
      <point x="1692" y="0" type="move" smooth="yes"/>
    </contour>
  </outline>
</glyph>
<glyph name="florin" format="1">
  <advance width="2042"/>
  <unicode hex="0192"/>
  <outline>
    <contour>
      <point x="244" y="-585" type="curve" smooth="yes"/>
      <point x="314" y="-585"/>
      <point x="374" y="-570"/>
      <point x="420" y="-541" type="curve" smooth="yes"/>
      <point x="565" y="-451"/>
      <point x="612" y="-255"/>
      <point x="651" y="-54" type="curve"/>
      <point x="797" y="748" type="line"/>
      <point x="1040" y="748" type="line"/>
      <point x="1051" y="912" type="line"/>
      <point x="823" y="912" type="line"/>
      <point x="864" y="1143" type="line"/>
      <point x="885" y="1257"/>
      <point x="930" y="1324"/>
      <point x="1063" y="1324" type="curve" smooth="yes"/>
      <point x="1108" y="1324"/>
      <point x="1149" y="1314"/>
      <point x="1187" y="1299" type="curve"/>
      <point x="1195" y="1469" type="line"/>
      <point x="1144" y="1482"/>
      <point x="1090" y="1491"/>
      <point x="1033" y="1491" type="curve" smooth="yes"/>
      <point x="779" y="1491"/>
      <point x="683" y="1318"/>
      <point x="653" y="1090" type="curve"/>
      <point x="627" y="912" type="line"/>
      <point x="434" y="912" type="line"/>
      <point x="422" y="748" type="line"/>
      <point x="600" y="748" type="line"/>
      <point x="542" y="437"/>
      <point x="496" y="110"/>
      <point x="424" y="-187" type="curve" smooth="yes"/>
      <point x="399" y="-294"/>
      <point x="357" y="-422"/>
      <point x="229" y="-422" type="curve" smooth="yes"/>
      <point x="201" y="-422"/>
      <point x="170" y="-417"/>
      <point x="139" y="-404" type="curve"/>
      <point x="126" y="-566" type="line"/>
      <point x="169" y="-579"/>
      <point x="209" y="-585"/>
    </contour>
  </outline>
</glyph>
<glyph name="uni0237" format="1">
  <advance width="862"/>
  <unicode hex="0237"/>
  <outline>
    <contour>
      <point x="-34" y="-756" type="curve" smooth="yes"/>
      <point x="19" y="-756"/>
      <point x="63" y="-747"/>
      <point x="102" y="-730" type="curve" smooth="yes"/>
      <point x="279" y="-650"/>
      <point x="331" y="-428"/>
      <point x="331" y="-166" type="curve" smooth="yes"/>
      <point x="331" y="953" type="line"/>
      <point x="141" y="953" type="line"/>
      <point x="141" y="-216" type="line" smooth="yes"/>
      <point x="141" y="-423"/>
      <point x="99" y="-585"/>
      <point x="-79" y="-585" type="curve" smooth="yes"/>
      <point x="-113" y="-585"/>
      <point x="-142" y="-578"/>
      <point x="-176" y="-573" type="curve"/>
      <point x="-175" y="-740" type="line"/>
      <point x="-131" y="-750"/>
      <point x="-85" y="-756"/>
    </contour>
    <contour>
      <point x="432" y="0" type="move" smooth="yes"/>
    </contour>
  </outline>
</glyph>
<glyph name="circumflex" format="1">
  <advance width="1200"/>
  <unicode hex="02C6"/>
  <outline>
    <contour>
      <point x="26" y="2061" type="line"/>
      <point x="239" y="2061" type="line"/>
      <point x="400" y="2245" type="line"/>
      <point x="555" y="2061" type="line"/>
      <point x="775" y="2061" type="line"/>
      <point x="489" y="2442" type="line"/>
      <point x="310" y="2442" type="line"/>
    </contour>
    <contour>
      <point x="401" y="0" type="move" smooth="yes"/>
    </contour>
  </outline>
</glyph>
<glyph name="caron" format="1">
  <advance width="1200"/>
  <unicode hex="02C7"/>
  <outline>
    <contour>
      <point x="324" y="2061" type="line"/>
      <point x="501" y="2061" type="line"/>
      <point x="775" y="2440" type="line"/>
      <point x="598" y="2440" type="line"/>
      <point x="406" y="2187" type="line"/>
      <point x="218" y="2440" type="line"/>
      <point x="50" y="2440" type="line"/>
    </contour>
    <contour>
      <point x="412" y="0" type="move" smooth="yes"/>
    </contour>
  </outline>
</glyph>
<glyph name="breve" format="1">
  <advance width="1079"/>
  <unicode hex="02D8"/>
  <outline>
    <contour>
      <point x="380" y="2145" type="curve" smooth="yes"/>
      <point x="570" y="2145"/>
      <point x="686" y="2242"/>
      <point x="701" y="2423" type="curve"/>
      <point x="602" y="2423" type="line"/>
      <point x="580" y="2324"/>
      <point x="489" y="2271"/>
      <point x="372" y="2271" type="curve" smooth="yes"/>
      <point x="255" y="2271"/>
      <point x="172" y="2320"/>
      <point x="155" y="2423" type="curve"/>
      <point x="56" y="2423" type="line"/>
      <point x="71" y="2235"/>
      <point x="185" y="2145"/>
    </contour>
    <contour>
      <point x="378" y="0" type="move" smooth="yes"/>
    </contour>
  </outline>
</glyph>
<glyph name="ring" format="1">
  <advance width="1038"/>
  <unicode hex="02DA"/>
  <outline>
    <contour>
      <point x="393" y="2124" type="curve" smooth="yes"/>
      <point x="319" y="2124"/>
      <point x="267" y="2172"/>
      <point x="267" y="2248" type="curve" smooth="yes"/>
      <point x="267" y="2319"/>
      <point x="324" y="2371"/>
      <point x="393" y="2371" type="curve" smooth="yes"/>
      <point x="464" y="2371"/>
      <point x="521" y="2320"/>
      <point x="521" y="2248" type="curve" smooth="yes"/>
      <point x="521" y="2177"/>
      <point x="462" y="2124"/>
    </contour>
    <contour>
      <point x="396" y="2024" type="curve" smooth="yes"/>
      <point x="494" y="2024"/>
      <point x="635" y="2094"/>
      <point x="635" y="2248" type="curve" smooth="yes"/>
      <point x="635" y="2356"/>
      <point x="549" y="2471"/>
      <point x="395" y="2471" type="curve" smooth="yes"/>
      <point x="292" y="2471"/>
      <point x="154" y="2403"/>
      <point x="154" y="2246" type="curve" smooth="yes"/>
      <point x="154" y="2138"/>
      <point x="239" y="2024"/>
    </contour>
    <contour>
      <point x="394" y="0" type="move" smooth="yes"/>
    </contour>
  </outline>
</glyph>
<glyph name="ogonek" format="1">
  <advance width="871"/>
  <unicode hex="02DB"/>
  <outline>
    <contour>
      <point x="332" y="-687" type="curve" smooth="yes"/>
      <point x="405" y="-687"/>
      <point x="482" y="-675"/>
      <point x="534" y="-653" type="curve"/>
      <point x="534" y="-523" type="line"/>
      <point x="482" y="-544"/>
      <point x="432" y="-559"/>
      <point x="358" y="-559" type="curve" smooth="yes"/>
      <point x="300" y="-559"/>
      <point x="244" y="-523"/>
      <point x="244" y="-463" type="curve" smooth="yes"/>
      <point x="244" y="-444"/>
      <point x="248" y="-425"/>
      <point x="260" y="-406" type="curve" smooth="yes"/>
      <point x="309" y="-330"/>
      <point x="397" y="-279"/>
      <point x="476" y="-229" type="curve"/>
      <point x="329" y="-215" type="line"/>
      <point x="267" y="-246"/>
      <point x="204" y="-287"/>
      <point x="159" y="-334" type="curve" smooth="yes"/>
      <point x="121" y="-373"/>
      <point x="82" y="-425"/>
      <point x="82" y="-494" type="curve" smooth="yes"/>
      <point x="82" y="-525"/>
      <point x="89" y="-553"/>
      <point x="101" y="-576" type="curve" smooth="yes"/>
      <point x="140" y="-648"/>
      <point x="224" y="-687"/>
    </contour>
    <contour>
      <point x="534" y="10" type="move" smooth="yes"/>
    </contour>
  </outline>
</glyph>
<glyph name="tilde" format="1">
  <advance width="1137"/>
  <unicode hex="02DC"/>
  <outline>
    <contour>
      <point x="24" y="2119" type="curve"/>
      <point x="144" y="2119" type="line"/>
      <point x="153" y="2185"/>
      <point x="187" y="2219"/>
      <point x="249" y="2219" type="curve" smooth="yes"/>
      <point x="358" y="2219"/>
      <point x="428" y="2139"/>
      <point x="538" y="2139" type="curve" smooth="yes"/>
      <point x="679" y="2139"/>
      <point x="746" y="2259"/>
      <point x="761" y="2392" type="curve"/>
      <point x="638" y="2392" type="line"/>
      <point x="630" y="2332"/>
      <point x="598" y="2286"/>
      <point x="538" y="2286" type="curve" smooth="yes"/>
      <point x="517" y="2286"/>
      <point x="492" y="2290"/>
      <point x="470" y="2299" type="curve" smooth="yes"/>
      <point x="404" y="2323"/>
      <point x="339" y="2366"/>
      <point x="252" y="2366" type="curve" smooth="yes"/>
      <point x="111" y="2366"/>
      <point x="35" y="2255"/>
    </contour>
    <contour>
      <point x="393" y="0" type="move" smooth="yes"/>
    </contour>
  </outline>
</glyph>
<glyph name="hungarumlaut" format="1">
  <advance width="1661"/>
  <unicode hex="02DD"/>
  <outline>
    <contour>
      <point x="279" y="2067" type="line"/>
      <point x="413" y="2067" type="line"/>
      <point x="728" y="2435" type="line"/>
      <point x="526" y="2435" type="line"/>
    </contour>
    <contour>
      <point x="584" y="2067" type="line"/>
      <point x="722" y="2067" type="line"/>
      <point x="1037" y="2435" type="line"/>
      <point x="836" y="2435" type="line"/>
    </contour>
    <contour>
      <point x="658" y="0" type="move" smooth="yes"/>
    </contour>
  </outline>
</glyph>
<glyph name="uni0307" format="1">
  <advance width="898"/>
  <unicode hex="0307"/>
  <outline>
    <contour>
      <point x="316" y="2195" type="line"/>
      <point x="500" y="2195" type="line"/>
      <point x="500" y="2386" type="line"/>
      <point x="316" y="2386" type="line"/>
    </contour>
    <contour>
      <point x="408" y="0" type="move" smooth="yes"/>
    </contour>
  </outline>
</glyph>
<glyph name="dblgravecmb" format="1">
  <advance width="1661"/>
  <unicode hex="030F"/>
  <outline>
    <contour>
      <point x="595" y="2067" type="line"/>
      <point x="732" y="2067" type="line"/>
      <point x="480" y="2435" type="line"/>
      <point x="279" y="2435" type="line"/>
    </contour>
    <contour>
      <point x="902" y="2067" type="line"/>
      <point x="1037" y="2067" type="line"/>
      <point x="789" y="2435" type="line"/>
      <point x="588" y="2435" type="line"/>
    </contour>
    <contour>
      <point x="658" y="0" type="move" smooth="yes"/>
    </contour>
  </outline>
</glyph>
<glyph name="uni0311" format="1">
  <advance width="1079"/>
  <unicode hex="0311"/>
  <outline>
    <contour>
      <point x="56" y="2145" type="curve"/>
      <point x="155" y="2145" type="line"/>
      <point x="172" y="2249"/>
      <point x="255" y="2297"/>
      <point x="372" y="2297" type="curve" smooth="yes"/>
      <point x="489" y="2297"/>
      <point x="580" y="2244"/>
      <point x="602" y="2145" type="curve"/>
      <point x="701" y="2145" type="line"/>
      <point x="686" y="2326"/>
      <point x="570" y="2423"/>
      <point x="380" y="2423" type="curve" smooth="yes"/>
      <point x="185" y="2423"/>
      <point x="71" y="2333"/>
    </contour>
  </outline>
</glyph>
<glyph name="commaaccentcomb" format="1">
  <advance width="927"/>
  <unicode hex="0326"/>
  <outline>
    <contour>
      <point x="135" y="-1101" type="line"/>
      <point x="285" y="-1101" type="line"/>
      <point x="470" y="-557" type="line"/>
      <point x="256" y="-557" type="line"/>
    </contour>
    <contour>
      <point x="302" y="0" type="move" smooth="yes"/>
    </contour>
  </outline>
</glyph>
<glyph name="Delta" format="1">
  <advance width="2256"/>
  <unicode hex="0394"/>
  <outline>
    <contour>
      <point x="69" y="0" type="line"/>
      <point x="1469" y="0" type="line"/>
      <point x="1469" y="94" type="line"/>
      <point x="874" y="1678" type="line"/>
      <point x="665" y="1678" type="line"/>
      <point x="69" y="94" type="line"/>
    </contour>
    <contour>
      <point x="332" y="190" type="line"/>
      <point x="727" y="1305" type="line"/>
      <point x="763" y="1430" type="line"/>
      <point x="802" y="1305" type="line"/>
      <point x="1206" y="190" type="line"/>
    </contour>
  </outline>
</glyph>
<glyph name="uni03A9" format="1">
  <advance width="2752"/>
  <unicode hex="03A9"/>
  <outline>
    <contour>
      <point x="172" y="0" type="line"/>
      <point x="792" y="0" type="line"/>
      <point x="788" y="142" type="line"/>
      <point x="729" y="182"/>
      <point x="676" y="229"/>
      <point x="626" y="282" type="curve" smooth="yes"/>
      <point x="496" y="424"/>
      <point x="388" y="624"/>
      <point x="388" y="891" type="curve" smooth="yes"/>
      <point x="388" y="986"/>
      <point x="403" y="1073"/>
      <point x="431" y="1153" type="curve" smooth="yes"/>
      <point x="510" y="1371"/>
      <point x="688" y="1537"/>
      <point x="973" y="1537" type="curve" smooth="yes"/>
      <point x="1069" y="1537"/>
      <point x="1153" y="1519"/>
      <point x="1224" y="1484" type="curve" smooth="yes"/>
      <point x="1420" y="1387"/>
      <point x="1545" y="1179"/>
      <point x="1545" y="885" type="curve" smooth="yes"/>
      <point x="1545" y="807"/>
      <point x="1534" y="730"/>
      <point x="1513" y="658" type="curve"/>
      <point x="1451" y="431"/>
      <point x="1312" y="260"/>
      <point x="1140" y="142" type="curve"/>
      <point x="1145" y="0" type="line"/>
      <point x="1740" y="0" type="line"/>
      <point x="1751" y="163" type="line"/>
      <point x="1375" y="161" type="line"/>
      <point x="1474" y="242"/>
      <point x="1568" y="347"/>
      <point x="1634" y="467" type="curve"/>
      <point x="1697" y="585"/>
      <point x="1748" y="729"/>
      <point x="1748" y="906" type="curve" smooth="yes"/>
      <point x="1748" y="1150"/>
      <point x="1663" y="1342"/>
      <point x="1541" y="1472" type="curve" smooth="yes"/>
      <point x="1416" y="1606"/>
      <point x="1228" y="1702"/>
      <point x="979" y="1702" type="curve" smooth="yes"/>
      <point x="735" y="1702"/>
      <point x="541" y="1613"/>
      <point x="410" y="1487" type="curve" smooth="yes"/>
      <point x="277" y="1359"/>
      <point x="183" y="1167"/>
      <point x="183" y="911" type="curve" smooth="yes"/>
      <point x="183" y="830"/>
      <point x="193" y="752"/>
      <point x="212" y="679" type="curve" smooth="yes"/>
      <point x="267" y="452"/>
      <point x="391" y="282"/>
      <point x="551" y="161" type="curve"/>
      <point x="159" y="163" type="line"/>
    </contour>
    <contour>
      <point x="20" y="0" type="move" smooth="yes"/>
    </contour>
  </outline>
</glyph>
<glyph name="uni03BC" format="1">
  <advance width="2089"/>
  <unicode hex="03BC"/>
  <outline>
    <contour>
      <point x="270" y="-356" type="line"/>
      <point x="458" y="-356" type="line"/>
      <point x="458" y="-83" type="line"/>
      <point x="523" y="-123"/>
      <point x="605" y="-145"/>
      <point x="709" y="-145" type="curve" smooth="yes"/>
      <point x="879" y="-145"/>
      <point x="1007" y="-83"/>
      <point x="1095" y="40" type="curve"/>
      <point x="1099" y="-119" type="line"/>
      <point x="1293" y="-119" type="line"/>
      <point x="1285" y="-20"/>
      <point x="1284" y="64"/>
      <point x="1284" y="170" type="curve" smooth="yes"/>
      <point x="1284" y="1086" type="line"/>
      <point x="1095" y="1086" type="line"/>
      <point x="1095" y="393" type="line" smooth="yes"/>
      <point x="1095" y="341"/>
      <point x="1087" y="292"/>
      <point x="1072" y="245" type="curve" smooth="yes"/>
      <point x="1028" y="111"/>
      <point x="925" y="9"/>
      <point x="752" y="9" type="curve" smooth="yes"/>
      <point x="543" y="9"/>
      <point x="458" y="132"/>
      <point x="458" y="350" type="curve" smooth="yes"/>
      <point x="458" y="1086" type="line"/>
      <point x="270" y="1086" type="line"/>
    </contour>
  </outline>
</glyph>
<glyph name="pi" format="1">
  <advance width="2211"/>
  <unicode hex="03C0"/>
  <outline>
    <contour>
      <point x="1225" y="-14" type="curve" smooth="yes"/>
      <point x="1279" y="-14"/>
      <point x="1330" y="-6"/>
      <point x="1382" y="3" type="curve"/>
      <point x="1370" y="37"/>
      <point x="1367" y="72"/>
      <point x="1367" y="113" type="curve" smooth="yes"/>
      <point x="1367" y="125"/>
      <point x="1367" y="137"/>
      <point x="1368" y="148" type="curve" smooth="yes"/>
      <point x="1370" y="183" type="line"/>
      <point x="1337" y="173"/>
      <point x="1306" y="168"/>
      <point x="1278" y="168" type="curve" smooth="yes"/>
      <point x="1182" y="168"/>
      <point x="1165" y="238"/>
      <point x="1165" y="334" type="curve" smooth="yes"/>
      <point x="1165" y="1060" type="line"/>
      <point x="1399" y="1060" type="line"/>
      <point x="1399" y="1217" type="line"/>
      <point x="433" y="1217" type="line" smooth="yes"/>
      <point x="270" y="1217"/>
      <point x="120" y="1214"/>
      <point x="29" y="1143" type="curve"/>
      <point x="49" y="989" type="line"/>
      <point x="137" y="1037"/>
      <point x="231" y="1057"/>
      <point x="366" y="1060" type="curve"/>
      <point x="361" y="862"/>
      <point x="349" y="661"/>
      <point x="326" y="478" type="curve" smooth="yes"/>
      <point x="305" y="304"/>
      <point x="276" y="119"/>
      <point x="207" y="-4" type="curve"/>
      <point x="400" y="-4" type="line"/>
      <point x="415" y="20"/>
      <point x="426" y="55"/>
      <point x="438" y="99" type="curve" smooth="yes"/>
      <point x="513" y="389"/>
      <point x="535" y="722"/>
      <point x="560" y="1060" type="curve"/>
      <point x="985" y="1060" type="line"/>
      <point x="985" y="322" type="line" smooth="yes"/>
      <point x="985" y="117"/>
      <point x="1027" y="-14"/>
    </contour>
  </outline>
</glyph>
<glyph name="endash" format="1">
  <advance width="1862"/>
  <unicode hex="2013"/>
  <outline>
    <contour>
      <point x="-10" y="861" type="line"/>
      <point x="1237" y="861" type="line"/>
      <point x="1237" y="1022" type="line"/>
      <point x="-10" y="1022" type="line"/>
    </contour>
  </outline>
</glyph>
<glyph name="quoteleft" format="1">
  <advance width="949"/>
  <unicode hex="2018"/>
  <outline>
    <contour>
      <point x="223" y="1802" type="line"/>
      <point x="432" y="1802" type="line"/>
      <point x="551" y="2319" type="line"/>
      <point x="400" y="2319" type="line"/>
    </contour>
  </outline>
</glyph>
<glyph name="quoteright" format="1">
  <advance width="949"/>
  <unicode hex="2019"/>
  <outline>
    <contour>
      <point x="241" y="1802" type="line"/>
      <point x="392" y="1802" type="line"/>
      <point x="567" y="2319" type="line"/>
      <point x="361" y="2319" type="line"/>
    </contour>
  </outline>
</glyph>
<glyph name="quotesinglbase" format="1">
  <advance width="949"/>
  <unicode hex="201A"/>
  <outline>
    <contour>
      <point x="214" y="-419" type="line"/>
      <point x="367" y="-419" type="line"/>
      <point x="543" y="96" type="line"/>
      <point x="336" y="96" type="line"/>
    </contour>
  </outline>
</glyph>
<glyph name="quotedblleft" format="1">
  <advance width="1757"/>
  <unicode hex="201C"/>
  <outline>
    <contour>
      <point x="308" y="1802" type="line"/>
      <point x="516" y="1802" type="line"/>
      <point x="636" y="2319" type="line"/>
      <point x="484" y="2319" type="line"/>
    </contour>
    <contour>
      <point x="707" y="1802" type="line"/>
      <point x="916" y="1802" type="line"/>
      <point x="1035" y="2319" type="line"/>
      <point x="883" y="2319" type="line"/>
    </contour>
  </outline>
</glyph>
<glyph name="quotedblright" format="1">
  <advance width="1757"/>
  <unicode hex="201D"/>
  <outline>
    <contour>
      <point x="357" y="1802" type="line"/>
      <point x="509" y="1802" type="line"/>
      <point x="685" y="2319" type="line"/>
      <point x="476" y="2319" type="line"/>
    </contour>
    <contour>
      <point x="730" y="1802" type="line"/>
      <point x="883" y="1802" type="line"/>
      <point x="1059" y="2319" type="line"/>
      <point x="851" y="2319" type="line"/>
    </contour>
  </outline>
</glyph>
<glyph name="quotedblbase" format="1">
  <advance width="1757"/>
  <unicode hex="201E"/>
  <outline>
    <contour>
      <point x="306" y="-419" type="line"/>
      <point x="459" y="-419" type="line"/>
      <point x="634" y="96" type="line"/>
      <point x="426" y="96" type="line"/>
    </contour>
    <contour>
      <point x="717" y="-419" type="line"/>
      <point x="869" y="-419" type="line"/>
      <point x="1045" y="96" type="line"/>
      <point x="836" y="96" type="line"/>
    </contour>
  </outline>
</glyph>
<glyph name="dagger" format="1">
  <advance width="1754"/>
  <unicode hex="2020"/>
  <outline>
    <contour>
      <point x="557" y="199" type="line"/>
      <point x="704" y="199" type="line"/>
      <point x="704" y="1163" type="line"/>
      <point x="1113" y="1163" type="line"/>
      <point x="1113" y="1318" type="line"/>
      <point x="720" y="1318" type="line"/>
      <point x="720" y="1770" type="line"/>
      <point x="557" y="1770" type="line"/>
      <point x="557" y="1318" type="line"/>
      <point x="183" y="1318" type="line"/>
      <point x="183" y="1163" type="line"/>
      <point x="557" y="1163" type="line"/>
    </contour>
  </outline>
</glyph>
<glyph name="daggerdbl" format="1">
  <advance width="1754"/>
  <unicode hex="2021"/>
  <outline>
    <contour>
      <point x="536" y="199" type="line"/>
      <point x="733" y="199" type="line"/>
      <point x="703" y="577" type="line"/>
      <point x="1097" y="577" type="line"/>
      <point x="1097" y="726" type="line"/>
      <point x="703" y="726" type="line"/>
      <point x="703" y="1220" type="line"/>
      <point x="1105" y="1220" type="line"/>
      <point x="1105" y="1376" type="line"/>
      <point x="711" y="1376" type="line"/>
      <point x="734" y="1770" type="line"/>
      <point x="539" y="1770" type="line"/>
      <point x="569" y="1376" type="line"/>
      <point x="176" y="1376" type="line"/>
      <point x="176" y="1220" type="line"/>
      <point x="562" y="1220" type="line"/>
      <point x="562" y="726" type="line"/>
      <point x="169" y="726" type="line"/>
      <point x="169" y="577" type="line"/>
      <point x="562" y="577" type="line"/>
    </contour>
  </outline>
</glyph>
<glyph name="bullet" format="1">
  <advance width="1695"/>
  <unicode hex="2022"/>
  <outline>
    <contour>
      <point x="655" y="678" type="curve" smooth="yes"/>
      <point x="771" y="678"/>
      <point x="865" y="726"/>
      <point x="928" y="787" type="curve"/>
      <point x="990" y="845"/>
      <point x="1044" y="935"/>
      <point x="1044" y="1049" type="curve" smooth="yes"/>
      <point x="1044" y="1098"/>
      <point x="1034" y="1145"/>
      <point x="1013" y="1189" type="curve"/>
      <point x="956" y="1312"/>
      <point x="835" y="1411"/>
      <point x="660" y="1411" type="curve" smooth="yes"/>
      <point x="609" y="1411"/>
      <point x="559" y="1403"/>
      <point x="512" y="1382" type="curve"/>
      <point x="387" y="1330"/>
      <point x="270" y="1215"/>
      <point x="270" y="1041" type="curve" smooth="yes"/>
      <point x="270" y="992"/>
      <point x="279" y="944"/>
      <point x="299" y="901" type="curve" smooth="yes"/>
      <point x="356" y="776"/>
      <point x="479" y="678"/>
    </contour>
  </outline>
</glyph>
